<svg width="90" height="90" viewBox="0 0 90 90" fill="none" xmlns="http://www.w3.org/2000/svg">
<path fill-rule="evenodd" clip-rule="evenodd" d="M53.8738 14.2073C48.8042 19.2715 44.6146 23.578 44.5635 23.7776C44.3908 24.4519 44.7032 24.9087 46.7689 27.0028L48.8287 29.0912L46.8307 31.0839L44.8325 33.0766L40.2071 28.454C35.9095 24.1589 35.5402 23.8313 34.997 23.8313C34.4695 23.8313 34.2013 24.0428 32.2524 25.9957L30.0924 28.1603L29.3811 27.4622C28.5389 26.6358 27.7404 26.5168 27.13 27.1273C26.5195 27.7375 26.6385 28.536 27.465 29.378L28.1632 30.0893L25.9983 32.2491C24.0451 34.1977 23.8336 34.4658 23.8336 34.9933C23.8336 35.5364 24.1615 35.9057 28.4577 40.2035L33.0818 44.8294L31.0448 46.8662L29.0076 48.9031L26.7595 46.6775C24.6028 44.5421 24.4895 44.4562 23.9643 44.5594C23.521 44.6466 21.6676 46.4164 14.2085 53.8752C5.60568 62.4776 5 63.1211 5 63.6575C5 64.1885 5.39684 64.6291 10.2883 69.5287C15.4757 74.7248 15.5893 74.8258 16.2464 74.8258C16.9094 74.8258 17.0119 74.7301 26.125 65.614C34.7418 56.9941 35.3338 56.365 35.3338 55.8255C35.3338 55.3084 35.1068 55.0216 33.1271 53.038L30.9203 50.8269L32.9588 48.7886L34.9975 46.7503L39.7374 51.4788C44.3938 56.1243 44.487 56.2055 45.0307 56.0975C45.447 56.0147 46.11 55.4629 47.7095 53.8682L49.8349 51.749L50.9376 52.8513L52.0401 53.9539L51.8328 54.5818C51.2876 56.2336 52.0624 58.3044 53.5755 59.2398C54.309 59.6933 54.5285 59.7441 55.7508 59.7441C56.9732 59.7441 57.1927 59.6933 57.9262 59.2398C60.1024 57.8945 60.5059 54.7523 58.7365 52.9305C58.415 52.5995 57.9265 52.2121 57.6509 52.0696C56.9312 51.6975 55.6447 51.5858 54.73 51.8161L53.9405 52.0149L52.8476 50.9222L51.7548 49.8293L53.9111 47.6684C55.871 45.7044 56.0675 45.4531 56.0675 44.911C56.0675 44.3523 55.7733 44.0205 51.4109 39.6564L46.7544 34.9983L48.7452 33.0026L50.7359 31.0069L52.9348 33.1685C54.9822 35.1809 55.1778 35.3301 55.7725 35.3301C56.3942 35.3301 56.6568 35.0844 65.6228 26.1196C74.6951 17.0484 74.8345 16.8991 74.8345 16.2485C74.8345 15.6039 74.7071 15.4607 69.5399 10.2939C64.6308 5.38562 64.2031 5 63.6683 5C63.1283 5 62.5004 5.59027 53.8738 14.2073ZM61.6239 10.2929L59.6687 12.2531L63.6676 16.2488L67.6664 20.2445L69.6677 18.2486L71.6691 16.2526L67.7114 12.2929C65.5345 10.1149 63.7143 8.33297 63.6663 8.33297C63.6183 8.33297 62.6993 9.21505 61.6239 10.2929ZM55.7513 16.165L53.7546 18.1666L57.7517 22.1656L61.7488 26.1649L63.7493 24.1646L65.7497 22.1643L61.7488 18.1639L57.7479 14.1635L55.7513 16.165ZM49.7606 22.155L47.7754 24.1451L51.7461 28.071C53.9301 30.2304 55.7633 31.9971 55.82 31.9971C55.9933 31.9971 59.6676 28.2535 59.6676 28.0768C59.6676 27.9129 51.9926 20.165 51.8303 20.165C51.7836 20.165 50.8523 21.0606 49.7606 22.155ZM31.0001 31.0809L27.0855 34.9974L36.0005 43.9125L44.9155 52.8275L48.8752 48.8709L52.8348 44.9142L43.96 36.0393C39.0787 31.158 35.0467 27.1643 34.9998 27.1643C34.9528 27.1643 33.153 28.9268 31.0001 31.0809ZM22.0829 49.8292L20.0876 51.8296L24.001 55.7452C26.1533 57.8988 27.9912 59.6608 28.085 59.6608C28.179 59.6608 29.1131 58.8012 30.1607 57.7506L32.0656 55.8405L28.8216 52.5429C27.0372 50.7292 25.2855 48.9264 24.9287 48.537C24.572 48.1475 24.2346 47.8287 24.1793 47.8287C24.1238 47.8287 23.1805 48.729 22.0829 49.8292ZM16.1232 55.788L14.168 57.7481L18.1669 61.7439L22.1656 65.7396L24.167 63.7437L26.1683 61.7477L22.2106 57.788C20.0337 55.61 18.2135 53.8281 18.1655 53.8281C18.1175 53.8281 17.1985 54.7101 16.1232 55.788ZM54.7433 54.7371C53.8445 55.6357 54.4785 57.161 55.7508 57.161C57.0395 57.161 57.6432 55.6824 56.7282 54.7673C56.146 54.1852 55.308 54.1725 54.7433 54.7371ZM74.4301 54.7171C74.1001 55.0471 74.0226 55.3454 73.9215 56.6753C73.5541 61.5057 71.7988 65.4871 68.6467 68.6388C65.4615 71.8236 61.5398 73.5333 56.5373 73.9176C55.1583 74.0234 54.955 74.0816 54.6623 74.4535C54.2463 74.9825 54.243 75.6767 54.6541 76.1822C54.9535 76.5503 55.0797 76.5743 56.6125 76.5551C65.9345 76.4388 74.467 69.1792 76.2352 59.8599C76.631 57.7733 76.7497 55.6259 76.4957 55.1491C76.0173 54.2515 75.0898 54.0575 74.4301 54.7171ZM82.7438 54.7371C82.4129 55.0679 82.3343 55.3149 82.3333 56.0287C82.3314 57.1979 82.0513 59.595 81.7341 61.1538C80.1769 68.8106 74.6865 75.8867 67.508 79.4885C64.3298 81.0831 61.3901 81.8837 57.4949 82.2155C54.6425 82.4586 54.425 82.5621 54.425 83.6782C54.425 84.9915 55.3473 85.2259 58.9107 84.8176C66.7313 83.9218 74.1068 79.7644 78.8547 73.5759C82.6924 68.5738 84.993 62.0983 85 56.2786C85.0011 55.2974 84.9466 55.0914 84.5921 54.7371C84.3343 54.4792 83.9926 54.328 83.668 54.328C83.3433 54.328 83.0016 54.4792 82.7438 54.7371ZM66.0768 54.9038C65.7682 55.2123 65.6677 55.4904 65.6677 56.0352C65.6677 57.0835 65.2502 58.5649 64.5521 59.9939C63.0601 63.0486 59.1756 65.6601 56.1243 65.6601C55.074 65.6601 54.5008 66.1351 54.5008 67.0055C54.5008 68.021 54.9167 68.327 56.2925 68.324C57.8592 68.3207 59.3299 67.939 61.0843 67.081C62.9274 66.1796 64.3581 65.0315 65.5727 63.4794C67.2359 61.3541 68.3344 58.4956 68.3344 56.2936C68.3344 55.4744 68.2669 55.2454 67.9252 54.9038C67.6674 54.6458 67.3257 54.4947 67.001 54.4947C66.6763 54.4947 66.3347 54.6458 66.0768 54.9038ZM10.2506 61.6601L8.25389 63.6617L12.251 67.6607L16.248 71.66L18.2486 69.6597L20.2489 67.6594L16.248 63.659L12.2471 59.6586L10.2506 61.6601Z" fill="#335472"/>
</svg>
