<svg width="86" height="71" viewBox="0 0 86 71" fill="none" xmlns="http://www.w3.org/2000/svg">
    <path fill-rule="evenodd" clip-rule="evenodd"
        d="M0.850006 0.849609H85.2566V47.993L61.9595 70.1486H0.850006V0.849609ZM3.15001 3.14961V67.8486H61.0405L82.9566 47.0063V3.14961H3.15001Z"
        fill="#335472" />
    <path fill-rule="evenodd" clip-rule="evenodd"
        d="M5.44839 5.44922H80.0022V45.5172H85.257V47.8172H61.6103V70.1502H59.3103V65.5523H5.44839V5.44922ZM59.3103 63.2523V55.2256C57.9969 55.1502 56.8595 54.3606 56.0366 53.542C54.8644 52.376 53.9722 50.8292 53.4978 49.7617L53.4601 49.677L53.4365 49.5873C52.4362 45.7861 47.5546 37.6462 36.0571 36.6464C29.4105 36.0684 24.6059 30.6825 21.3355 24.6526C18.2536 18.97 16.3603 12.4094 15.4871 7.74922H7.74839V48.279C9.28438 47.2797 11.2758 46.3407 13.5404 45.8697C16.9697 45.1565 21.0284 45.5207 25.0018 48.3588C27.3241 50.0176 29.2301 51.5095 30.8855 52.8152C31.0159 52.9181 31.1446 53.0197 31.2716 53.12C32.7665 54.2999 34.0377 55.3034 35.2543 56.1513C37.8443 57.9564 40.1201 59.0098 43.4863 59.3159C49.1924 59.8346 54.1081 62.0315 56.1832 63.2523H59.3103ZM50.609 63.2523C48.5393 62.5189 46.0036 61.8542 43.278 61.6064C39.4188 61.2556 36.7682 60.01 33.9392 58.0382C32.6634 57.149 31.338 56.1027 29.86 54.936C29.7283 54.8319 29.5953 54.7269 29.461 54.621C27.8116 53.3199 25.9407 51.856 23.665 50.2304C20.2817 47.8138 16.8961 47.5211 14.0087 48.1216C11.3415 48.6763 9.10246 49.9964 7.74839 51.1288V63.2523H50.609ZM17.829 7.74922C18.7027 12.2026 20.5073 18.3012 23.3573 23.5561C26.5351 29.4152 30.817 33.8821 36.2564 34.3551C48.8431 35.4496 54.3943 44.3581 55.6354 48.9072C56.0446 49.8046 56.7772 51.0345 57.6586 51.9114C58.2757 52.5252 58.8228 52.8388 59.3103 52.9089V45.5172H77.7022V7.74922H17.829Z"
        fill="#335472" />
    <path fill-rule="evenodd" clip-rule="evenodd"
        d="M58.4891 33.8584C61.2093 33.8584 63.4144 31.6532 63.4144 28.933C63.4144 26.2128 61.2093 24.0076 58.4891 24.0076C55.7688 24.0076 53.5637 26.2128 53.5637 28.933C53.5637 31.6532 55.7688 33.8584 58.4891 33.8584ZM58.4891 36.1584C62.4795 36.1584 65.7144 32.9235 65.7144 28.933C65.7144 24.9425 62.4795 21.7076 58.4891 21.7076C54.4986 21.7076 51.2637 24.9425 51.2637 28.933C51.2637 32.9235 54.4986 36.1584 58.4891 36.1584Z"
        fill="#335472" />
    <path fill-rule="evenodd" clip-rule="evenodd"
        d="M21.0481 37.7957C21.9544 37.7957 22.6892 37.061 22.6892 36.1546C22.6892 35.2482 21.9544 34.5135 21.0481 34.5135C20.1417 34.5135 19.407 35.2482 19.407 36.1546C19.407 37.061 20.1417 37.7957 21.0481 37.7957ZM21.0481 40.0957C23.2247 40.0957 24.9892 38.3312 24.9892 36.1546C24.9892 33.978 23.2247 32.2135 21.0481 32.2135C18.8715 32.2135 17.107 33.978 17.107 36.1546C17.107 38.3312 18.8715 40.0957 21.0481 40.0957Z"
        fill="#335472" />
    <path fill-rule="evenodd" clip-rule="evenodd"
        d="M51.921 56.19C52.4646 56.19 52.9053 55.7493 52.9053 55.2057C52.9053 54.6622 52.4646 54.2215 51.921 54.2215C51.3774 54.2215 50.9367 54.6622 50.9367 55.2057C50.9367 55.7493 51.3774 56.19 51.921 56.19ZM51.921 58.49C53.7348 58.49 55.2052 57.0196 55.2052 55.2057C55.2052 53.3919 53.7348 51.9215 51.921 51.9215C50.1071 51.9215 48.6367 53.3919 48.6367 55.2057C48.6367 57.0196 50.1071 58.49 51.921 58.49Z"
        fill="#335472" />
    <path fill-rule="evenodd" clip-rule="evenodd"
        d="M26.4439 6.5301L21.7754 20.5354L19.5935 19.8081L24.2619 5.80277L26.4439 6.5301Z"
        fill="#335472" />
    <path fill-rule="evenodd" clip-rule="evenodd"
        d="M33.0286 6.56121L25.6865 27.1191L23.5205 26.3455L30.8626 5.78763L33.0286 6.56121Z"
        fill="#335472" />
    <path fill-rule="evenodd" clip-rule="evenodd"
        d="M39.5936 7.8692L30.9458 32.3711L28.777 31.6056L37.4247 7.10372L39.5936 7.8692Z"
        fill="#335472" />
    <path fill-rule="evenodd" clip-rule="evenodd"
        d="M46.1607 7.86536L36.2049 36.3103L34.0341 35.5505L43.9898 7.10556L46.1607 7.86536Z"
        fill="#335472" />
    <path fill-rule="evenodd" clip-rule="evenodd"
        d="M54.051 6.56966L42.7554 37.6327L40.5939 36.8467L51.8895 5.78366L54.051 6.56966Z"
        fill="#335472" />
    <path fill-rule="evenodd" clip-rule="evenodd"
        d="M60.6262 6.58444L47.9953 40.2669L45.8417 39.4593L58.4726 5.77685L60.6262 6.58444Z"
        fill="#335472" />
    <path fill-rule="evenodd" clip-rule="evenodd"
        d="M68.519 6.60756L53.2273 45.532L51.0865 44.691L66.3783 5.76656L68.519 6.60756Z"
        fill="#335472" />
    <path fill-rule="evenodd" clip-rule="evenodd"
        d="M75.0882 6.60896L57.167 52.1012L55.0271 51.2582L72.9483 5.76595L75.0882 6.60896Z"
        fill="#335472" />
    <path fill-rule="evenodd" clip-rule="evenodd"
        d="M79.265 10.1186C79.8578 10.3466 80.1535 11.012 79.9255 11.6048L66.7884 45.7612C66.5604 46.354 65.8951 46.6497 65.3023 46.4217C64.7095 46.1937 64.4137 45.5283 64.6417 44.9355L77.7788 10.7792C78.0068 10.1864 78.6722 9.89065 79.265 10.1186Z"
        fill="#335472" />
    <path fill-rule="evenodd" clip-rule="evenodd"
        d="M79.2938 28.524C79.8801 28.7683 80.1573 29.4416 79.913 30.0279L73.3445 45.7923C73.1002 46.3786 72.4269 46.6558 71.8407 46.4115C71.2544 46.1673 70.9771 45.494 71.2214 44.9077L77.79 29.1432C78.0342 28.557 78.7075 28.2797 79.2938 28.524Z"
        fill="#335472" />
</svg>
