<svg width="91" height="90" viewBox="0 0 91 90" fill="none" xmlns="http://www.w3.org/2000/svg">
<path d="M5 75.593H61.96L85 55.0604V13.9951H5V75.593Z" stroke="#335472" stroke-width="2.3" stroke-linecap="square"/>
<path d="M61.9585 75.5942V71.3669M84.9985 55.0616H61.9585V61.7045M61.9585 71.3669H57.4785M61.9585 71.3669V61.7045M80.5185 54.4577L79.8785 18.2236H19.0785M9.47852 58.685V71.3669H57.4785M9.47852 58.685C12.2518 56.2694 19.5905 52.646 26.7585 57.4772C35.7185 63.5162 38.2785 67.1396 45.3185 67.7435C50.9505 68.2266 55.7718 70.3604 57.4785 71.3669M9.47852 58.685V35.7368V18.2236H19.0785M19.0785 18.2236C20.5718 26.6782 26.5025 43.829 38.2785 44.7953C50.0545 45.7615 55.1318 53.6525 56.1985 57.4772C57.0518 59.2889 59.3985 62.6707 61.9585 61.7045" stroke="#335472" stroke-width="2.3" stroke-linecap="square"/>
<path d="M65.93 38.7572C65.93 41.7288 63.3568 44.2501 60.04 44.2501C56.7232 44.2501 54.15 41.7288 54.15 38.7572C54.15 35.7855 56.7232 33.2643 60.04 33.2643C63.3568 33.2643 65.93 35.7855 65.93 38.7572Z" stroke="#335472" stroke-width="2.3"/>
<path d="M26.2487 45.3968C26.2487 46.7009 25.1082 47.8702 23.5587 47.8702C22.0093 47.8702 20.8687 46.7009 20.8687 45.3968C20.8687 44.0928 22.0093 42.9234 23.5587 42.9234C25.1082 42.9234 26.2487 44.0928 26.2487 45.3968Z" stroke="#335472" stroke-width="2.3"/>
<path d="M55.6875 62.9121C55.6875 63.8826 54.8335 64.7816 53.6375 64.7816C52.4415 64.7816 51.5875 63.8826 51.5875 62.9121C51.5875 61.9416 52.4415 61.0426 53.6375 61.0426C54.8335 61.0426 55.6875 61.9416 55.6875 62.9121Z" stroke="#335472" stroke-width="2.3"/>
<path d="M23.5586 29.6993L27.3986 18.8291" stroke="#335472" stroke-width="2.3" stroke-linecap="square"/>
<path d="M27.4004 35.7383L33.8004 18.8291" stroke="#335472" stroke-width="2.3" stroke-linecap="square"/>
<path d="M32.5195 40.5692L40.1995 20.0366" stroke="#335472" stroke-width="2.3" stroke-linecap="square"/>
<path d="M37.6426 44.1927L46.6026 20.0366" stroke="#335472" stroke-width="2.3" stroke-linecap="square"/>
<path d="M44.0391 45.4007L54.2791 18.8291" stroke="#335472" stroke-width="2.3" stroke-linecap="square"/>
<path d="M49.1602 47.8163L60.6802 18.8291" stroke="#335472" stroke-width="2.3" stroke-linecap="square"/>
<path d="M54.2793 52.6476L68.3593 18.8291" stroke="#335472" stroke-width="2.3" stroke-linecap="square"/>
<path d="M58.123 58.6865L74.763 18.8291" stroke="#335472" stroke-width="2.3" stroke-linecap="square"/>
<path d="M67.0801 53.8491L79.8801 22.4463" stroke="#335472" stroke-width="2.3" stroke-linecap="square"/>
<path d="M73.4785 53.851L79.8785 39.3574" stroke="#335472" stroke-width="2.3" stroke-linecap="square"/>
</svg>
