<svg width="91" height="90" viewBox="0 0 91 90" fill="none" xmlns="http://www.w3.org/2000/svg">
<path fill-rule="evenodd" clip-rule="evenodd" d="M15.912 13.2885C14.7547 13.7131 13.8593 14.4894 13.3026 15.5511C11.7007 18.6058 14.05 22.0764 17.7196 22.0759C19.5118 22.0758 21.301 20.9606 22.0644 19.3679C22.5553 18.3438 22.5508 16.7354 22.0538 15.6769C21.0668 13.5744 18.1863 12.4543 15.912 13.2885ZM40.5973 14.6835V16.3669H32.0988H23.6003V17.538V18.7091L27.8495 18.7191C31.0647 18.7266 32.0039 18.7678 31.7089 18.8889C31.4945 18.977 30.5472 19.395 29.6038 19.8179C20.0212 24.114 12.679 32.6368 10.1924 42.3509C9.75005 44.079 9.25917 46.992 9.2548 47.9136C9.25293 48.3162 9.20724 48.9915 9.15313 49.4141L9.05473 50.1826H7.2833H5.51172V54.7207V59.2587H10.3457H15.1797V54.7207V50.1826H13.3855H11.5913L11.6816 48.9018C12.1243 42.6158 14.0927 37.2194 17.7287 32.3233C22.6709 25.6682 30.2537 20.9849 38.6674 19.3913L40.5193 19.0404L40.5636 20.5583L40.6079 22.0761H45.4313H50.2547L50.2989 20.5583L50.3432 19.0404L52.1951 19.3913C60.6088 20.9849 68.1916 25.6682 73.1339 32.3233C76.7698 37.2194 78.7382 42.6158 79.1809 48.9018L79.2712 50.1826H77.477H75.6828V54.7227V59.2628L80.5558 59.2242L85.4288 59.1855L85.4702 54.6475L85.5117 50.1095L83.6608 50.1544L81.8098 50.1992L81.7105 49.4225C81.6557 48.9951 81.6096 48.3162 81.6077 47.9136C81.6034 46.992 81.1125 44.079 80.6701 42.3509C78.1835 32.6368 70.8413 24.114 61.2587 19.8179C60.3153 19.395 59.368 18.977 59.1536 18.8889C58.8586 18.7678 59.7978 18.7266 63.013 18.7191L67.2623 18.7091V17.538V16.3669H58.7638H50.2653V14.6835V13H45.4313H40.5973V14.6835ZM71.4073 13.363C69.5127 14.0943 68.4516 15.5917 68.4488 17.538C68.446 19.4263 69.3919 20.8218 71.2386 21.6542C73.5895 22.7137 76.3814 21.7725 77.5612 19.5228C79.5207 15.7861 75.5159 11.7775 71.4073 13.363ZM16.4257 15.6716C15.5844 16.2091 15.2996 16.6809 15.2996 17.538C15.2996 19.8258 18.5546 20.5863 19.6629 18.5575C20.1056 17.7471 20.1046 17.3065 19.659 16.5152C19.0226 15.3854 17.4966 14.9872 16.4257 15.6716ZM43.0922 17.538V19.7339H45.4313H47.7703V17.538V15.3422H45.4313H43.0922V17.538ZM72.0977 15.6138C71.5004 15.9144 70.8488 16.9144 70.8488 17.53C70.8488 17.7418 71.0066 18.2043 71.1996 18.5575C72.3079 20.5863 75.5629 19.8258 75.5629 17.538C75.5629 15.8594 73.6831 14.8157 72.0977 15.6138ZM37.4028 49.398C29.6213 61.5737 29.4884 61.7948 29.7182 62.1704C29.847 62.3805 31.2598 64.7656 32.8579 67.4705L35.7632 72.3886V73.3627V74.3367H37.0107H38.2582V73.0699V71.803L35.3474 66.8866C33.7465 64.1825 32.4385 61.9034 32.4409 61.8221C32.4485 61.5591 45.2699 41.6189 45.4313 41.6189C45.5927 41.6189 58.414 61.5591 58.4216 61.8221C58.424 61.9034 57.116 64.1825 55.5152 66.8866L52.6043 71.803V73.0699V74.3367H53.8518H55.0993V73.3627V72.3886L58.0047 67.4705C59.6027 64.7656 61.0155 62.3805 61.1443 62.1704C61.3741 61.7948 61.2413 61.5737 53.4598 49.398C49.1046 42.5833 45.4918 37.0077 45.4313 37.0077C45.3708 37.0077 41.7579 42.5833 37.4028 49.398ZM5.58111 54.7207C5.58111 57.2569 5.60247 58.2945 5.62836 57.0263C5.6544 55.7581 5.6544 53.6832 5.62836 52.4151C5.60247 51.1469 5.58111 52.1845 5.58111 54.7207ZM8.00669 54.7207V56.9165H10.3457H12.6848V54.7207V52.5249H10.3457H8.00669V54.7207ZM78.1778 54.7207V56.9165H80.5168H82.8558V54.7207V52.5249H80.5168H78.1778V54.7207ZM43.0442 60.6702C42.9848 60.7258 42.9363 61.2544 42.9363 61.845V62.9184H43.56H44.1838V68.6276V74.3367H45.4313H46.6787V68.6276V62.9184H47.309H47.9393L47.8938 61.7839L47.8483 60.6494L45.5002 60.6092C44.2087 60.5871 43.1035 60.6144 43.0442 60.6702ZM33.3732 75.4582C33.3155 75.5124 33.2683 76.0397 33.2683 76.6302V77.7037H45.4378H57.6073L57.5618 76.5692L57.5163 75.4346L45.4972 75.3972C38.8866 75.3765 33.4309 75.4041 33.3732 75.4582Z" fill="#335472"/>
</svg>
