<svg width="82" height="71" viewBox="0 0 82 71" fill="none" xmlns="http://www.w3.org/2000/svg">
    <path fill-rule="evenodd" clip-rule="evenodd"
        d="M13.4181 0.75H61.6639V15.49H81.3697V60.87H46.1807V70.25H0.75V26.21H13.4181V0.75ZM15.9181 3.25V28.71H3.25V67.75H43.6807V58.37H78.8697V17.99H59.1639V3.25H15.9181Z"
        fill="#335472" />
    <path fill-rule="evenodd" clip-rule="evenodd"
        d="M34.6202 15.75H39.4184V18.25H37.1201V20.875L34.6201 20.875L34.6202 15.75ZM41.515 15.75H48.6116V18.25H41.515V15.75ZM50.7082 15.75H57.8047V18.25H50.7082V15.75ZM59.9013 15.75H64.6996V20.7405H62.1996V18.25H59.9013V15.75ZM64.6996 23.2215L64.6996 30.7025H62.1996L62.1996 23.2215H64.6996ZM37.1201 23.625L37.1201 26.2387L40.0119 26.2126L40.0345 28.7125L37.1201 28.7388V31.1733H34.6201V28.75H32.2614V26.25H34.6201L34.6201 23.625L37.1201 23.625ZM48.7325 26.1338V31.0815H46.2325V28.6565L43.3408 28.6826L43.3182 26.1827L48.7325 26.1338ZM15.75 26.25H20.6088V28.75H18.25V31.1733H15.75V26.25ZM22.8263 26.25H30.0438V28.75H22.8263V26.25ZM64.6996 33.1835L64.6996 40.6645H62.1996L62.1996 33.1835H64.6996ZM48.7325 33.4542V40.827H46.2325V33.4542H48.7325ZM18.25 33.5198V40.8663H15.75V33.5198H18.25ZM37.1201 33.5198V40.8663H34.6201V33.5198H37.1201ZM64.6996 43.1456V48.1361H60.2037V45.6361H62.1996V43.1456H64.6996ZM48.7325 43.1997V45.6361H50.7284V48.1361H48.7325V51.2895H46.2325V48.1361H43.3294V45.6361H46.2325V43.1997H48.7325ZM18.25 43.2128V45.6361H20.6088V48.1361H15.75V43.2128H18.25ZM37.1201 43.2128V45.6361H40.0232V48.1361H37.1201V51.2895H34.6201V48.1361H32.2614V45.6361H34.6201V43.2128H37.1201ZM22.8263 45.6361H30.0438V48.1361H22.8263V45.6361ZM52.2202 45.6361H58.7119V48.1361H52.2202V45.6361ZM37.1201 55.0965V58.25H40.0232V60.75H34.6201V55.0965H37.1201ZM48.7325 55.0965V60.75H43.3294V58.25H46.2325V55.0965H48.7325Z"
        fill="#335472" />
</svg>
