<svg width="91" height="90" viewBox="0 0 91 90" fill="none" xmlns="http://www.w3.org/2000/svg">
<path fill-rule="evenodd" clip-rule="evenodd" d="M34.1345 7.35983C33.8045 7.69152 33.7766 7.82856 33.7766 9.11867V10.5177H29.4691H25.1614L24.8036 10.8775L24.4456 11.2372V17.3266V23.4159H20.1381H15.8304L15.4726 23.7757L15.1147 24.1354V29.6813V35.2274L14.3267 35.4966C12.0992 36.2578 10.4492 38.6016 10.4492 41.0043C10.4492 43.407 12.0992 45.7508 14.3267 46.512L15.1147 46.7812V52.3273V57.8732L15.4726 58.2329L15.8304 58.5927H24.8036H33.7766V59.9917C33.7766 61.2819 33.8045 61.4189 34.1345 61.7506L34.4923 62.1104H39.3832H44.2739V63.9238V65.7371L43.6543 65.8358C43.3134 65.8899 42.4968 66.1953 41.8394 66.5146C39.088 67.8504 37.2801 70.7535 37.2801 73.836C37.2801 78.3006 40.9993 82.0396 45.4403 82.0396C49.1304 82.0396 52.5146 79.3603 53.3489 75.7781L53.528 75.0086H60.2068H66.8856L67.2434 74.6488L67.6013 74.2891V58.2329V42.1769H71.3257H75.0502L75.408 41.817L75.7659 41.4573V35.9078V30.3582L76.5313 30.1132C78.7216 29.4121 80.4314 26.99 80.4314 24.5884C80.4314 22.1869 78.7216 19.7648 76.5313 19.0636L75.7659 18.8187V15.0279V11.2372L75.408 10.8775L75.0502 10.5177H66.077H57.104V9.11867C57.104 7.82856 57.0761 7.69152 56.7461 7.35983L56.3883 7H45.4403H34.4923L34.1345 7.35983ZM36.1093 11.6902V14.0354H45.4403H54.7712V11.6902V9.34512H45.4403H36.1093V11.6902ZM26.7784 18.1393V23.4159H30.2775H33.7766V22.0169C33.7766 20.7267 33.8045 20.5897 34.1345 20.258L34.4923 19.8982H39.3832H44.2739V18.1393V16.3805H39.3832H34.4923L34.1345 16.0207C33.8045 15.689 33.7766 15.5519 33.7766 14.2618V12.8628H30.2775H26.7784V18.1393ZM57.104 14.2618C57.104 15.5519 57.0761 15.689 56.7461 16.0207L56.3883 16.3805H51.4974H46.6067V18.1393V19.8982H51.4974H56.3883L56.7461 20.258L57.104 20.6177V24.5884V28.5592L56.7461 28.9188L56.3883 29.2787H51.4974H46.6067V30.7135V32.1482L50.378 35.99L54.1494 39.8317H63.7912H73.4332V35.0985V30.3654L72.6451 30.0961C70.4177 29.335 68.7677 26.9912 68.7677 24.5884C68.7677 22.1857 70.4177 19.8419 72.6451 19.0808L73.4332 18.8115V15.8372V12.8628H65.2686H57.104V14.2618ZM73.7239 21.1991C72.0901 21.7369 71.1831 22.9468 71.1831 24.5884C71.1831 26.6035 72.5947 28.022 74.5995 28.022C76.6044 28.022 78.016 26.6035 78.016 24.5884C78.016 23.1915 77.3683 22.1152 76.1482 21.4845C75.5196 21.1596 74.2853 21.0143 73.7239 21.1991ZM36.1093 24.5884V26.9336H45.4403H54.7712V24.5884V22.2433H45.4403H36.1093V24.5884ZM17.4474 30.4977V35.2346L18.2129 35.4795C20.4032 36.1807 22.1129 38.6027 22.1129 41.0043C22.1129 43.4059 20.4032 45.8279 18.2129 46.5291L17.4474 46.774V51.5109V56.2476H25.612H33.7766V54.8486C33.7766 53.5585 33.8045 53.4214 34.1345 53.0897L34.4923 52.7299H39.3832H44.2739V51.2265V49.7232L40.5187 45.95L36.7634 42.1769H35.27H33.7766V41.0043V39.8317H35.272H36.7675L40.5207 36.0565L44.2739 32.2813V30.78V29.2787H39.3832H34.4923L34.1345 28.9188C33.8045 28.5872 33.7766 28.4501 33.7766 27.16V25.761H25.612H17.4474V30.4977ZM42.0865 37.7069L38.8082 41.0052L42.1243 44.3388L45.4403 47.6725L48.7563 44.3388L52.0724 41.0052L48.794 37.7069C46.9908 35.8928 45.4817 34.4086 45.4403 34.4086C45.3989 34.4086 43.8898 35.8928 42.0865 37.7069ZM15.4054 37.615C13.7716 38.1528 12.8646 39.3627 12.8646 41.0043C12.8646 43.0193 14.2762 44.4379 16.2811 44.4379C18.2859 44.4379 19.6975 43.0193 19.6975 41.0043C19.6975 39.6073 19.0499 38.5311 17.8297 37.9004C17.2012 37.5754 15.9669 37.4302 15.4054 37.615ZM24.4456 41.0043V42.1769H25.612H26.7784V41.0043V39.8317H25.612H24.4456V41.0043ZM29.1111 41.0043V42.1769H30.2775H31.4439V41.0043V39.8317H30.2775H29.1111V41.0043ZM50.378 46.0186L46.6067 49.8604V51.2951V52.7299H51.4974H56.3883L56.7461 53.0897L57.104 53.4494V57.4202V61.3909L56.7461 61.7506L56.3883 62.1104H51.4974H46.6067V63.9258V65.7414L47.2641 65.8405C48.3845 66.0093 50.1472 67.0051 51.2007 68.0642C52.229 69.098 53.2165 70.8848 53.3983 72.0405L53.4964 72.6635H59.3825H65.2686V57.4202V42.1769H59.7089H54.1494L50.378 46.0186ZM36.1093 57.4202V59.7653H45.4403H54.7712V57.4202V55.075H45.4403H36.1093V57.4202ZM44.0189 68.1997C42.8931 68.5044 42.1326 68.9394 41.3498 69.7262C39.0705 72.0178 39.0802 75.6642 41.3721 77.9683C43.1163 79.7216 45.878 80.1532 48.1025 79.0199C50.2415 77.9303 51.5868 75.2589 51.1597 72.9499C50.7003 70.4667 48.9814 68.6384 46.636 68.138C45.6434 67.9263 44.9702 67.9422 44.0189 68.1997Z" fill="#335472"/>
</svg>
