<svg width="91" height="90" viewBox="0 0 91 90" fill="none" xmlns="http://www.w3.org/2000/svg">
<rect x="7.14453" y="15.25" width="77.5" height="59.2626" stroke="#335472" stroke-width="2.5"/>
<rect x="12.9629" y="20.7393" width="36.7727" height="26.3225" stroke="#335472" stroke-width="2.5"/>
<rect x="56.5977" y="38.5835" width="23.6818" height="8.48002" stroke="#335472" stroke-width="2.5"/>
<rect x="12.7423" y="53.4581" width="9.57761" height="2.05875" stroke="#335472" stroke-width="2.05875"/>
<rect x="12.7423" y="60.3223" width="9.57761" height="2.05875" stroke="#335472" stroke-width="2.05875"/>
<rect x="12.7423" y="67.1866" width="9.57761" height="2.05875" stroke="#335472" stroke-width="2.05875"/>
<line x1="26.2578" y1="53.9272" x2="49.5305" y2="53.9272" stroke="#335472" stroke-width="2.5"/>
<line x1="26.2578" y1="53.9272" x2="49.5305" y2="53.9272" stroke="#335472" stroke-width="2.5"/>
<line x1="26.2578" y1="53.9272" x2="49.5305" y2="53.9272" stroke="#335472" stroke-width="2.5"/>
<line x1="26.2578" y1="53.9272" x2="49.5305" y2="53.9272" stroke="#335472" stroke-width="2.5"/>
<path d="M65.5293 52.4287V69.585" stroke="#335472" stroke-width="2.5"/>
<path d="M65.5293 52.4287V69.585" stroke="#335472" stroke-width="2.5"/>
<path d="M65.5293 52.4287V69.585" stroke="#335472" stroke-width="2.5"/>
<path d="M65.5293 52.4287V69.585" stroke="#335472" stroke-width="2.5"/>
<line x1="26.2578" y1="60.7852" x2="49.5305" y2="60.7852" stroke="#335472" stroke-width="2.5"/>
<line x1="55.3477" y1="19.6143" x2="81.5295" y2="19.6143" stroke="#335472" stroke-width="2.5"/>
<line x1="55.3477" y1="26.4775" x2="81.5295" y2="26.4775" stroke="#335472" stroke-width="2.5"/>
<line x1="55.3477" y1="30.5933" x2="81.5295" y2="30.5933" stroke="#335472" stroke-width="2.5"/>
<line x1="55.3477" y1="34.7095" x2="81.5295" y2="34.7095" stroke="#335472" stroke-width="2.5"/>
<path d="M74.4613 60.6622C74.4613 65.2105 70.5317 69.0197 65.5295 69.0197C60.5272 69.0197 56.5977 65.2105 56.5977 60.6622C56.5977 56.1139 60.5272 52.3047 65.5295 52.3047C70.5317 52.3047 74.4613 56.1139 74.4613 60.6622Z" stroke="#335472" stroke-width="2.5"/>
</svg>
