<svg width="417" height="266" fill="none" xmlns="http://www.w3.org/2000/svg"><path fill-rule="evenodd" clip-rule="evenodd" d="M137.046 21.126c22.196 11.591 41.09 21.457 41.987 21.924 1.619.842 1.584.9-4.829 7.968-7.075 7.799-6.885 7.023-2.418 9.835 1.253.788.892 1.29-5.392 7.514-5.351 5.298-6.734 7.061-6.734 8.581 0 1.342-.469 2.118-1.566 2.598-2.718 1.19-10.624 6.995-9.857 7.238 1.385.437 7.159-2.451 7.614-3.808.612-1.827 3.059-2.805 5.17-2.065 1.436.504 2.306.119 5.85-2.588 5.169-3.946 12.63-6.947 19.53-7.857 21.438-2.826 43.594 12.251 49.47 33.662 1.445 5.271 1.517 16.082.137 20.907-.608 2.13-.734 3.668-.331 4.05.404.383.363 1.128-.109 1.963-1.617 2.863-.934 4.289 3.139 6.545l3.872 2.145 6.836-6.101c3.759-3.356 9.239-8.92 12.178-12.365 7.531-8.831 6.571-8.235 10.145-6.299 1.693.917 3.271 1.671 3.505 1.675.235.005 3.459-3.256 7.165-7.245 3.706-3.989 7.003-7.253 7.327-7.253.977 0 107.463 56.473 107.679 57.106.11.324-2.612 3.704-6.05 7.511-3.437 3.808-6.252 7.073-6.255 7.254-.004.182 6.653 3.808 14.793 8.058 8.139 4.25 15.349 8.109 16.022 8.575 1.118.775.685 1.547-5.097 9.085-3.774 4.92-6.754 8.197-7.398 8.135-.76-.073-.862.103-.342.595.518.491-.851 2.908-4.623 8.16-2.948 4.103-5.634 7.471-5.97 7.482-.337.011-8.321-4.174-17.744-9.301-9.422-5.127-17.367-9.447-17.654-9.6-.286-.153-.522-.143-.522.022 0 .164 7.75 4.525 17.222 9.691 9.472 5.167 17.62 9.74 18.107 10.164.704.612-.735 2.796-6.958 10.559-4.314 5.382-10.913 13.821-14.664 18.752-3.751 4.931-7.068 9.048-7.371 9.15-.431.145-24.942-13.216-31.765-17.316-1.338-.804-1.885-.225-9.046 9.595-4.889 6.703-7.96 10.338-8.567 10.14-.718-.235-110.405-64.532-111.259-65.218-.098-.079 3.464-4.06 7.917-8.847 4.452-4.787 7.976-8.802 7.832-8.923-.144-.121-1.714-1.073-3.488-2.117l-3.228-1.897 6.953-8.242c9.52-11.286 20.979-25.699 20.648-25.972-.971-.8-6.267-3.699-6.758-3.699-.328 0-.97.775-1.425 1.722-.671 1.396-1.181 1.658-2.695 1.383-1.493-.27-2.552.246-5.297 2.585-6.76 5.76-11.615 7.327-37.675 12.161-6.123 1.136-13.012 2.636-15.308 3.333-5.5 1.67-12.527 3.548-32.771 8.755-15.742 4.048-17.009 4.274-20.749 3.697-5.929-.914-10.873-3.353-15.154-7.474l-3.806-3.665-5.74 2.076c-4.416 1.598-5.971 2.501-6.744 3.918-.552 1.012-1.46 1.84-2.016 1.84s-1.683 1.261-2.504 2.802c-2.127 3.994-7.393 9.662-10.124 10.896-2.136.965-2.524.963-4.699-.019-2.336-1.056-2.376-1.049-2.791.519-1.48 5.583-8.788 5.527-11.264-.087-1.335-3.028-1.211-5.486.403-7.994 1.693-2.63 4.449-3.414 7.044-2.002l1.885 1.025.317-2.405c.174-1.323.283-2.439.242-2.479-.041-.041-1.406-.236-3.033-.432-2.71-.328-3.057-.197-4.158 1.57-.822 1.317-1.538 1.786-2.262 1.479-.583-.247-2.312-.582-3.843-.743-3.47-.368-5.218-1.779-5.218-4.21 0-2.172 2.16-4.514 4.163-4.514 1.297 0 1.32-.13.39-2.143-.544-1.178-1.18-2.996-1.415-4.038-.398-1.771-.602-1.873-3.11-1.554-3.097.393-4.203-.361-4.203-2.866 0-2.268.996-2.977 4.945-3.518 2.503-.343 3.38-.801 3.997-2.084.691-1.438.604-1.71-.69-2.164-1.463-.513-1.458-.536.352-1.886 1.209-.9 1.836-2.007 1.843-3.249.027-5.558 2.162-6.928 9.758-6.262 3.869.34 5.139.687 4.983 1.362-.534 2.32.525 2.724 2.584.986 1.132-.955 3.7-2.459 5.709-3.34 2.008-.882 4.081-2.185 4.607-2.897.526-.71 1.45-1.293 2.055-1.293.909 0 1.022-.535.65-3.096-.246-1.702-.71-3.26-1.033-3.462-.322-.201-16.836-9.982-36.698-21.737C21.788 89.793 5.38 80.048 5.19 79.892c-.192-.156 1.84-2.11 4.517-4.342 2.676-2.233 6.23-5.258 7.897-6.724l3.031-2.664-10.16-5.809C4.887 57.158.176 54.332.007 54.071c-.17-.26 2.97-3.122 6.977-6.362l7.286-5.89-1.817-1.388-1.816-1.389 7.426-8.01c4.084-4.407 7.634-7.902 7.888-7.77.254.133 3.535 1.945 7.292 4.025 3.758 2.08 7.02 3.605 7.249 3.388.53-.503 1.016-.19-7.296-4.72-3.923-2.137-7.132-4.047-7.132-4.242 0-.195 3.513-2.179 7.807-4.407 7.605-3.948 7.86-4.027 9.836-3.058l2.03.994 7.097-6.703 7.098-6.703 10.722 5.642 10.722 5.641 6.972-6.584C92.183 2.913 95.628-.027 96.005 0c.376.028 18.845 9.534 41.041 21.126Zm-.085 1.594c21.766 11.359 39.884 20.944 40.26 21.3.449.426-1.177 2.703-4.725 6.615-2.975 3.28-5.594 5.861-5.818 5.736-.224-.126-18.725-9.78-41.113-21.455-22.388-11.673-40.955-21.452-41.26-21.73-.656-.6 11.056-11.29 12.256-11.187.453.039 18.633 9.363 40.4 20.721Zm-36.751 2.02c21.79 11.458 46.43 24.396 54.753 28.75 8.323 4.355 15.134 8.17 15.134 8.48 0 .308-2.595 3.138-5.768 6.29l-5.767 5.73-54.942-29.221C73.402 28.697 48.538 15.442 48.367 15.31c-.352-.267 11.19-11.405 11.819-11.405.223 0 18.234 9.375 40.024 20.833Zm-1.782 20.458c30.807 16.481 56.416 30.195 56.908 30.476 1.051.6-9.07 9.06-10.665 8.914-.538-.048-26.8-14.142-58.359-31.319-50-27.214-57.229-31.34-56.205-32.084 1.8-1.308 11.126-6.078 11.754-6.011.305.032 25.76 13.543 56.567 30.024Zm-31.311 2.28c22.388 12.295 48.141 26.402 57.23 31.348 9.089 4.947 16.524 9.177 16.521 9.4-.002.224-.621 1.294-1.374 2.377-1.151 1.654-2.789 2.42-10.228 4.777l-8.857 2.808L96.72 85.132C27.46 46.96 13.54 39.188 13.54 38.687c0-.652 11.992-13.708 12.513-13.623.197.033 18.676 10.118 41.064 22.414Zm-17.395-12.54c2.487 1.412 4.835 2.682 5.218 2.82.383.14.475.479.205.755-.434.443-11.686-5.32-11.686-5.987 0-.745 2.187.098 6.263 2.411Zm15.104 8.317c3.142 1.686 5.557 3.302 5.369 3.592-.311.477-10.153-4.611-11.741-6.069-1.51-1.387.965-.425 6.372 2.477Zm.628 28.12c30.2 16.738 49.836 27.998 49.324 28.285-.468.262-3.335 1.22-6.37 2.129-3.561 1.066-6.524 2.467-8.35 3.948l-2.83 2.296-46.89-26.72C24.55 66.617 3.19 54.35 2.872 54.053c-.51-.474 11.144-10.662 12.052-10.536.196.028 22.934 12.563 50.53 27.858Zm13.84-20.265c3.061 1.66 5.998 3.248 6.525 3.53.528.283.674.68.324.886-.724.424-12.293-5.784-12.648-6.786-.335-.95-.298-.934 5.799 2.37Zm16.224 8.839c5.122 2.784 6.561 3.866 5.321 3.999-.903.097-12.254-6.495-11.713-6.802.333-.19 3.21 1.072 6.392 2.803Zm15.783 8.607c3.061 1.768 5.88 3.332 6.262 3.478.383.146.48.485.217.754-.556.568-13.089-6.12-13.089-6.984 0-.94.766-.622 6.61 2.752ZM49.374 84.238a39025 39025 0 0 0 36.182 20.81c4.975 2.852 9.147 5.269 9.272 5.369.672.546-3.724 5.58-4.873 5.58-.732 0-2.114.742-3.07 1.648-1.262 1.196-2.487 1.649-4.458 1.649-1.734 0-2.935.37-3.322 1.025-.498.843-6.798-2.637-35.347-19.526C24.65 89.489 8.76 80.016 8.447 79.743c-.62-.541 11.912-11.249 13.078-11.174.391.025 12.924 7.077 27.849 15.67Zm152.371-10.765c6.139 2.39 16.676 9.479 15.603 10.496-.157.15-1.069.454-2.025.677-1.37.32-2.77-.313-6.609-2.988-2.678-1.866-7.139-4.462-9.912-5.77-4.789-2.257-4.963-2.418-3.479-3.199 1.998-1.052 1.578-1.102 6.422.784Zm-10.653-.429-2.314 1.17 4.054 1.083c4.413 1.179 10.207 4.232 16.516 8.705l4.032 2.857 3.233-1.014c1.78-.557 3.493-1.233 3.809-1.502.315-.27-1.329-1.905-3.654-3.636-2.324-1.731-4.227-3.287-4.227-3.458 0-.542 5.092 3.225 8.613 6.373 6.507 5.817 10.641 17.45 11.363 31.978.386 7.778.312 8.581-.864 9.396-2.482 1.719-2.776 1.106-2.814-5.867-.03-5.355-.395-7.785-1.76-11.7-1.924-5.519-2.915-6.168-6.118-4.007-1.113.751-2.188 1.366-2.388 1.366-.199 0-1.147-1.623-2.105-3.606-4.645-9.615-13.774-17.991-24.513-22.492-5.241-2.197-12.408-3.243-16.519-2.412-1.788.361-3.252.528-3.252.37 0-.499 6.462-3.019 10.086-3.933 1.916-.484 5.205-.87 7.31-.86l3.827.02-2.315 1.17Zm-62.871 4.67c3.183 1.75 5.688 3.44 5.566 3.754-.121.315-.387.52-.591.455-.985-.31-12.502-6.92-12.502-7.174 0-.818 2.294.086 7.527 2.964Zm30.047-.365c0 .14-.861.778-1.913 1.42l-1.914 1.168 1.326-1.421c1.173-1.258 2.501-1.878 2.501-1.167Zm30.665 1.916c10.333 3.338 20.844 12.216 25.501 21.54 2.875 5.756 3.952 6.355 7.153 3.983.957-.71 1.929-1.296 2.16-1.304.231-.008 1.142 2.285 2.024 5.095 2.61 8.319 1.854 18.419-1.913 25.55-2.297 4.349-7.126 10.72-9.997 13.187l-2.301 1.978 2.189-2.45c5.831-6.53 12.056-17.089 11.966-20.297-.032-1.113-.323-.678-.897 1.335-2.265 7.958-15.051 24.372-20.042 25.729-4.287 1.165-4.218.646.564-4.232 5.367-5.472 8.535-10.144 11.33-16.704 1.569-3.683 2.393-4.742 4.631-5.953 1.497-.81 2.408-1.476 2.026-1.481-1.554-.018-5.297 2.737-6.028 4.436-4.302 10.003-10.277 18.377-16.467 23.079-4.06 3.084-4.096 2.637-.074-.928 8.024-7.113 13.998-17.01 15.436-25.577.755-4.496.948-4.861 2.944-5.544 1.174-.403 2.65-1.558 3.279-2.567 1.133-1.817 1.118-1.856-1.465-3.911-1.77-1.409-2.917-1.894-3.571-1.51-.742.433-1.171-.225-1.865-2.859-1.778-6.752-5.614-12.972-11.261-18.26-9.384-8.785-17.487-12.232-28.564-12.147-6.052.045-6.388-.017-4.175-.774 3.996-1.368 12.226-1.091 17.417.586Zm-2.393 2.998c9.621 3.152 19.83 11.575 24.18 19.952 2.993 5.763 4.621 12.454 4.476 18.397-.066 2.69-.207 3.366-.378 1.816-.342-3.101-1.857-3.979-5.308-3.076-1.395.364-2.535.946-2.535 1.291 0 .346-.313.629-.696.629-.383 0-.696-.621-.696-1.381 0-.778-.55-1.516-1.26-1.693-.694-.172-1.555-1.256-1.914-2.411-.567-1.823-.944-2.085-2.876-2.005-1.223.052-3.415.645-4.87 1.319-2.236 1.035-2.635 1.533-2.562 3.204.133 3.033.199 6.895.185 10.76-.016 4.168.987 5.631 3.504 5.104l1.791-.373-1.913 1.012c-1.38.73-1.913 1.528-1.913 2.863 0 4.38-5.236 11.665-12.618 17.558-1.363 1.088-2.604 2.313-2.758 2.721-.154.41-1.304.954-2.554 1.21l-2.274.465 3.799-3.601c4.896-4.639 8.945-10.61 10.963-16.165 2.406-6.623 2.218-16.417-.446-23.203-2.273-5.787-6.777-12.66-10.788-16.461-2.355-2.231-2.717-2.905-2.127-3.95.953-1.688.9-2.007-.332-2.007-1.252 0-1.396-1.098-.194-1.477.467-.148-1.418-1.545-4.189-3.105l-5.039-2.837-5.755 1.987c-5.25 1.812-5.922 1.904-7.64 1.05-2.353-1.168-2.35-1.414.029-2.286 4.968-1.82 10.919-2.558 14.556-1.804 3.569.74 3.63.725 8.158-1.985 5.07-3.034 6.725-3.243 11.994-1.518Zm-13.819.782c-2.959 1.889-3.514 2.027-5.497 1.372-1.213-.4-3.02-.758-4.015-.794-2.888-.104 3.405-1.782 8.508-2.268l4.294-.41-3.29 2.1Zm-13.061-.416c0 .142-.47.43-1.044.639-.574.208-1.044.091-1.044-.26 0-.35.47-.638 1.044-.638.574 0 1.044.116 1.044.259Zm-19.657 1.55c1.963.926 3.031 2.147 1.879 2.147-.969 0-4.488-2.082-4.488-2.655 0-.77-.176-.805 2.609.509Zm5.646 2.854c1.394.53 1.508.782.747 1.65-.835.954-4.288 2.918-5.129 2.918-.205 0 .281-1.187 1.079-2.638.798-1.45 1.497-2.618 1.554-2.596.057.023.844.323 1.749.666Zm22.792 3.295c3.265 1.807 3.315 1.88 1.67 2.457-1.327.465-2.346.223-4.682-1.114-1.642-.94-2.986-1.9-2.986-2.132 0-1.247 3.042-.847 5.998.79Zm-4.258 2.329c2.609 1.7 3.941 2.17 5.326 1.885 2.621-.54 3.094.747.58 1.578-1.826.603-2.531.435-5.487-1.306-3.061-1.804-3.647-1.931-6.006-1.314-1.873.49-3.03.472-4.08-.062-1.423-.724-1.404-.77.621-1.531 4.483-1.686 5.427-1.608 9.046.75Zm-14.409-.303c3.173 1.925 2.147 2.453-1.251.642l-2.771-1.475-.799 1.662c-.68 1.414-1.009 1.554-2.217.942-1.344-.682-1.294-.782.969-1.924 3.032-1.53 3.307-1.523 6.069.153Zm.154 3.871c1.525 1.505 2.774 2.857 2.774 3.006 0 .148-1.566-.643-3.479-1.759-3.491-2.034-4.086-2.8-2.774-3.569.388-.227 1.953.818 3.479 2.322Zm13.733-.245c1.626.928 2.957 1.975 2.957 2.324 0 1.177-1.344 3.029-2.504 3.45-1.066.388-1.068.299-.019-1.218 1.559-2.255 1.469-2.529-1.304-3.944-1.34-.684-2.435-1.493-2.435-1.798 0-.727-.11-.766 3.305 1.186Zm-18.329 1.365 5.503 3.086-6.547 2.092-6.546 2.091-4.523-2.336c-2.488-1.285-5.123-2.719-5.857-3.185-1.283-.815-1.268-.871.373-1.463 1.886-.68 11.389-3.398 11.821-3.382.151.006 2.75 1.4 5.776 3.097Zm13.449.26c2.366 1.436 2.357 1.864-.092 4.875-1.097 1.349-1.428.871-1.174-1.692.055-.568-.535-1.578-1.312-2.245-2.906-2.492-1.078-3.156 2.578-.938Zm13.403-.103c0 .92-2.07 2.67-3.159 2.67-.535 0-.808-.404-.608-.9.433-1.067 3.767-2.635 3.767-1.77Zm61.191 4.117c1.763 4.874 2.564 13.838 1.731 19.374-.544 3.607-.626 3.175-1.087-5.655-.274-5.259-.999-11.31-1.611-13.446-1.503-5.247-.895-5.419.967-.273Zm-109.886-1.896c.007.428 2.047 1.926 4.533 3.329 2.486 1.403 4.689 2.809 4.896 3.126.206.317-.741 1.08-2.105 1.696-2.403 1.086-2.56 1.075-5.082-.364-3.778-2.158-8.553-4.2-10.951-4.684-1.914-.387-1.639-.566 3.305-2.152 3.592-1.152 5.397-1.47 5.404-.95Zm47.434 2.218c-.502.191-1.102.167-1.333-.052-.231-.219.179-.374.913-.346.81.032.975.188.42.398Zm-15.754.441c.328.773.17 1.424-.432 1.777-1.307.765-1.479.431-.729-1.418.585-1.439.688-1.471 1.161-.359Zm-2.467-.319c0 1.737-2.646 3.482-7.156 4.717-2.762.757-5.432 1.506-5.935 1.665-.564.179-.393-.402.447-1.521.992-1.319 2.889-2.285 7.002-3.562 3.103-.964 5.642-1.549 5.642-1.299Zm26.382 2.536c2.914 3.35 6.647 10.265 8.081 14.968 2.593 8.506.981 19.725-3.891 27.09-2.593 3.92-6.22 7.66-6.989 7.209-.302-.176.531-2.456 1.85-5.065 1.319-2.61 2.399-5.113 2.399-5.564 0-.907 2.686-2.497 3.275-1.938.423.401-2.605 5.583-5.179 8.863-.943 1.202-1.541 2.351-1.328 2.553.56.53 7.407-9.794 7.407-11.168 0-.682-.525-1.154-1.284-1.154-1.793 0-3.23 1.712-4.98 5.934-1.636 3.943-8.176 13.633-9.541 14.136-.465.171.534-1.466 2.221-3.637 9.623-12.387 11.451-27.714 4.92-41.267-1.461-3.03-2.203-3.696-6.752-6.061-2.811-1.46-5.556-2.913-6.101-3.229-.681-.393 1.189-1.128 5.972-2.346 3.83-.975 7.149-1.773 7.376-1.773.228 0 1.372 1.102 2.544 2.449Zm163.485 26.812c28.845 15.297 52.416 28.102 52.379 28.454-.091.885-10.054 12.096-10.79 12.141-.329.02-24.333-12.49-53.343-27.799l-52.746-27.834 3.34-3.65a312.838 312.838 0 0 1 6.027-6.388l2.688-2.739 52.445 27.815Zm-226.745-26.7c2.405.743 7.599 3.277 9.996 4.878l1.995 1.332 3.746-1.741c2.059-.957 3.745-2.148 3.745-2.645 0-.605.566-.802 1.707-.596 1.63.295 1.658.381.616 1.887-.6.867-1.525 1.577-2.055 1.577-1.137 0-1.231.931-.268 2.637.766 1.357.474 1.508-4.49 2.306-1.513.243-3.883.99-5.266 1.658-2.868 1.387-7.639 6.109-7.639 7.561 0 .769-.369.837-1.785.328-.981-.354-2.86-.643-4.175-.643-1.314 0-2.39-.098-2.39-.218s-1.252-4.175-2.782-9.012c-1.531-4.836-2.61-8.957-2.399-9.158.641-.608 9.582-.725 11.444-.151Zm-11.143 8.075c1.204 3.76 2.355 7.382 2.557 8.048.306 1.006.151 1.099-.916.55-1.679-.863-5.656-13.706-4.564-14.74.515-.488 1.387 1.344 2.923 6.142Zm62.829-2.543c4.799 2.47 5.603 3.162 7.064 6.084 2.619 5.235 3.41 8.786 3.454 15.494.073 11.355-3.619 20.126-12.005 28.518-3.725 3.727-4.18 2.968-.527-.881 5.602-5.905 10.956-15.8 10.817-19.993-.025-.759-.499.217-1.052 2.168-1.29 4.544-3.782 9.227-7.577 14.235-5.26 6.945-5.866 7.294-18.293 10.566-6.176 1.626-11.683 2.791-12.239 2.588-.555-.201-1.216-.05-1.468.338-.253.387-.684.704-.959.704-.274 0 1.243-1.735 3.372-3.855 7.235-7.204 10.7-16.303 10.713-28.124.01-9.993-2.266-16.946-7.338-22.422-1.197-1.291-2.056-2.453-1.909-2.58.352-.309 21.171-5.662 21.937-5.642.327.009 3.032 1.27 6.01 2.802Zm-66.334 3.004c1.672 5.319 1.745 6.121.514 5.673-.63-.229-1.427 1.218-2.566 4.659-1.197 3.616-1.92 4.895-2.622 4.639-.534-.194-1.102-.353-1.263-.353-.16 0 .334-1.108 1.1-2.462 1.896-3.351 1.752-5.212-.573-7.415-1.9-1.799-1.929-1.928-.87-3.781 3.534-6.182 4.589-6.343 6.28-.96Zm118.324 1.761c.482.552.558.989.17.989-.383 0-1.085-.445-1.562-.989-.483-.552-.559-.989-.171-.989.383 0 1.086.445 1.563.989Zm-18.802.963c.39.692.71 1.722.71 2.29 0 .6.595 1.033 1.42 1.033 1.33 0 1.407.341 1.218 5.38l-.202 5.38-4.686 1.496c-2.578.823-4.843 1.257-5.034.964-.191-.293-.328-3.165-.305-6.382.024-3.217-.059-6.576-.184-7.465-.196-1.39.23-1.778 3.062-2.785 3.196-1.137 3.31-1.134 4.001.089Zm-60.109.869c2.39 2.68 4.725 7.638 5.856 12.433 2.437 10.335-3.272 21.67-10.916 21.67-3.487 0-7.433-1.724-6.909-3.017.233-.576.424-1.32.424-1.653 0-.333.955-.605 2.122-.605 3.065 0 5.899-1.612 6.914-3.934 1.367-3.128.981-7.669-.928-10.907-1.777-3.012-1.448-4.28 1.112-4.28.812 0 1.661-.846 2.296-2.287 1.272-2.883 1.29-2.765-.494-3.207-1.013-.251-2.471.287-4.476 1.652l-2.974 2.024-3.049-1.399c-3.687-1.691-6.587-1.781-8.891-.275l-1.721 1.125 1.812-2.279c3.34-4.197 7.066-5.927 14.668-6.808 3.034-.352 3.391-.231 5.154 1.747Zm200.679 36.254c39.61 20.757 72.398 37.974 72.863 38.26 1.149.706-10.027 15.194-11.35 14.713-.512-.187-31.079-16.43-67.927-36.096a164518.824 164518.824 0 0 0-72.04-38.438c-2.774-1.473-4.957-2.926-4.851-3.229.283-.804 10.529-12.922 10.939-12.936.191-.007 32.756 16.97 72.366 37.726Zm-123.237-36.196c.601.686.538 1.1-.263 1.73-.893.703-1.052.567-1.052-.902 0-1.968.204-2.096 1.315-.828Zm-124.261 1.15c2.707 1.492 2.824 5.678.205 7.335-1.409.891-4.365.517-5.528-.702-3.461-3.623.908-9.067 5.323-6.633Zm-1.082 1.682c1.219.466 1.087 3.3-.174 3.758-1.682.612-3.131-.262-3.131-1.887 0-1.16 1.5-2.619 2.318-2.255.064.028.508.202.987.384Zm91.882 1.014c2.1 1.991-.033 5.149-2.6 3.847-1.809-.917-1.858-3.059-.09-3.956 1.677-.85 1.677-.85 2.69.109Zm28.667 2.849c0 2.52-.262 3.095-1.695 3.714-2.667 1.152-3.871.314-3.871-2.694 0-2.793 1.247-4.001 4.129-4.001 1.24 0 1.437.409 1.437 2.981Zm-107.649-.955c3.549 2.093 3.941 3.225 2.488 7.177-.757 2.057-.67 2.247 2.084 4.55 3.362 2.808 5.624 7.214 4.15 8.079-.666.389-1.333-.342-2.4-2.629-.812-1.744-2.442-3.82-3.621-4.616l-2.145-1.448-1.092 2.003c-.601 1.101-1.418 2.002-1.816 2.002-1.122 0-3.632-1.368-5.012-2.731-1.125-1.111-1.152-1.444-.262-3.372.543-1.177 1.55-4.008 2.239-6.292.688-2.284 1.445-4.265 1.681-4.404.236-.138 1.904.618 3.706 1.681Zm78.425-.048c0 .363-.294.66-.655.66-.36 0-.848-.297-1.084-.66-.237-.362.058-.659.654-.659.597 0 1.085.297 1.085.659Zm-44.976.989c-.22.544-.775.99-1.234.99-.459 0-2.955 1.657-5.548 3.683-2.592 2.027-4.866 3.539-5.054 3.361-.402-.38 10.742-9.023 11.632-9.023.332 0 .424.446.204.989Zm-10.167.821c1.244.587 2.246 1.236 2.225 1.442-.019.206-1.284 1.323-2.811 2.482l-2.776 2.106-2.73-2.436c-2.728-2.434-2.729-2.438-1.286-3.59 1.77-1.415 4.384-1.415 7.378-.004Zm105.242 2.167c0 .351-.47.639-1.044.639-.574 0-1.044-.117-1.044-.259 0-.143.47-.43 1.044-.639.574-.208 1.044-.092 1.044.259Zm-147.512.774c0 .274-.862.678-1.914.896-1.052.219-2.305.512-2.783.652-.479.139-.87-.151-.87-.645 0-.568 1.026-.993 2.783-1.151 1.531-.138 2.784-.027 2.784.248Zm145.597 1.079c1.052.602 1.912 1.489 1.913 1.973.001.484-.233.77-.52.638-3.5-1.616-4.349-2.19-4.349-2.942 0-1.107.55-1.045 2.956.331Zm-17.568-.54c0 .378-.483.862-1.074 1.077-1.632.593-1.823-.048-.286-.957.861-.51 1.36-.553 1.36-.12Zm-121.767-.243c0 1.167-1.859 3.091-2.313 2.394-.24-.369.182-1.202.938-1.85.756-.649 1.375-.893 1.375-.544Zm114.225.876c.212.602 1.124.938 2.377.875l2.034-.102-2.088.856c-1.148.471-2.87 1.081-3.827 1.356-1.651.473-1.682.436-.612-.743.619-.683 1.272-1.686 1.449-2.23.284-.869.365-.87.667-.012Zm-71.145 2.86c2.103 4.117 1.988 9.232-.256 11.357-1.066 1.011-2.505 1.619-3.827 1.619-1.954 0-2.119-.178-2.119-2.284 0-1.257-.485-3.638-1.077-5.291l-1.077-3.007 2.236-1.797c4.663-3.747 4.518-3.732 6.12-.597Zm-21.799-1.221c3.3 1.874 6.439 5.859 7.228 9.173l.551 2.316-1.66-1.032c-1.32-.819-1.872-.866-2.681-.23-.85.668-1.209.351-2.166-1.915-.631-1.494-2.322-3.674-3.759-4.844-2.173-1.771-2.514-2.377-2.028-3.612.729-1.853 1.017-1.843 4.515.144Zm-25.633-.803c-.163.453.129 1.789.647 2.967.517 1.178.792 2.143.611 2.143-.743 0-6.647-3.656-6.647-4.116 0-.275.764-.5 1.698-.5.934 0 1.892-.296 2.129-.659.619-.949 1.91-.814 1.562.165Zm7.752.448c.597.35.669.69.201.964a.9.9 0 0 1-1.187-.291c-.64-.98-.131-1.327.986-.673Zm132.805.483c1.149.44 1.117 1.541-.045 1.541-1.286 0-3.117 3.934-3.67 7.885-.509 3.639-2.296 5.591-8.574 9.364-4.522 2.717-4.97 2.306-1.371-1.259 1.738-1.723 4.119-4.321 5.291-5.775 2.288-2.838 6.455-10.23 6.455-11.45 0-.781.474-.857 1.914-.306Zm34.617 4.731c19.303 10.409 52.798 28.382 93.586 50.218 23.919 12.806 43.758 23.506 44.087 23.781.33.274-1.526 3.417-4.124 6.986-2.598 3.567-4.783 6.57-4.854 6.672-.07.101-17.627-9.361-39.014-21.029-35.58-19.409-51.389-28.027-95.125-51.858l-15.185-8.274 5.776-5.502c3.177-3.026 5.94-5.501 6.14-5.5.199.002 4.12 2.029 8.713 4.506Zm-169.823-3.383c.377.94.298 1.016-.39.369-.475-.447-.69-.979-.475-1.182.215-.203.604.163.865.813Zm118.68.747c0 1.616-3.911 8.973-5.368 10.096-.634.489-.312-.292.716-1.736 3.315-4.657 2.435-5.172-5.042-2.952-5.538 1.645-5.947 1.967-8.431 6.631-2.246 4.215-8.383 10.822-11.812 12.715-3.321 1.834-2.254.289 1.983-2.872 4.142-3.089 8.794-9.403 9.936-13.483.414-1.479.979-3.113 1.256-3.633.457-.858 13.835-5.862 15.893-5.944.478-.019.869.511.869 1.178Zm-36.878.106c.887.84 1.354 2.096 1.288 3.461l-.105 2.143-.301-1.978c-.412-2.696-2.087-4.286-4.516-4.286-2.596 0-15.486 3.086-17.965 4.301-2.164 1.06-2.754 2.176-2.754 5.209 0 3.395-2.557 11.982-4.926 16.541-1.192 2.294-3.718 5.754-5.613 7.687l-3.448 3.516 3.176-3.828c5.696-6.865 10.115-17.466 10.115-24.263 0-4.202 1.944-5.57 11.133-7.839 9.47-2.337 12.022-2.459 13.916-.664Zm-52-.578c-.472.451-1.034.654-1.247.451-.215-.204.172-.572.858-.82.991-.357 1.071-.282.389.369Zm109.289 1.018c1.858 1.76-3.203 10.506-5.58 9.641-1.774-.644-.089-8.162 2.147-9.577.962-.608 2.822-.643 3.433-.064Zm-139.85.766c1.394 1.46 1.461 2.091.22 2.091-.513 0-1.29-.742-1.725-1.649-.929-1.932-.14-2.164 1.505-.442Zm32.115.113c-.236.362-.743.659-1.126.659-.382 0-.502-.297-.265-.659.236-.363.743-.66 1.125-.66.383 0 .503.297.266.66Zm-3.401 1.009c.635.918 1.028 1.789.873 1.936-.155.146-.809-.605-1.453-1.67-1.436-2.37-1.01-2.566.58-.266Zm5.141.969c0 .362-.489.659-1.085.659s-.891-.297-.655-.659c.237-.363.724-.66 1.085-.66a.66.66 0 0 1 .655.66Zm59.453.6c.835 1.279-.489 2.818-2.164 2.514-.912-.165-1.826-.043-2.03.271-.66 1.012-1.682.607-1.682-.668 0-1.679 1.603-2.913 2.582-1.985.523.495.878.491 1.208-.016.569-.873 1.556-.928 2.086-.116Zm-104.238 1.025c4.776 2.292 9.155 8.503 9.268 13.146.028 1.155-.078 1.137-1.319-.219-.742-.811-1.541-2.305-1.776-3.32-.576-2.481-4.622-6.855-7.568-8.18-3.394-1.526-8.853-1.405-11.067.244-1.968 1.467-3.553 1.738-3.129.535.647-1.841 4.1-3.423 8.007-3.669 3.28-.207 4.661.06 7.584 1.463Zm26.589.577c1.614 1.628 3.102 5.507 2.479 6.463-.696 1.067-1.528.564-1.997-1.207-.258-.976-1.075-2.579-1.815-3.564-2.394-3.186-1.4-4.449 1.333-1.692Zm-50.877-1.086c-.677.167-1.616.156-2.087-.025-.471-.18.083-.317 1.23-.303 1.149.013 1.534.16.857.328Zm179.881 1.899c3.527 2.19 3.289 2.555-.522.801-1.722-.793-3.131-1.679-3.131-1.97 0-.84.859-.565 3.653 1.169Zm-28.703-1.298c0 .22-.939 1.718-2.087 3.33-2.286 3.21-2.536 3.851-1.218 3.12.478-.265.274.163-.455.95-1.582 1.709-2.378 1.924-1.034.278.768-.939.654-.92-.61.103-1.652 1.335-2.144 2.764-.684 1.982.478-.256-.356.753-1.853 2.242-1.497 1.489-2.947 2.575-3.222 2.414-.274-.161-1.711.625-3.192 1.747-3.022 2.289-4.274 2.823-8.219 3.507l-2.743.476 3.912-3.648c3.59-3.348 6.143-6.786 8.878-11.955.83-1.568 1.982-2.273 5.569-3.404 4.644-1.464 6.958-1.844 6.958-1.142Zm-146.826.776c-.015 1.559-.801 2.434-2.29 2.549-1.837.143-1.229-2.452.735-3.136 1.24-.432 1.563-.31 1.555.587Zm61.187.528c-.034.769-.199.925-.421.399-.201-.476-.176-1.045.055-1.264.231-.219.396.17.366.865Zm113.994 1.614c3.95 2.146 4.305 2.488 2.435 2.344-1.983-.153-7.216-3.02-6.767-3.708.524-.803.098-.937 4.332 1.364Zm-137.042.237c3.195 4.446 3.678 10.642 1.15 14.765-.604.985-.887 1.198-.629.473 1.71-4.806 1.147-10.194-1.442-13.81-.947-1.322-1.721-2.686-1.721-3.033 0-1.235 1.068-.587 2.642 1.605Zm5.986.073c1.743 2.519 1.755 3.918.063 6.923l-1.671 2.967-.031-2.691c-.017-1.479-.763-4.059-1.657-5.733l-1.627-3.045 2.006.13c1.123.073 2.407.71 2.917 1.449Zm-26.373-.61c1.147.567 2.668 1.53 3.379 2.139 1.662 1.424 3.944 5.656 3.873 7.181-.032.703-.35.381-.784-.798-1.624-4.401-5.53-7.962-9.79-8.92-1.924-.434-1.996-.515-.504-.569.957-.035 2.679.4 3.826.967Zm-24.46.167c.633.664 1.152 1.932 1.152 2.82 0 1.735-1.746 4.546-2.823 4.546-.361 0-.03-.593.735-1.319 1.58-1.496 1.695-2.187.672-3.999-.428-.757-1.453-1.276-2.521-1.276-1.521 0-1.666-.153-.934-.989 1.152-1.315 2.32-1.247 3.72.217Zm11.974 2.192c1.893 1.144 3.057 2.205 2.586 2.359-.72.234-7.146-3.56-7.146-4.22 0-.61 1.452-.017 4.56 1.861Zm11.318-.311c3.022 1.412 5.653 4.745 6.182 7.834.502 2.931-.783 2.688-1.407-.265-.483-2.288-3.457-5.772-6.359-7.449-2.61-1.508-1.559-1.587 1.584-.12Zm41.85.826c.958 1.697.911 2.022-.299 2.022-.891 0-2.46-1.866-2.46-2.924 0-.932 2.113-.241 2.759.902Zm-59.065.435c1.642 1.875 7.888 4.871 10.168 4.877 2.049.006 3.603.972 2.794 1.738-.823.78-9.66-2.88-12.429-5.15-1.663-1.362-2.67-2.486-2.238-2.496.431-.011 1.199.454 1.705 1.031Zm-8.173-.611c1.183 1.12.334 2.198-1.73 2.198-2.152 0-2.171-.027-.937-1.319 1.336-1.399 1.917-1.59 2.667-.879Zm24.79 1.946c2.381 1.899 4.211 4.804 4.187 6.647-.008.653-.585-.002-1.282-1.456-.697-1.453-2.423-3.605-3.836-4.781-3.05-2.537-2.205-2.909.93-.41Zm68.903-.702c-.006.343-.476 2.496-1.046 4.786-1.235 4.965-4.26 10.95-7.428 14.698-2.378 2.814-9.21 7.844-10.652 7.844-.853 0-2.186-2.3-3.176-5.479-.483-1.553-.195-2.327 1.773-4.771 1.293-1.604 2.748-3.96 3.235-5.234.77-2.02 1.183-2.319 3.202-2.319 2.644 0 6.802-1.493 8.79-3.157.741-.621 2.24-2.448 3.33-4.06 1.09-1.612 1.977-2.651 1.972-2.308Zm-51.344 1.118c.484.817.886 3.561.894 6.099.012 3.835-.339 5.278-2.074 8.53-1.23 2.306-2.707 4.118-3.597 4.41-1.5.493-1.5.476.212-2.65 1.383-2.524 1.723-4.119 1.723-8.062 0-2.704-.33-5.74-.734-6.747-1.064-2.651-.932-3.063.98-3.063 1.054 0 2.055.572 2.596 1.483Zm153.291 3.037c3.826 2.116 37.173 20.413 74.103 40.662 36.931 20.248 67.248 36.883 67.373 36.966.125.084-2.837 4.025-6.581 8.759l-6.808 8.606-3.239-1.789c-58.499-32.298-144.63-80.376-144.651-80.745-.034-.591 11.996-16.278 12.497-16.295.191-.006 3.479 1.719 7.306 3.836ZM76.4 146.324c1.306 1.087 2.781 2.906 3.279 4.044.807 1.847.763 2.168-.408 2.98-1.207.836-1.378.7-2.122-1.688-.445-1.429-1.5-3.658-2.346-4.954-1.875-2.874-1.504-2.962 1.597-.382Zm-4.239.44c-.478.183-1.261.183-1.739 0-.479-.183-.087-.333.87-.333s1.348.15.87.333Zm28.3 1.266c-.034.769-.198.925-.42.399-.201-.476-.176-1.045.055-1.264.231-.219.395.17.365.865Zm101.643-.178c0 .114-1.017 1.078-2.261 2.143l-2.262 1.937 2.044-2.143c1.905-1.997 2.479-2.446 2.479-1.937Zm-81.825.618c-1.083 1.796-1.86 2.44-2.492 2.071-.373-.219-.14-.935.535-1.642 1.338-1.401 2.727-1.705 1.957-.429Zm-54.758 1.364c3.556 3.838 4.362 10.907 1.75 15.33-.694 1.175-.765 1.15-1.12-.384-1.569-6.803-3.263-15.991-3.056-16.579.138-.393 1.23.342 2.426 1.633Zm-12.907-1.302 1.849.778-3.24 5.112c-3.165 4.992-3.251 5.066-3.672 3.138-.497-2.278.156-6.28 1.377-8.43.945-1.664 1.097-1.689 3.686-.598Zm57.167 2.1c2.088 2.479 1.235 3.066-1.529 1.052-1.222-.89-1.492-1.488-1.027-2.274.535-.906.919-.722 2.556 1.222Zm-49.74 7.44c.85 4.963 1.73 9.692 1.957 10.509.356 1.285.145 1.481-1.584 1.469-2.942-.021-7.356-2.14-9.508-4.563-1.039-1.17-1.776-2.326-1.638-2.567 1.729-3.021 8.415-13.398 8.764-13.603.254-.149 1.158 3.791 2.01 8.755Zm68.853-7.231c1.534.922.099 2.807-3.139 4.122-1.698.69-3.256 1.255-3.46 1.255-.405 0 4.678-5.508 5.315-5.759.215-.085.793.088 1.284.382Zm-12.117 1.585c.651 2.301.558 2.473-1.323 2.473-2.05 0-2.948-1.563-1.71-2.976 1.244-1.42 2.55-1.204 3.033.503Zm-9.861.327 1.877 1.091-2.847 1.532c-1.566.842-2.916 1.451-3.002 1.351-.086-.099.35-1.279.969-2.622 1.123-2.438 1.128-2.441 3.003-1.352Zm-17.157-.447c.253.386.31.844.128 1.017-.183.173-.517-.144-.744-.703-.47-1.162-.07-1.367.616-.314Zm-14.67.183c1.223.847 1.213.903-.224 1.259-1.04.258-1.723-.015-2.215-.886-.866-1.534.468-1.739 2.439-.373Zm-29.27.685c-.86 2.611-3.056 3.195-3.056.813 0-1.157.464-1.656 1.757-1.89 1.527-.277 1.697-.135 1.298 1.077Zm42.385.638c.53 1.312-.88 2.824-3.09 3.309-1.558.342-1.884.153-2.168-1.255-.38-1.88-.289-1.966 2.695-2.572 1.582-.321 2.28-.18 2.563.518Zm-46.832.428c0 .725-.313 1.318-.696 1.318-.383 0-.696-.593-.696-1.318 0-.726.313-1.319.696-1.319.383 0 .696.593.696 1.319Zm40.123 1.692c.58 1.432-.892 2.779-1.946 1.78-.89-.844-.339-2.813.788-2.813.407 0 .928.465 1.158 1.033Zm45.75 1.714c-.872 1.597-1.256 1.816-2.071 1.175-1.446-1.137-1.255-1.564 1.07-2.396l2.071-.74-1.07 1.961Zm-6.579-.51c1.169 2.913 1.616 6.335.829 6.335-.636 0-2.888-5.751-2.888-7.373 0-1.183 1.465-.444 2.059 1.038Zm-4.668-.464c.669.166 1.217.577 1.217.912 0 .864-.825.726-2.394-.398-1.352-.97-1.103-1.078 1.177-.514Zm-.355 2.462c1.672.482 2.453 1.222 3.026 2.867.878 2.521.909 2.462-1.526 3.014-1.68.38-1.895.164-2.966-2.977-.635-1.862-1.072-3.424-.972-3.47.101-.046 1.198.209 2.438.566Zm-11.648-.279c0 .363-.332.659-.737.659-.405 0-.543-.296-.307-.659.237-.363.568-.659.737-.659.169 0 .307.296.307.659Zm-13.603.824c-.798 2.492-3.852 5.857-6.143 6.771-2.286.911-3.637.633-1.76-.363.603-.32 1.993-1.856 3.09-3.412 3.066-4.356 5.794-6.054 4.814-2.996Zm-4.813.453c-.581 1.065-1.373 2.121-1.76 2.348-.385.226-.043-.646.76-1.937 1.763-2.831 2.481-3.126 1-.411Zm38.529-.362c.494.563.564 1.101.172 1.33-.361.212-.853-.101-1.094-.695-.59-1.457-.096-1.798.922-.635Zm-45.61-.408c.282.431.159 1.41-.273 2.173-1.05 1.86-1.447 1.33-.78-1.038.342-1.209.732-1.629 1.053-1.135Zm26.551 2.46c.1.363.85 2.409 1.667 4.546.816 2.139 1.356 4.009 1.2 4.156-.621.589-8.843-7.307-8.64-8.298.24-1.185 5.457-1.55 5.773-.404Zm195.359 42.108c40.099 22.229 73.233 40.725 73.631 41.102.501.476-1.129 3.143-5.309 8.685-3.317 4.398-6.218 7.998-6.444 7.998-1.05 0-148.293-82.817-148.134-83.318.391-1.228 12-14.882 12.654-14.882.382 0 33.504 18.186 73.602 40.415Zm-177.206-37.987c.207.635.829 2.138 1.382 3.342.955 2.081.828 3.417-.324 3.417-.459 0-2.87-6.282-2.87-7.476 0-.946 1.458-.369 1.812.717Zm-44.395-.362c1.09 1.033 1.064 3.275-.057 4.727-.81 1.049-1.038.909-2.478-1.519-.873-1.472-1.393-2.973-1.155-3.338.591-.906 2.674-.833 3.69.13Zm-13.832.911c-.034.769-.199.925-.42.399-.202-.476-.177-1.045.054-1.264.231-.219.395.17.366.865Zm56.04 3.033c.589 1.878 1.071 3.51 1.071 3.626 0 .458-6.697.082-8.002-.449-.765-.312-1-.588-.522-.614 1.507-.079 3.65-2.584 3.188-3.724-.436-1.076.769-2.227 2.352-2.246.463-.005 1.324 1.528 1.913 3.407Zm-71.433-1.966c.46.435.835 1.155.835 1.601 0 1.164-1.988 2.882-3.335 2.882-.878 0-.77-.252.462-1.069 1.14-.757 1.52-1.528 1.295-2.638-.366-1.816-.36-1.821.743-.776Zm-2.258.584c.607.931-.734 2.203-1.717 1.627-.416-.244-.756-.87-.756-1.393 0-1.111 1.791-1.279 2.473-.234Zm34.804 1.605c-.738.529-1.512.801-1.72.603-.437-.413 1.33-1.59 2.365-1.575.382.006.092.444-.645.972Zm-29.03-.403c.735.43.768.86.15 1.954-1.45 2.567-2.74 1.432-1.563-1.375.312-.747.791-.944 1.413-.579Zm20.58 1.096c.6.57 1.057 1.682 1.012 2.472-.075 1.337-.104 1.345-.42.118-.186-.725-.825-1.838-1.418-2.472-1.342-1.434-.666-1.531.826-.118Zm-1.83 1.074c.97.918 1.125 3.165.22 3.165-.588 0-2.864-2.864-2.864-3.604 0-.656 1.804-.358 2.644.439Zm4.93 1.092c.045.513.526.733 1.124.515 1.19-.432 1.32.122.366 1.552-.879 1.317-2.365-.039-1.904-1.738.183-.673.369-.821.413-.329Zm-8.038.534c.86.815.48 3.517-.494 3.517-1.375 0-2.747-1.787-2.272-2.959.415-1.027 1.946-1.336 2.766-.558Zm7.624 3.268c.239.226-.383 1.427-1.382 2.669-1.853 2.301-2.501 2.268-3.274-.167-.334-1.049-.015-1.556 1.346-2.143 2.022-.873 2.691-.946 3.31-.359Zm-10.639.578c.477.544 1.605.989 2.507.989 1.72 0 2.73 1.979 2.246 4.399-.36 1.801-4.287 1.977-6.086.272-1.854-1.757-2.533-4.423-1.442-5.668 1.082-1.237 1.686-1.235 2.775.008Zm-7.899-.334c1.894.724 2.685 1.913 1.819 2.734-.43.407-1.739.231-3.653-.495-2.74-1.04-2.879-1.202-1.71-2.012 1.445-1.002 1.508-1.006 3.544-.227Zm-2.644 3.547 1.635.86-2.179.854c-2.514.987-3.142.673-2.498-1.251.53-1.582.826-1.628 3.042-.463Zm258.641 1.439c1.297.985 1.289.997-.215.307-.861-.396-1.566-.857-1.566-1.026 0-.504.362-.358 1.781.719Zm-252.753-.601c.264.25.48 1.113.48 1.917 0 1.039-.508 1.553-1.756 1.78-1.523.275-1.699.132-1.318-1.078.563-1.784 1.973-3.208 2.594-2.619Zm-4.18 2.841c-.261.947-.887 1.251-2.369 1.154-1.107-.073-2.014-.2-2.015-.281-.002-.197 4.017-2.16 4.422-2.16.175 0 .157.579-.038 1.287Zm261.804.398c1.297.985 1.288.996-.215.306-.862-.395-1.566-.857-1.566-1.025 0-.505.361-.359 1.781.719Zm-45.672 31.002c29.246 16.453 53.406 30.144 53.689 30.427.574.573-12.31 18.316-13.301 18.316-.885 0-108.444-63.2-108.487-63.745-.065-.818 13.395-15.049 14.167-14.98.417.038 24.686 13.53 53.932 29.982ZM59.877 187.095c-1.548 1.671-3.092 1.815-4.978.463-1.267-.908-1.193-.969 1.202-.989 1.404-.012 3.126-.219 3.827-.463 1.204-.416 1.201-.362-.051.989Zm272.037 4.434c1.297.986 1.289.997-.215.307-.861-.396-1.565-.857-1.565-1.025 0-.505.361-.359 1.78.718Zm4.871 2.638c1.297.985 1.288.997-.215.307-.861-.396-1.566-.858-1.566-1.026 0-.504.361-.358 1.781.719Zm3.96 1.989c2.601 1.337 2.443 1.895-.174.612-1.148-.562-2.088-1.164-2.088-1.336 0-.424.075-.4 2.262.724Zm4.87 2.638c2.601 1.337 2.443 1.894-.174.612-1.148-.563-2.087-1.164-2.087-1.336 0-.424.074-.401 2.261.724Zm4.39 2.626c1.297.985 1.289.997-.215.306-.861-.395-1.565-.857-1.565-1.025 0-.504.361-.359 1.78.719Zm3.96 1.989c2.601 1.337 2.443 1.894-.174.612-1.148-.562-2.087-1.164-2.087-1.336 0-.424.074-.4 2.261.724Z" fill="#fff"/><path fill-rule="evenodd" clip-rule="evenodd" d="M137.683 21.782c22.914 11.912 41.815 21.802 42.002 21.98.187.177-1.972 2.919-4.797 6.092-2.827 3.173-5.63 6.337-6.229 7.032-.91 1.054-1.342 1.135-2.61.492-.835-.424-1.519-.629-1.519-.456s1.871 1.26 4.158 2.414l4.157 2.1-6.999 7.133c-5.305 5.406-6.899 7.437-6.58 8.389.333.995-.482 1.818-3.942 3.977-6.266 3.91-7.752 5.12-7.244 5.899.294.45 1.399.254 3.198-.57 1.511-.691 3.059-1.257 3.439-1.257.381 0 1.108-.816 1.617-1.814.784-1.537 1.355-1.813 3.759-1.814 1.559 0 3.337-.396 3.953-.88.616-.485 1.495-.661 1.953-.393.524.308.652.21.343-.265-.677-1.037 6.884-5.573 12.297-7.378 2.967-.989 6.63-1.545 11.636-1.765 6.426-.282 7.95-.125 12.641 1.302 23.302 7.088 37.409 28.583 33.219 50.614-.515 2.706-.852 5.71-.748 6.674.104.964-.089 1.916-.427 2.114-.339.199-.478 1.259-.307 2.356.238 1.538 1.091 2.452 3.721 3.985 1.877 1.095 3.652 1.99 3.946 1.99.294 0 3.259-2.394 6.59-5.319 3.652-3.21 6.379-5.131 6.869-4.844.48.281.628.192.361-.218-.468-.717 10.826-14.517 12.326-15.063.463-.168 6.264 2.538 12.891 6.014 6.628 3.476 12.17 6.206 12.316 6.067.146-.138-3.645-2.304-8.426-4.812-4.78-2.507-8.691-4.741-8.691-4.964 0-.348 9.572-11.122 12.146-13.671.728-.72 10.393 4.154 54.731 27.598 29.615 15.661 53.963 28.578 54.107 28.705.142.127-2.793 3.521-6.523 7.541-3.73 4.02-6.665 7.402-6.523 7.516.144.113 7.516 3.997 16.383 8.63L417 191.336l-5.607 7.331c-3.084 4.032-6.19 7.944-6.903 8.693-.713.749-1.296 1.557-1.296 1.796 0 .24-2.378 3.717-5.284 7.727l-5.284 7.291-2.892-1.548c-1.591-.851-16.437-8.919-32.991-17.929-16.554-9.01-30.258-16.231-30.452-16.047-.195.185 14.658 8.573 33.006 18.641l33.36 18.305-7.431 9.461c-4.445 5.661-7.793 9.343-8.335 9.166-.499-.163-.717-.006-.486.349.232.354-2.762 4.814-6.651 9.91-6.755 8.853-7.137 9.226-8.559 8.359-1.848-1.126-28.424-15.981-31.757-17.75-1.34-.711-1.926-.891-1.304-.399 1.016.803.36 1.937-6.427 11.101-4.158 5.614-7.664 10.207-7.792 10.207-.547 0-111.113-65.278-111.095-65.591.045-.789 15.488-16.815 16.058-16.664 1.584.42.29-.577-3.212-2.476-2.409-1.306-3.655-2.366-3.351-2.851.265-.424 3.447-4.332 7.07-8.684 3.623-4.352 6.658-7.999 6.743-8.104.085-.105 1.368.442 2.851 1.216 2.532 1.32 1.856.477-.861-1.076-1.116-.637-.511-1.649 5.924-9.89 3.942-5.049 7.427-9.112 7.744-9.03.318.082 3.286 1.665 6.597 3.518 3.31 1.853 6.144 3.25 6.298 3.105.154-.146-2.996-2.026-7-4.178-4.003-2.152-6.933-4.024-6.511-4.16.759-.245-5.116-4.039-6.253-4.039-.324 0-1.144.58-1.821 1.289-1.198 1.255-1.127 1.337 2.676 3.104 2.148.999 3.906 2.051 3.906 2.338 0 .861-.729.615-4.214-1.417l-3.326-1.939-1.654 2.034c-1.382 1.697-1.88 1.92-3.016 1.344-1.145-.581-1.85-.233-4.46 2.194-3.582 3.33-9.163 6.293-14.641 7.773-7.311 1.975-25.476 5.635-33.052 6.658-1.913.258-5.357 1.155-7.653 1.992-2.297.837-6.837 2.176-10.09 2.974-3.253.799-12.803 3.234-21.222 5.412-13.489 3.49-15.804 3.914-19.483 3.565-5.842-.555-11.96-3.552-16.181-7.929l-3.419-3.544-3.293 1.582c-1.811.869-3.905 1.582-4.653 1.582-1.683 0-8.333 6.113-10.02 9.211-.685 1.259-2.972 4.003-5.081 6.099-4.147 4.12-6.63 4.843-9.677 2.821-1.42-.942-1.531-.878-2.295 1.316-.868 2.49-3.006 4.289-5.097 4.289-.718 0-2.37-1.008-3.672-2.241-2.055-1.948-2.366-2.672-2.366-5.516 0-4.273 1.902-6.748 5.184-6.748 1.265 0 2.687.441 3.16.981 1.276 1.459 2.093.579 2.093-2.255 0-2.448-.078-2.526-2.957-2.963-2.643-.403-3.128-.262-4.568 1.32-1.354 1.489-1.86 1.663-3.178 1.093-.863-.372-2.364-.533-3.335-.357-1.33.241-2.134-.123-3.257-1.476-.82-.988-1.492-2.168-1.492-2.623 0-1.579 2.513-3.776 4.319-3.776h1.798l-1.304-2.72c-.716-1.496-1.31-3.546-1.318-4.555-.016-1.819-.049-1.832-3.46-1.403-3.319.417-3.461.368-3.917-1.352-.624-2.355.79-3.649 4.502-4.121 2.112-.268 3.271-.864 4.27-2.194 1.78-2.366 1.735-2.611-.46-2.611h-1.834l1.785-1.331c1.373-1.023 1.895-2.168 2.264-4.963.6-4.55 1.453-5.03 8.498-4.778 5.299.189 5.387.221 5.604 2.006.262 2.155.866 2.271 2.564.493.694-.725 3.232-2.202 5.64-3.281 2.41-1.079 4.714-2.55 5.121-3.271.453-.801 1.157-1.158 1.813-.92.899.327 1.038-.183.86-3.156l-.215-3.547-36.877-21.87C22.133 89.681 5.593 79.642 5.66 79.4c.068-.241 3.042-2.82 6.61-5.728 3.568-2.91 7.056-5.805 7.75-6.434 1.21-1.096.814-1.398-9.202-7.019C5.062 56.99.345 54.155.336 53.921c-.01-.234 3.16-3.033 7.044-6.22 6.923-5.68 7.097-5.775 8.872-4.819 7.244 3.906 10.087 5.34 9.624 4.856-.295-.309-3.79-2.36-7.765-4.559l-7.23-3.998 6.997-7.582c3.849-4.17 7.247-7.676 7.551-7.79.305-.114 3.572 1.444 7.26 3.462 3.688 2.017 6.994 3.668 7.346 3.668 1.97 0-.141-1.663-6.317-4.977-3.827-2.053-6.958-3.927-6.958-4.165 0-.236 3.344-2.186 7.431-4.332l7.431-3.9 2.667 1.384c1.466.76 2.537 1.184 2.379.94-.158-.245 2.734-3.48 6.428-7.188l6.715-6.744 10.437 5.577c5.74 3.068 10.608 5.584 10.816 5.59.208.008 3.658-2.915 7.668-6.493l7.29-6.506 41.661 21.657Zm-.289.875c22.387 11.683 40.67 21.476 40.628 21.764-.115.778-10.276 12.155-10.893 12.197-.294.02-10.94-5.403-23.658-12.05-12.719-6.648-31.479-16.45-41.689-21.782l-18.563-9.695 6.277-5.746c3.453-3.161 6.484-5.789 6.735-5.839.252-.05 18.775 9.467 41.163 21.15Zm-42.097-.914c19.135 10.094 38.078 20.105 42.097 22.245a3740.05 3740.05 0 0 0 20.352 10.708c7.175 3.75 13.031 6.985 13.013 7.19-.018.205-2.758 3.12-6.088 6.475l-6.055 6.103-5.848-3.3c-3.216-1.816-5.94-3.3-6.053-3.3-.114 0-10.007-5.225-21.986-11.612-28.484-15.186-34.913-18.604-56.916-30.259-10.143-5.37-18.723-10.003-19.068-10.29-.536-.449 10.139-11.95 11.341-12.22.231-.052 16.076 8.165 35.211 18.26ZM60.16 24.497c10.141 5.439 35.66 19.068 56.706 30.285C137.912 66 155.384 75.416 155.691 75.707c.307.292-1.923 2.649-4.955 5.24l-5.513 4.71-58.008-31.629C55.31 36.633 29.128 22.171 29.033 21.89c-.096-.281.997-1.13 2.43-1.886 1.431-.756 4.325-2.28 6.43-3.386l3.827-2.01 18.439 9.889Zm-32.32 1.091c.363.32 8.175 4.68 17.36 9.687 9.184 5.007 24.37 13.3 33.747 18.429l33.051 18.08c8.802 4.815 19.036 10.405 22.742 12.423l6.739 3.67-1.013 1.855c-1.399 2.564-2.926 3.34-12.179 6.193l-8.065 2.486-53.685-29.615C37.01 52.508 12.852 39.033 12.853 38.852c.002-.805 12.675-13.847 13.454-13.847.479 0 1.168.263 1.531.583Zm14.577 6.01c-.237.363-.568.66-.737.66-.17 0-.307-.297-.307-.66 0-.362.332-.659.737-.659.405 0 .543.297.307.66Zm7.3 3.011c4.92 2.725 6.673 4.243 4.902 4.243-1.446 0-11.865-6.045-11.468-6.653.564-.865.818-.772 6.565 2.41Zm7.312 4.902c-.237.363-.568.66-.737.66-.17 0-.307-.297-.307-.66 0-.363.332-.66.737-.66.405 0 .543.297.307.66Zm8.25 3.597c7.929 4.492 6.678 5.572-1.407 1.215-5.413-2.916-6.93-4.22-5.33-4.578.316-.07 3.347 1.443 6.736 3.363Zm31.063-.96c.627.384.713.643.215.65-.456.005-1.022-.287-1.259-.65-.534-.819-.293-.819 1.044 0Zm-73.756 5.21c5.72 3.284 43.593 24.28 81.575 45.227 6.405 3.532 11.485 6.668 11.288 6.97-.196.301-2.992 1.309-6.213 2.24-3.607 1.043-7.085 2.582-9.057 4.008l-3.202 2.316-47.632-27.09C23.145 66.129 1.71 53.865 1.71 53.776c0-.614 12.58-10.299 13.326-10.26.516.026 3.912 1.756 7.548 3.843Zm85.278 1.09c1.297.986 1.288.998-.215.307-.862-.395-1.566-.857-1.566-1.025 0-.505.361-.359 1.781.719Zm-27.299 3.03c3.995 2.187 5.903 3.587 5.462 4.006-.792.75-13.485-5.99-12.918-6.859.558-.858.962-.703 7.456 2.853Zm-45.308 1.09c2.95 1.672 5.256 3.143 5.124 3.267-.207.197-10.685-5.433-11.475-6.165-1.07-.993 1.786.312 6.35 2.898Zm83.74 1.815c1.297.985 1.288.997-.215.306-.862-.395-1.566-.857-1.566-1.025 0-.504.361-.359 1.781.719Zm4.871 2.637c1.296.985 1.288.997-.216.307-.861-.396-1.565-.857-1.565-1.026 0-.504.361-.358 1.781.72Zm-27.355 3.13c3.851 2.13 5.843 3.597 5.424 3.994-.714.676-12.688-5.51-12.669-6.546.023-1.187 1.306-.735 7.245 2.552Zm-46.298.682c5.35 2.987 7.575 4.604 3.893 2.83-3.763-1.813-10.34-5.687-9.604-5.657.383.015 2.953 1.287 5.711 2.827ZM135 62.955c1.297.985 1.289.996-.215.306-.861-.396-1.565-.857-1.565-1.025 0-.505.361-.359 1.78.719Zm-31.004 1.612c0 .362-.332.659-.737.659-.405 0-.543-.297-.307-.66.237-.362.568-.659.737-.659.169 0 .307.297.307.66Zm37.267 1.684c1.297.985 1.288.997-.215.307-.862-.396-1.566-.857-1.566-1.026 0-.504.361-.358 1.781.72Zm-29.265 2.359c7.385 3.982 7.036 3.728 6.211 4.51-.77.73-14.343-6.502-13.792-7.348.57-.873.988-.717 7.581 2.838Zm-46.84.465c5.601 3.22 8.51 5.408 3.7 2.782-1.531-.835-4.428-2.4-6.437-3.479-3.417-1.833-4.367-2.573-3.131-2.435.287.032 2.928 1.442 5.868 3.132Zm-7.312 19.81c19.968 11.466 36.53 21.064 36.806 21.329.705.675-2.988 5.782-4.18 5.782-.54 0-1.912.742-3.049 1.649-1.207.962-2.942 1.648-4.171 1.648-2.771 0-4.305.598-4.305 1.677 0 .482-16.047-8.624-35.66-20.234C23.676 89.124 7.557 79.557 7.47 79.475c-.18-.17 12.307-10.505 13.375-11.07.383-.202 17.033 9.014 37 20.48ZM194.45 71.474c0 .173-1.174.901-2.609 1.62-2.387 1.194-2.46 1.307-.85 1.334 2.626.043 10.745 3.978 16.925 8.202l5.462 3.734 3.152-.844c1.734-.463 3.172-1.136 3.195-1.493.039-.588-3.201-3.297-8.923-7.463-1.76-1.282-1.815-1.398-.348-.737 3.179 1.431 10.126 6.386 12.615 8.996 3.119 3.271 6.666 11.319 8.36 18.963 1.228 5.547 2.035 20.297 1.155 21.13-.204.194-1.274.598-2.379.898l-2.008.546v-7.325c0-5.332-.362-8.447-1.33-11.453-1.761-5.464-2.404-5.902-5.883-4.004-1.53.835-2.882 1.374-3.003 1.199-.122-.176-1.462-2.693-2.978-5.594-4.83-9.242-15.278-17.75-26.079-21.24-4.876-1.575-11.918-1.97-15.888-.89-3.534.96-1.984-.507 2.543-2.407 2.151-.903 5.947-2.051 8.434-2.552 4.416-.889 10.437-1.247 10.437-.62Zm-42.055.711c1.297.986 1.288.997-.215.307-.862-.396-1.566-.857-1.566-1.025 0-.505.361-.359 1.781.718Zm48.426.554c4.603 1.558 17.287 9.562 17.287 10.91 0 .279-1.015.783-2.255 1.12-2.072.563-2.675.324-7.48-2.964-2.873-1.966-7.555-4.632-10.401-5.924l-5.176-2.349 2.045-.826c2.544-1.029 2.849-1.028 5.98.033Zm-43.945 1.718c.627.384.714.643.215.65-.455.005-1.022-.287-1.258-.65-.534-.819-.293-.819 1.043 0Zm-28.528 3.086c7.752 4.258 7.445 4.031 6.104 4.519-.596.217-3.737-1.106-7.232-3.047-7.354-4.084-6.938-3.777-6.131-4.513.389-.354 3.296.863 7.259 3.04Zm-47.174.386c3.331 1.872 5.939 3.514 5.796 3.649-.215.204-11.924-6.057-12.837-6.865-1.242-1.099 1.991.378 7.041 3.216Zm77.072-.715c-.012.478-1.499 1.719-3.305 2.757-2.829 1.627-3.091 1.685-1.891.423 2.254-2.371 5.222-4.188 5.196-3.18Zm27.612.817c7.959 1.829 18.076 8.155 23.604 14.76 1.73 2.064 4.247 5.905 5.595 8.535 1.349 2.629 2.857 4.78 3.354 4.78.495 0 1.697-.593 2.67-1.319.973-.725 2.083-1.318 2.465-1.318 1.099 0 3.637 7.812 4.078 12.549.948 10.18-2.924 19.944-11.744 29.612-5.386 5.904-9.156 8.266-14.124 8.851-1.53.18-3.566.541-4.522.803-1.329.362-.961-.134 1.556-2.099 4.534-3.538 10.553-10.884 13.462-16.428 1.34-2.554 3.008-7.277 3.726-10.55.715-3.258 1.33-5.695 1.367-5.413.12.914 4.178-1.474 5.011-2.949.709-1.255.531-1.669-1.418-3.32-1.393-1.179-2.688-1.748-3.456-1.517-1.011.304-1.441-.36-2.431-3.761-3.4-11.674-12.013-20.993-24.776-26.808-5.153-2.348-5.33-2.377-14.089-2.377-4.879 0-8.872-.063-8.872-.139 0-.076 2.068-.744 4.596-1.484 5.163-1.51 8.701-1.614 13.948-.408Zm-2.541 3.12c4.289.721 12.174 4.605 16.928 8.34 10.009 7.861 15.154 18.407 15.01 30.765-.082 7.071-.57 9.075-2.268 9.311-.695.097-5.111 1.452-9.815 3.01l-8.554 2.835-.794 3.257c-1.145 4.699-4.417 9.71-8.846 13.546-2.123 1.839-4.142 3.343-4.487 3.343-.345 0-.823.744-1.065 1.654-.418 1.581-.762 1.748-5.364 2.618-.723.138.785-1.796 3.573-4.577 9.077-9.055 12.359-16.965 11.773-28.373-.512-9.962-4.366-18.242-12.176-26.154-2.817-2.854-3.129-3.444-2.403-4.545.962-1.46 1.079-2.164.279-1.696-.305.179-1.009.048-1.565-.29-.858-.524-.865-.706-.041-1.208.738-.451.242-1.017-2.088-2.381a966.23 966.23 0 0 1-4.628-2.724c-1.402-.834-2.04-.759-5.914.694-6.477 2.43-7.563 2.555-9.809 1.133l-1.987-1.26 3.915-1.387c5.089-1.804 10.528-2.382 13.963-1.483 2.579.675 2.995.568 6.944-1.774 5.386-3.196 5.687-3.28 9.419-2.654Zm-6.958-.135c0 .206-1.455 1.206-3.233 2.224-2.772 1.587-3.637 1.777-6.088 1.339-1.57-.281-3.873-.425-5.117-.32-3.225.273-2.798-.296 1.158-1.541 3.534-1.112 13.28-2.361 13.28-1.702ZM160.356 82.3c0 .607-1.647 1.389-2.926 1.389-.438 0-.382-.39.142-.99.946-1.078 2.784-1.343 2.784-.4Zm-23.658.07c0 .363-.332.66-.737.66-.405 0-.543-.297-.307-.66.237-.362.568-.66.737-.66.169 0 .307.298.307.66Zm3.653 1.696c1.904.98 2.575 2.26 1.183 2.26-1.44 0-4.873-2.047-4.47-2.665.54-.828.998-.772 3.287.405Zm-44.085 2.237c3.21 1.784 6.186 3.596 6.61 4.028.769.784-2.762-1.026-10.014-5.132-2.105-1.19-3.514-2.16-3.131-2.152.382.007 3.323 1.472 6.535 3.256Zm49.729.865c1.137.787 1.112.931-.389 2.263-.881.783-2.443 1.724-3.47 2.094l-1.868.67 1.52-2.901c1.627-3.107 2.301-3.448 4.207-2.126Zm22.536 2.878c3.413 1.949 3.647 2.567 1.196 3.15-1.313.312-2.585-.118-4.997-1.691-2.83-1.846-3.067-2.173-1.892-2.61 2.053-.76 2.509-.669 5.693 1.15Zm-17.453.855c2.087 1.206 2.387 1.218 5.662.225l3.459-1.048 3.732 2.192c2.473 1.454 4.475 2.149 5.94 2.063 3.131-.183 3.48.975.567 1.886-2.209.69-2.774.59-5.64-1.001-2.65-1.472-3.69-1.697-6.185-1.343-2.585.367-3.491.14-6.543-1.64-1.949-1.136-3.543-2.189-3.543-2.339 0-.43.211-.347 2.551 1.005Zm-1.282 1.151c1.97 1.126 2.719 1.888 2.171 2.21-.461.27-1.93-.12-3.266-.867l-2.427-1.357-1.2 1.508c-1.046 1.314-1.405 1.405-2.786.704-1.56-.79-1.538-.829 1.354-2.386 1.617-.87 2.986-1.57 3.042-1.556.057.014 1.457.8 3.112 1.744Zm-36.756 3.505c3.253 1.798 5.599 3.275 5.213 3.283-.386.008-3.36-1.463-6.61-3.267-3.25-1.805-5.596-3.283-5.213-3.283s3.357 1.47 6.61 3.267Zm118.806 1.805c2.915 6.122 3.928 10.673 3.928 17.646 0 5.761-1.276 12.858-2.312 12.858-1.162 0-1.23-.852-.222-2.768 1.964-3.73.286-20.26-2.924-28.82-1.68-4.477-.833-3.877 1.53 1.084Zm-83.145-2.865c.669.482 1.217 1.178 1.217 1.548 0 .369.947 1.043 2.102 1.496 2.685 1.054 3.207 1.837 1.078 1.615-2.677-.278-8.029-3.543-7.59-4.63.474-1.169 1.594-1.179 3.193-.029Zm15.655 1.483c1.627.929 2.958 1.94 2.958 2.245 0 .95-3.335 4.28-3.824 3.818-.254-.24.075-1.214.731-2.163.657-.95 1.073-1.791.925-1.87-.147-.08-1.442-.71-2.877-1.402-2.576-1.242-3.431-2.394-1.739-2.344.478.014 2.2.786 3.826 1.716Zm-19.408.858c2.433 1.404 4.73 2.844 5.106 3.2.447.423-1.606 1.369-5.935 2.736l-6.618 2.09-6.104-3.306c-3.539-1.917-5.682-3.434-5.099-3.612l6.575-2.007c3.063-.936 6.038-1.69 6.61-1.677.574.013 3.032 1.172 5.465 2.576Zm9.275-1.49c-.501.19-1.102.167-1.333-.052-.231-.219.18-.374.913-.346.811.032.976.188.42.398Zm-1.65.779c.503.303 1.642.418 2.532.257.89-.161 2.513.239 3.608.889 1.095.65 2.082 1.235 2.194 1.3.112.065-.337 1.193-.998 2.507-1.489 2.959-3.396 3.289-2.804.485.395-1.873-1.082-4.03-2.76-4.03-.375 0-1.289-.435-2.032-.968-1.446-1.036-1.259-1.353.26-.44Zm-78.498.09c.627.383.713.643.215.65-.456.004-1.022-.288-1.259-.65-.534-.82-.293-.82 1.044 0Zm98.091 2.01c-.741 1.314-4.023 2.952-4.675 2.334-.551-.523 3.172-3.685 4.338-3.685.893 0 .957.255.337 1.35Zm-9.352 1.904c-1.541 2.822-2.695 3.194-1.298.418.651-1.295 1.448-2.354 1.77-2.354.321 0 .109.87-.472 1.936Zm-39.146-.439c.203.503 2.645 2.195 5.425 3.759l5.055 2.846-3.074 1.503c-2.845 1.391-3.198 1.426-4.753.478-4.358-2.658-6.667-3.734-10.291-4.796l-3.921-1.149 4.815-1.507c2.647-.828 5.165-1.628 5.594-1.777.429-.149.946.14 1.15.643Zm-42.246.847c1.297.985 1.289.997-.215.306-.861-.395-1.566-.857-1.566-1.025 0-.504.362-.359 1.781.719Zm93.893.092c-.758.696-37.216 10.32-37.625 9.933-.138-.13 7.802-2.413 17.644-5.071 21.759-5.88 20.851-5.658 19.981-4.862Zm-19.94 1.586c.781 1.196.781 1.521 0 1.99-1.493.897-2.97.729-2.138-.243.389-.453.819-1.354.955-2 .223-1.053.347-1.026 1.183.253Zm24.422 2.85c11.105 13.641 11.88 30.856 1.98 43.995-3.568 4.735-9.01 9.792-12.24 11.375-2.064 1.012-1.958.765 2.178-5.039 4.746-6.661 6.404-10.694 7.56-18.388 1.35-8.975-1.772-21.39-6.258-24.895-1.109-.866-4.266-2.681-7.015-4.034-4.68-2.302-4.875-2.484-3.061-2.85 1.065-.215 4.664-1.113 7.998-1.995l6.06-1.605 2.798 3.436Zm-27.118-2.751c-.051 1.934-2.314 3.354-7.721 4.843-3.165.872-5.857 1.585-5.985 1.585-.128 0 .204-.788.737-1.752.733-1.325 2.306-2.205 6.459-3.609 6.321-2.137 6.54-2.173 6.51-1.067Zm-67.778.201c1.297.985 1.289.997-.215.306-.861-.395-1.566-.857-1.566-1.025 0-.504.362-.359 1.781.719Zm251.501 25.404a61956.48 61956.48 0 0 1 53.056 28.066l6.791 3.609-6.018 6.536c-3.309 3.594-6.208 6.432-6.442 6.306a217147.7 217147.7 0 0 0-86.359-45.543c-10.141-5.344-18.681-9.93-18.978-10.191-.465-.411 10.031-12.616 11.242-13.072.243-.091 21.262 10.839 46.708 24.289ZM116.519 104.97c2.488.807 6.051 2.447 7.919 3.645l3.395 2.179 3.797-1.761c2.847-1.32 3.717-2.048 3.478-2.913-.278-1.009-.074-1.066 1.632-.455 1.572.562 1.823.921 1.297 1.854-.36.637-1.335 1.609-2.166 2.162-1.425.945-1.445 1.075-.343 2.228.643.674 1.17 1.386 1.17 1.583 0 .196-1.8.55-4.001.786-5.148.552-10.701 3.517-13.147 7.021-2.548 3.648-1.684 3.937 1.037.346 2.827-3.73 7.884-6.128 14.024-6.649l4.522-.384 2.315 2.965c4.556 5.839 7.082 15.282 5.64 21.09-2.212 8.912-7.387 13.4-14.108 12.235-3.481-.604-4.842-1.903-4.266-4.075.37-1.399.834-1.673 2.738-1.623 6.658.179 9.275-6.435 5.547-14.023-1.667-3.394-1.7-3.657-.556-4.451.67-.463 1.747-.842 2.394-.842 1.076 0 2.002-1.733 2.026-3.792.017-1.473-2.858-.871-5.571 1.166l-2.651 1.988-2.53-1.415c-3.367-1.882-7.382-1.942-9.943-.148-1.533 1.074-2.297 1.243-3.273.725-.701-.371-2.675-.711-4.388-.754l-3.114-.08-2.685-8.571c-1.476-4.714-2.69-8.927-2.699-9.363-.015-.82 4.143-2.177 6.596-2.154.765.008 3.427.674 5.914 1.48Zm-28.139-.475c1.297.985 1.289.997-.215.307-.861-.396-1.566-.858-1.566-1.026 0-.504.362-.358 1.781.719Zm16.913 9.032c1.287 4.079 2.501 7.826 2.697 8.327.268.684-.149.628-1.676-.227-1.118-.626-2.076-1.673-2.127-2.326-.052-.653-.889-3.637-1.859-6.631s-1.6-5.696-1.399-6.003c1.081-1.659 2.257.189 4.364 6.86Zm62.074-3.571c6.404 3.406 7.921 5.375 10.019 13.009 3.229 11.75-.236 24.993-9.326 35.639l-3.429 4.016-12.749 3.326c-7.012 1.829-13.688 3.484-14.836 3.676-1.148.193-2.582.532-3.186.753-.604.222.991-1.62 3.544-4.092 7.539-7.301 11.069-16.036 11.167-27.63.081-9.495-2.148-16.532-7.224-22.801l-2.52-3.111 2.936-.721c4.843-1.187 13.162-3.322 16.599-4.259l3.226-.879 5.779 3.074Zm-72.029-1.505c1.297.985 1.289.997-.215.307-.861-.396-1.565-.857-1.565-1.026 0-.504.36-.358 1.78.719Zm4.784.384c.662 1.869 3.177 10.287 3.177 10.633 0 .199-.559.224-1.241.054-1.01-.25-1.537.562-2.823 4.348-.953 2.801-1.966 4.655-2.546 4.655-1.572 0-1.894-1.216-.736-2.783 1.75-2.368 1.398-6.235-.74-8.111l-1.822-1.601 2.209-3.263c2.733-4.036 4.073-5.201 4.522-3.932Zm119.765 6.119c.743.515 1.107 1.166.81 1.448-.297.281-1.227-.14-2.067-.936-1.702-1.613-.839-1.964 1.257-.512Zm-18.247-.495c.255.241.464.95.464 1.573s.795 1.626 1.766 2.229c1.695 1.052 1.759 1.327 1.566 6.771l-.201 5.674-4.174 1.513c-5.725 2.075-7.852 2.049-8.423-.105-.245-.927-.255-3.375-.022-5.44.233-2.064.135-4.921-.218-6.348-.372-1.501-.385-3.049-.032-3.675.963-1.706 8.026-3.375 9.274-2.192Zm-.696.659c.256.242.464 1.139.464 1.994 0 1.053.563 1.758 1.74 2.182 1.627.586 1.739.926 1.739 5.243 0 4.073-.184 4.727-1.565 5.547-2.13 1.264-8.865 3.282-9.368 2.807-.379-.36-.454-4.577-.148-8.322.074-.907-.101-3.018-.388-4.692l-.523-3.044 3.337-1.077c3.756-1.212 4.062-1.254 4.712-.638Zm79.091 5.585c5.549 2.93 16.508 8.672 24.354 12.761 7.845 4.09 25.536 13.35 39.313 20.58 13.777 7.228 35.47 18.597 48.206 25.263 14.241 7.453 23.033 12.426 22.835 12.915-.177.438-2.733 3.945-5.679 7.795l-5.357 7-3.562-1.902c-84.807-45.269-132.753-70.842-137.157-73.155-3.062-1.608-5.676-3.018-5.81-3.134-.448-.39 11.217-13.488 11.996-13.469.425.01 5.312 2.416 10.861 5.346Zm-61.964-4.418c.616.703.631 1.298.061 2.308-1.041 1.843-1.217 1.734-1.548-.947-.304-2.468.152-2.885 1.487-1.361Zm2.82 1.613c0 .362-.313.842-.696 1.067-.382.224-.695.11-.695-.252 0-.363.313-.843.695-1.067.383-.224.696-.111.696.252Zm-126.063.944c2 2.018 1.912 4.091-.261 6.15-2.06 1.951-4.724 1.744-6.75-.524-1.6-1.791-1.537-3.292.225-5.414 1.83-2.205 4.721-2.295 6.786-.212Zm119.038 1.652c1.093 1.935.941 5.79-.274 6.941-.57.54-2.034 1.19-3.254 1.444-2.824.588-4.059-.838-4.059-4.685 0-3.16.924-4.144 4.393-4.678 1.976-.304 2.574-.121 3.194.978Zm-.915.363c.208.515.28 2.078.159 3.473-.175 2.015-.615 2.716-2.137 3.403-1.054.477-2.228.684-2.609.461-.801-.469-.951-6.707-.171-7.122 1.79-.951 4.412-1.07 4.758-.215Zm-119.646.084c.24.594.116 1.384-.277 1.756-1.134 1.075-3.297.35-3.297-1.104 0-1.677 2.942-2.214 3.574-.652Zm91.829.615c.693 1.711-.278 3.124-1.988 2.894-1.149-.155-1.568-.65-1.568-1.859s.419-1.704 1.568-1.859c.942-.127 1.737.203 1.988.824Zm-78.878 1.137c3.641 2.189 3.751 2.492 2.31 6.36l-.995 2.673 3.38 3.202c3.975 3.767 5.048 6.528 3.07 7.899-.722.5-1.367.676-1.434.392l-.54-2.319c-.8-3.441-6.661-8.349-6.661-5.577 0 .474-.414 1.399-.919 2.055-.846 1.095-1.087 1.111-2.96.194-1.121-.55-2.635-1.624-3.365-2.389-1.171-1.227-1.218-1.599-.398-3.199.51-.995.878-2.018.817-2.271-.285-1.202 2.808-9.095 3.548-9.054.464.025 2.329.94 4.147 2.034Zm-14.09-1.091c0 .544-.313.989-.696.989-.382 0-.696-.445-.696-.989s.314-.989.696-.989c.383 0 .696.445.696.989Zm92.233.387c.716 1.1-.896 2.36-1.856 1.451-.803-.761-.301-2.168.774-2.168.338 0 .824.323 1.082.717Zm-45.043 1.426c-.133.886-.784 1.562-1.614 1.679-.766.107-3.42 1.789-5.898 3.738-2.479 1.948-4.791 3.376-5.14 3.172-.348-.204-.007-.847.758-1.43s3.609-2.766 6.32-4.851c2.711-2.085 5.124-3.791 5.362-3.791.239 0 .334.667.212 1.483Zm-10.138.872c1.052.541 1.913 1.24 1.913 1.553 0 .662-4.676 4.672-5.416 4.645-.789-.028-5.716-4.547-5.716-5.242 0-1.97 6.03-2.595 9.219-.956Zm-14.584 2.26c-.201.725-.652 1.319-1.004 1.319s-.305-.59.106-1.319c.41-.725.861-1.319 1.004-1.319.142 0 .093.594-.106 1.319Zm2.189.853c-.262.65-.651 1.016-.865.813-.214-.203-.001-.735.475-1.183.688-.646.767-.57.39.37Zm-30.223-.023c-.575.558-2.061 1.217-3.306 1.464-1.796.356-2.26.234-2.26-.593 0-.711.643-1.042 2.03-1.042 1.116 0 2.604-.19 3.305-.423 1.136-.378 1.162-.314.23.594Zm146.039 1.194c1.666.963 2.137 1.566 1.613 2.063-.831.787-5.256-1.288-5.166-2.422.089-1.139 1.144-1.032 3.553.359Zm-113.311-.154c-.459.847-1.025 1.359-1.258 1.138-.233-.221.142-.914.833-1.54 1.203-1.088 1.221-1.07.425.402Zm-26.466-.605c0 1.353-.903 2.691-1.814 2.691-1.159 0-1.2-.337-.25-2.021.743-1.314 2.064-1.743 2.064-.67Zm211.694 3.855c3.728 2.026 6.677 3.779 6.553 3.896-.264.251-14.374-7.046-14.374-7.433 0-.591 1.346.019 7.821 3.537Zm-216.245-2.812c.264.725.91 2.451 1.434 3.834.524 1.383.733 2.422.464 2.308-2.049-.869-7.783-4.247-7.784-4.585 0-.232 1.073-.612 2.384-.845 1.312-.233 2.528-.786 2.703-1.228.19-.482.51-.276.799.516Zm47.157 1.154c4.529 6.597 2.497 14.341-3.762 14.341-2.656 0-2.662-.006-2.662-2.726 0-1.499-.374-3.911-.832-5.359l-.833-2.632 3.094-2.534c1.701-1.394 3.293-2.543 3.536-2.554.242-.011.9.647 1.459 1.464Zm-14.053-.273c-.458.846-1.024 1.359-1.257 1.138-.234-.221.141-.914.833-1.54 1.202-1.088 1.221-1.071.424.402Zm-7.301.018c4.027 2.327 7.972 7.93 7.972 11.325 0 1.293-.078 1.313-1.158.29-.765-.725-1.804-.975-3.063-.736-1.608.305-1.975.1-2.35-1.315-.244-.922-1.867-3.117-3.606-4.879-2.395-2.426-3.052-3.532-2.708-4.559.563-1.679 2.156-1.72 4.913-.126Zm114.953.283c1.774.757 2.083 1.785.536 1.785-1.368 0-3.545 4.206-4.123 7.966-.354 2.304-1.079 3.581-3.048 5.377-2.623 2.389-8.961 6.438-10.079 6.438-.337 0 1.253-2.003 3.534-4.451 4.734-5.082 8.617-10.637 10.392-14.87 1.114-2.655 1.361-2.853 2.788-2.245Zm-132.513-.431c.556.527-.073 1.557-.95 1.557-.36 0-.655-.445-.655-.989 0-1.02.821-1.311 1.605-.568Zm161.297.732c.046.272.033.754-.028 1.071-.061.316.388.393.998.172.614-.224.926-.126.701.221-.223.342.527 1.081 1.669 1.64 2.665 1.306 3.482 1.302 1.756-.008-1.294-.982-1.284-.995.234-.297.872.401 1.41.999 1.195 1.328-.524.803 3.663 2.808 4.654 2.227.458-.268.59-.164.32.253-.275.42 1.633 1.807 4.674 3.398 5.321 2.783 7.268 3.44 4.926 1.663-1.293-.983-1.283-.995.235-.297.872.401 1.422.979 1.224 1.283-.199.305.407 1.031 1.347 1.616 1.964 1.219 3.453 1.4 2.759.335-.332-.51-.034-.502 1.002.023 1.692.859 1.99 1.508.433.941-.575-.209-1.044-.23-1.044-.047 0 .399 35.704 19.589 36.445 19.589.283 0 .289-.346.014-.769-.454-.695 1.88.446 10.682 5.224 1.627.883 2.957 1.735 2.957 1.895 0 .359-1.778-.513-7.881-3.861-2.613-1.434-4.894-2.471-5.069-2.306-.175.167 17.305 9.735 38.846 21.262 21.539 11.528 39.616 21.355 40.171 21.837.868.753.343 1.799-3.77 7.506-3.529 4.896-5.068 6.527-5.88 6.233-.831-.301-97.305-52.771-142.202-77.34-2.981-1.631-5.621-3.275-5.867-3.653-.247-.378 2.192-3.008 5.419-5.845 4.756-4.18 6.175-5.087 7.491-4.787 1.028.235 1.46.119 1.177-.315-.247-.378-.272-.686-.059-.686.214 0 .426.223.471.494Zm-163.897.377c.557 1.376-.139 2.274-1.075 1.387-.395-.374-.405-1.003-.026-1.586.534-.818.701-.788 1.101.199Zm118.907 1.931c-1.052 4.627-6.352 12.068-12.619 17.72-5.863 5.286-8.564 6.443-17.62 7.549l-3.132.381 5.263-4.606c5.504-4.818 9.196-10.234 10.239-15.023l.557-2.559 8.322-2.781c4.578-1.529 8.582-2.791 8.899-2.803.318-.011.359.944.091 2.122Zm-93.393-.842c2.367 1.764 4.026 5.29 3.933 8.359l-.076 2.538-.577-2.771c-.709-3.398-1.686-5.254-4.008-7.614-2.089-2.122-1.751-2.36.728-.512Zm3.996.363c-.485.553-1.024.87-1.199.704-.482-.458.498-1.708 1.338-1.708.463 0 .41.378-.139 1.004Zm-37.718 1.562c5.331 3.077 6.703 4.321 1.897 1.719-5.923-3.205-7.68-4.281-6.958-4.26.383.012 2.66 1.155 5.06 2.541Zm7.812.094 2.435 1.92-1.89.017c-1.206.012-2.164-.471-2.654-1.337-1.32-2.339-.421-2.594 2.109-.6Zm-10.09.392c2.297 1.314 5.266 2.945 6.6 3.624 1.334.68 1.96 1.225 1.392 1.211-1.15-.027-13.964-7.225-12.862-7.225.382 0 2.574 1.076 4.87 2.39Zm149.774-1.297c1.427.546 1.01 2.139-1.643 6.278-1.725 2.69-2.834 3.803-3.536 3.548-.563-.205-1.154-.372-1.315-.372-.864 0-.093-5.034 1.115-7.28 1.376-2.556 2.837-3.146 5.379-2.174Zm-107.808.264c-.167.476-.715.995-1.217 1.154-.522.165-.783-.082-.609-.577.167-.476.716-.995 1.217-1.154.522-.165.783.083.609.577Zm-48.446 1.068c-.501.191-1.102.167-1.333-.052-.23-.219.18-.374.913-.346.81.032.976.188.42.398Zm49.969 1.219c0 1.063-1.853 2.071-2.565 1.396-.496-.47 1.077-2.406 1.954-2.406.336 0 .611.455.611 1.01Zm-48.108.406c2.724.743 6.888 3.142 8.594 4.952 1.86 1.973 3.871 6.827 4.329 10.446.34 2.692.28 2.997-.328 1.662-.409-.899-1.152-2.086-1.651-2.637-.5-.552-1.25-1.966-1.666-3.144-2.776-7.848-12.76-11.841-18.882-7.552-1.308.916-2.208 1.14-2.885.716-1.916-1.2 5.53-5.365 9.187-5.14.53.033 2.015.347 3.302.697Zm107.126 1.339c-.122.785-.614 1.55-1.092 1.699-1.286.402-1.07-2.262.222-2.731.817-.298 1.036-.038.87 1.032Zm-76.883.526c1.999 2.251 3.035 5.761 1.992 6.75-.949.899-2.218.071-2.218-1.447 0-.677-.785-2.113-1.744-3.193-1.036-1.167-1.571-2.393-1.317-3.018.611-1.51 1.312-1.316 3.287.908Zm-50.673-1.303c1.047.427.574.579-1.913.614-1.818.025-3.305-.251-3.305-.614 0-.791 3.273-.791 5.218 0Zm124.779 1.087c-.134.663-.817 1.311-1.517 1.438-.919.168-1.205-.103-1.028-.974.134-.663.818-1.311 1.518-1.438.919-.168 1.205.103 1.027.974Zm132.667.225c.243.373-.036.484-.655.259-1.205-.438-1.426-.911-.425-.911.36 0 .846.293 1.08.652Zm-252.934.172c-.034 2.605-3.754 4.029-4.401 1.685-.25-.904.142-1.44 1.381-1.886 2.313-.834 3.033-.785 3.02.201Zm31.453.286c-.502.19-1.103.166-1.334-.053-.23-.218.18-.374.913-.346.811.032.976.188.42.399Zm-37.724.183c.562.337.842.785.62.995-.221.209-.798-.071-1.282-.624-1.004-1.146-.811-1.254.662-.371Zm263.21 1.389c1.435.718 2.61 1.453 2.61 1.633 0 .18-1.253-.279-2.784-1.018-1.53-.74-2.783-1.489-2.783-1.662 0-.431.005-.43 2.957 1.047Zm-45.012-.338c1.297.985 1.288.997-.215.306-.862-.395-1.566-.857-1.566-1.025 0-.504.361-.359 1.781.719Zm-147.727-.589c-.479.183-1.262.183-1.74 0-.479-.183-.087-.332.87-.332s1.348.149.87.332Zm-23.484.142c1.462.295 2.501 1.152 3.466 2.857l1.38 2.435-1.834 3.543-1.833 3.542 2.414 1.233 2.415 1.232-2.656 1.27c-1.461.698-3.205 1.725-3.874 2.282-1.53 1.272-1.544.67-.047-2.027 1.908-3.436 1.606-10.043-.631-13.837-1.008-1.709-1.62-3.074-1.361-3.031.261.043 1.413.269 2.561.501Zm-3.613.6c3.564 3.732 4.264 10.937 1.59 16.378-.913 1.86-1.993 3.576-2.4 3.814-.405.238-.06-.987.77-2.722.997-2.087 1.517-4.511 1.536-7.168.025-3.41-.311-4.533-2.232-7.462-1.244-1.895-2.261-3.575-2.261-3.732 0-.751 1.996-.156 2.997.892Zm-21.26-.3c4.41 1.516 9.948 8.335 8.843 10.889-.356.823-.702.477-1.414-1.411-2.09-5.542-6.8-8.966-12.522-9.104-2.396-.057-2.52-.131-.998-.593 2.386-.724 3.46-.686 6.09.219Zm-22.815 1.056c1.611 2.852.364 7.297-2.046 7.297-.73 0-1.55-.343-1.822-.762-.315-.481-.19-.582.337-.272 1.18.691 2.86-.831 2.86-2.593 0-1.884-1.67-3.224-3.463-2.78-1.177.292-1.278.156-.675-.911.925-1.64 3.879-1.627 4.81.021Zm21.247.745c1.148.321 2.988 1.379 4.089 2.352 2.216 1.96 4.92 7.146 4.256 8.164-.81 1.24-1.518.639-2.35-1.993-1.067-3.375-4.701-6.822-8.552-8.112-2.236-.749-2.562-1.006-1.27-1.001.957.004 2.679.27 3.827.59Zm-9.045 1.423c2.527 1.525 3.144 2.166 2.254 2.345-1.287.258-5.32-1.815-6.784-3.488-1.499-1.711.732-1.148 4.53 1.143Zm59.304-1.008c-.677.167-1.616.156-2.087-.024-.471-.181.083-.318 1.231-.304 1.148.013 1.533.16.856.328Zm-7.226.749c1.243 1.301 1.555 3.409.505 3.409-1.121 0-2.833-2.02-2.833-3.343 0-1.598.842-1.622 2.328-.066Zm205.894.817c1.434.718 2.609 1.452 2.609 1.632 0 .18-1.253-.278-2.783-1.018-1.531-.739-2.784-1.488-2.784-1.661 0-.431.005-.43 2.958 1.047Zm-178.703.944c-1.387 8.949-5.614 17.212-11.406 22.293-2.183 1.915-5.038 3.98-6.345 4.588l-2.374 1.107-1.557-3.115c-2.072-4.146-1.986-5.087.747-8.112 1.276-1.413 2.72-3.714 3.207-5.111.838-2.409 1.039-2.544 3.85-2.584 4.989-.072 9.624-3.351 12.814-9.066l1.473-2.637-.409 2.637Zm-48.522-.562c.78 1.13 1.261 3.283 1.358 6.099l.151 4.353-.53-3.956c-.293-2.176-1.061-4.92-1.71-6.099-1.417-2.58-.953-2.832.73-.397Zm-24.315-1.009c1.241.339 3.323 1.628 4.627 2.864 2.3 2.179 4.468 6.631 3.622 7.433-.489.463-.307.713-2.505-3.451-1.338-2.536-2.615-3.791-5.536-5.44-3.951-2.23-3.982-2.439-.208-1.406Zm-11.651 1.688c3.735 2.813 6.873 4.169 9.645 4.169 1.786 0 3.517 1.594 2.637 2.428-.152.143-2.402-.497-5-1.424-4.867-1.735-11.668-6.081-11.036-7.05.452-.693.114-.863 3.754 1.877Zm2.435-.059 2.088 1.699-2.262-1.417c-1.244-.78-2.261-1.547-2.261-1.703 0-.494.294-.322 2.435 1.421Zm-11.05-.749c.63 1.551-.351 2.339-2.907 2.339-2.823 0-3.054-.757-.68-2.231 2.122-1.318 3.086-1.347 3.588-.108Zm41.75 2.099c2.243 5.086.255 14.912-3.663 18.108-3.081 2.513-3.69 1.969-1.758-1.57 1.6-2.927 1.854-4.183 1.826-9.025-.02-3.283-.404-6.265-.926-7.164-1.045-1.8-1.021-1.839 1.485-2.435 1.734-.413 2.022-.215 3.036 2.086Zm1.64-.445c.402.71.877 2.713 1.056 4.45l.327 3.159-.908-3.665c-.5-2.016-1.139-4.019-1.421-4.451-.282-.432-.348-.786-.148-.786.2 0 .693.582 1.094 1.293Zm-22.155.321c1.378.887 3.172 2.89 3.987 4.449l1.48 2.836-1.564 1.129c-1.54 1.112-1.574 1.092-2.365-1.407-1.03-3.254-2.148-5.284-3.929-7.137-1.874-1.95-.743-1.888 2.39.13Zm241.003 39.638c42.473 23.35 73.722 40.921 73.675 41.428-.082.899-12.557 16.883-13.176 16.883-.557 0-146.704-81.203-147.599-82.011-.621-.559.703-2.701 5.448-8.815 3.447-4.443 6.634-8.067 7.082-8.055.448.013 34.004 18.27 74.57 40.57ZM73.031 146.326c.741 1.137.138 1.335-2.122.695-1.13-.32-1.687-.606-1.24-.637.448-.031 1.277-.226 1.843-.432.567-.206 1.25-.038 1.519.374Zm216.919 1.037c2.601 1.338 2.443 1.895-.174.612-1.148-.562-2.087-1.164-2.087-1.336 0-.424.074-.4 2.261.724Zm-169.714 1.601c-1.277 2.049-3.021 2.663-3.021 1.065 0-.819 2.808-3.043 3.842-3.043.227 0-.143.89-.821 1.978Zm-11.37-.659c0 .725.626 1.912 1.391 2.637 1.353 1.282 1.842 2.638.952 2.638-.242 0-1.49-.615-2.774-1.368-2.292-1.342-2.316-1.403-1.283-3.297 1.235-2.262 1.714-2.433 1.714-.61Zm-43.706.827c2.581 2.446 4.054 6.153 4.026 10.129-.021 2.983-2.38 8.395-2.984 6.847-.65-1.67-3.938-18.699-3.66-18.962.143-.137 1.322.757 2.618 1.986Zm-3.665-.443c-.033.768-.198.925-.42.399-.201-.476-.176-1.045.055-1.264.231-.219.395.17.365.865Zm-9.053-.444c.539.328 1.46.423 2.048.209.822-.299.732.132-.392 1.874-.802 1.245-2.545 3.984-3.873 6.087-1.789 2.833-2.528 3.546-2.851 2.749-.829-2.047-.429-6.583.783-8.879 1.27-2.407 2.624-3.052 4.285-2.04Zm286.215 1.423c1.435.718 2.61 1.453 2.61 1.633 0 .18-1.253-.278-2.784-1.018s-2.783-1.488-2.783-1.662c0-.431.005-.43 2.957 1.047Zm-278.27 8.744c1.022 5.559 1.86 10.454 1.86 10.88 0 1.229-4.652.904-7.624-.532-2.397-1.159-5.597-4.376-5.597-5.626 0-.493 9.008-14.829 9.317-14.829.101 0 1.02 4.548 2.043 10.107Zm235.826-7.752c2.601 1.337 2.443 1.894-.174.612-1.148-.562-2.088-1.164-2.088-1.336 0-.424.075-.4 2.262.724Zm-167.322-.105c2.211 1.152.805 3.252-3.245 4.847-1.943.764-3.669 1.182-3.836.926-.167-.255 1.049-1.821 2.702-3.478 2.579-2.587 3.198-2.911 4.379-2.295Zm-11.87 1.999c.405 1.249.562 2.435.349 2.637-.697.661-2.646.385-4.023-.569-1.322-.917-1.316-.97.336-2.637.929-.937 1.894-1.702 2.145-1.702.252 0 .789 1.022 1.193 2.271Zm-46.472-.46c.482.998.991 3.447 1.133 5.442l.257 3.626-.62-3.18c-.343-1.748-.96-4.096-1.372-5.217-.956-2.598-.547-3.055.602-.671Zm19.53.497c.61 1.522-.089 4.945-1.01 4.945-.19 0-.062-.711.287-1.581.448-1.117.348-1.937-.343-2.802-1.171-1.464-1.276-2.211-.309-2.211.392 0 1.01.742 1.375 1.649Zm-15.795-.833c2.19.714 2.174 2.046-.03 2.355-.982.137-1.603-.252-1.922-1.204-.605-1.804-.407-1.92 1.952-1.151Zm-12.148.503c0 .907-.158 1.278-.35.824-.194-.453-.194-1.195 0-1.648.192-.453.35-.083.35.824Zm202.591 2.307c2.87 1.624 5.532 3.064 5.915 3.199.382.136.539.395.348.576-.192.18-3.166-1.257-6.611-3.195-3.444-1.938-5.949-3.525-5.566-3.527.383-.003 3.044 1.324 5.914 2.947Zm-144.161-1.321c.437.908.509 1.651.16 1.651-.684 0-1.743-2.553-1.252-3.019.164-.155.656.46 1.092 1.368Zm-74.452.168c-.301 2.49-3.028 2.941-3.504.579-.252-1.246.016-1.72 1.13-2.003 2.384-.607 2.605-.474 2.374 1.424Zm299.501-.117c2.601 1.337 2.443 1.894-.174.611-1.148-.562-2.087-1.163-2.087-1.335 0-.424.074-.401 2.261.724Zm-257.18.611c.69 1.705-.23 2.756-2.993 3.42-2.663.639-2.67.636-2.836-1.473-.15-1.887.066-2.158 2-2.525 3.063-.58 3.38-.533 3.83.578Zm-47.063.33c0 .725-.313 1.319-.696 1.319-.383 0-.696-.594-.696-1.319s.313-1.319.696-1.319c.383 0 .696.594.696 1.319Zm40.067.896c.633 1.561.033 3.39-1.111 3.39-.679 0-1.035-.661-1.035-1.923 0-2.085 1.485-3.099 2.146-1.467Zm-18.25 1.554c.237 1.372.868 4.646 1.403 7.276.534 2.629.758 4.78.497 4.78-.558 0-3.13-13.794-2.656-14.244.178-.168.518.817.755 2.188Zm245.516.72c2.565 1.366 4.913 2.745 5.218 3.065.647.678-8.864-4.155-9.848-5.005-1.202-1.039-.087-.571 4.63 1.94Zm-188.727-1.545c.458.523 1.256 2.28 1.771 3.905.793 2.498.79 3.071-.023 3.71-.783.617-1.175.048-2.125-3.088-.641-2.115-1.288-4.046-1.439-4.293-.571-.936 1.021-1.142 1.816-.234Zm-9.025-.498c-.574.2-2.061.754-3.305 1.233-1.244.478-2.262.744-2.262.591 0-.56 4.141-2.29 5.358-2.239.971.04 1.018.133.209.415Zm-34.256 1.511c0 1.269-.144 1.788-.318 1.153-.176-.635-.176-1.672 0-2.307.174-.635.318-.116.318 1.154Zm51.651-1.02c0 1.004-1.746 3.657-2.408 3.657-.875 0-2.462-1.318-2.462-2.045 0-.255.986-.789 2.191-1.187 2.46-.813 2.679-.847 2.679-.425Zm-13.105.168c1.02.148 2.028.697 2.239 1.219.563 1.39-1.671 1.171-3.746-.367-.957-.71-1.426-1.252-1.044-1.206.383.046 1.531.205 2.551.354Zm-41.93 2.5c.025 1.813-.22 3.693-.544 4.177-.345.515-.461-.58-.282-2.637.421-4.832.774-5.488.827-1.54Zm279.475-1.283c1.274.968 1.252.981-.389.241-2.129-.961-2.524-1.266-1.64-1.266.373 0 1.286.462 2.029 1.025Zm-244.524.649c-1.288.53-2.54.953-2.784.941-.905-.049 3.079-1.909 4.081-1.906.574.001-.009.436-1.297.965Zm-16.8-.14c-.004.426-.964 2.355-2.133 4.287-1.595 2.636-2.848 3.82-5.021 4.741-1.592.676-3.027 1.104-3.188.951-.16-.152.97-1.575 2.513-3.161 1.544-1.587 3.015-3.508 3.27-4.268.525-1.57 4.57-3.831 4.559-2.55Zm23.275.795c.743.532 1.882.968 2.532.968 1.554 0 2.581 4.539 1.213 5.361-2.098 1.26-3.177.538-4.651-3.112-.819-2.027-1.488-3.807-1.488-3.956 0-.539 1.072-.208 2.394.739Zm-10.542.309c-.201.725-.847 1.318-1.435 1.318-.901 0-.87-.209.189-1.318.692-.726 1.338-1.319 1.434-1.319.097 0 .011.593-.188 1.319Zm-17.597-.099c0 .714-3.843 5.76-4.825 6.335-1.26.738-.818-.692.586-1.896.73-.626 1.708-2.008 2.172-3.069.785-1.796 2.067-2.645 2.067-1.37Zm-7.855.172c.636.603.59 1.212-.2 2.662-1.326 2.429-2.509 2.475-1.705.067a76.33 76.33 0 0 0 .842-2.662c.183-.655.426-.671 1.063-.067Zm278.914.952c1.297.985 1.289.997-.215.307-.861-.396-1.565-.858-1.565-1.026 0-.504.361-.358 1.78.719Zm-233.475-.024c.636.726.686 1.24.168 1.73-.517.491-.879.273-1.217-.737-.616-1.839-.111-2.317 1.049-.993Zm-13.927-.453c-.574.336-1.826.809-2.783 1.052-1.209.306-1.421.254-.696-.17.574-.337 1.827-.81 2.783-1.053 1.209-.306 1.421-.254.696.171Zm-26.44-.139c0 .346-.948 1.657-2.105 2.912l-2.105 2.283 1.797-2.62c2.126-3.102 2.412-3.407 2.412-2.575Zm197.754 4.443c4.099 2.227 7.205 4.131 6.904 4.231-.302.101-3.655-1.512-7.451-3.583-7.94-4.331-7.572-4.103-7.193-4.439.159-.141 3.643 1.565 7.74 3.791Zm-180.382-3.742c.012.429.883.874 1.933.989 1.707.186 2.109.753 3.772 5.326 1.025 2.814 1.496 4.919 1.047 4.678-2.097-1.13-6.805-5.077-8.083-6.778-1.414-1.882-1.414-1.901-.058-3.444.751-.853 1.375-1.2 1.389-.771Zm-20.09.752c-.423.748-1.112 1.562-1.53 1.807-.546.32-.544.06.007-.916.422-.748 1.111-1.562 1.53-1.807.546-.32.544-.06-.008.916Zm29.158.445c-.957.519-2.209.941-2.783.94-.574-.001.01-.436 1.298-.965 2.962-1.22 3.758-1.206 1.485.025Zm206.349.696c1.297.985 1.289.997-.215.307-.861-.396-1.565-.858-1.565-1.026 0-.504.361-.358 1.78.719Zm-205.264.587c-.743.564-1.839 1.001-2.435.973-.938-.045-.943-.102-.041-.419a43.68 43.68 0 0 0 2.435-.973c1.369-.597 1.37-.59.041.419Zm125.942 6.239c5.718 3.187 38.733 21.463 73.367 40.613 34.634 19.151 63.344 35.144 63.799 35.541.627.547-.691 2.728-5.417 8.964-3.435 4.533-6.602 8.151-7.038 8.039-.435-.112-28.369-15.653-62.076-34.537-33.706-18.883-65.825-36.862-71.374-39.951-5.549-3.09-11.26-6.317-12.692-7.171l-2.602-1.555 6.359-7.6c3.497-4.18 6.566-7.722 6.818-7.869.254-.149 5.138 2.338 10.856 5.526Zm-124.244-5.55c0 .451-4.26 2.453-4.578 2.151-.151-.143.817-.753 2.152-1.357 1.335-.602 2.426-.96 2.426-.794Zm124.363 3.847c4.191 2.363 7.842 4.803 5.406 3.613-2.404-1.174-10.785-6-10.785-6.21 0-.423.166-.342 5.379 2.597Zm-113.951-1.268c.396.99.721 2.207.721 2.706 0 .499.313 1.091.696 1.315 1.209.708.822 3.087-.465 2.85-1.536-.282-3.566-6.876-2.444-7.94.563-.533.964-.246 1.492 1.069Zm-44.544-.3c1.108 1.05 1.239 1.664.717 3.386-.892 2.946-1.285 3.122-2.803 1.255-1.886-2.319-2.298-3.86-1.328-4.967 1.115-1.273 1.796-1.208 3.414.326Zm33.13.329c-.743.563-1.839 1.001-2.436.973-.937-.045-.942-.102-.041-.419.574-.202 1.67-.639 2.436-.973 1.369-.597 1.37-.59.041.419Zm8.313.636c.123.395.697 2.115 1.275 3.822 1.008 2.978.994 3.12-.349 3.524-1.308.393-4.82.035-7.785-.794-1.103-.308-.97-.543.921-1.633 1.891-1.09 2.145-1.541 1.772-3.151-.397-1.715-.244-1.905 1.754-2.183 1.247-.173 2.285.005 2.412.415Zm-7.311.719c-.956.518-2.209.94-2.783.939-.574-.001.01-.436 1.298-.965 2.963-1.219 3.758-1.205 1.485.026Zm-63.458-.198c1.99 1.885.473 5.143-2.394 5.143-.858 0-1.75-.294-1.984-.652-.236-.361.016-.492.565-.292.987.36 3.257-1.28 3.257-2.353 0-.311-.492-1.031-1.093-1.602-.86-.813-.889-1.035-.14-1.035.525 0 1.33.356 1.79.791Zm24.87 1.231c.748 1.148-.104 1.391-1.059.301-.549-.626-.602-1.005-.14-1.005.406 0 .947.317 1.198.704Zm-26.818.615c0 1.085-.36 1.362-1.565 1.2-.861-.116-1.566-.656-1.566-1.2 0-.544.705-1.084 1.566-1.2 1.205-.162 1.565.115 1.565 1.2Zm66.102-.111c-.574.336-1.826.809-2.783 1.052-1.209.306-1.421.254-.696-.17.574-.337 1.827-.81 2.783-1.053 1.209-.306 1.421-.254.696.171Zm-29.92.088c0 .75-2.297 2.01-3.607 1.979-.524-.012-.212-.577.727-1.318 1.786-1.411 2.88-1.662 2.88-.661Zm-30.15 1.063c.497 1.229-1.397 3.263-2.46 2.641-.514-.301-.5-.922.045-2.056.897-1.866 1.807-2.086 2.414-.585Zm245.729 3.649c3.95 2.204 7.043 4.139 6.872 4.301-.293.278-13.297-6.597-14.716-7.779-1.884-1.571 1.408-.111 7.844 3.478Zm-184.65-3.417c-.363.337-1.6.797-2.748 1.022-2.081.407-2.079.405.254-.613 2.671-1.165 3.448-1.293 2.494-.409Zm-40.289.992c.863 1.247.938 1.906.34 2.967-1.013 1.792-1.297 1.722-.904-.221.208-1.032-.19-2.066-1.14-2.967-1.093-1.036-1.201-1.384-.433-1.384.565 0 1.527.722 2.137 1.605Zm170.789.373c.626.384.713.643.215.65-.456.005-1.023-.287-1.259-.65-.534-.819-.293-.819 1.044 0Zm-172.829.292c.536 1.323.073 3.177-.868 3.474-.432.136-.986-.506-1.23-1.429-.245-.922-.77-1.677-1.168-1.677-.398 0-.53-.297-.294-.66.648-.993 3.122-.791 3.56.292Zm-7.442.093c-.033.768-.198.924-.42.399-.2-.476-.176-1.045.055-1.264.231-.219.395.17.365.865Zm11.884.275c0 .362.638.659 1.416.659 1.2 0 1.303.201.672 1.319-1.153 2.04-2.784 1.653-2.784-.66 0-1.087.157-1.978.348-1.978.192 0 .348.297.348.66Zm-14.026.659c0 .907-.158 1.278-.35.824-.194-.453-.194-1.194 0-1.648.192-.453.35-.083.35.824Zm6.043.679c1.285 1.345.958 3.277-.554 3.277-2.24 0-3.58-3.457-1.617-4.171.537-.195 1.515.207 2.171.894Zm276.376 3.465c3.532 1.891 6.428 3.648 6.437 3.903.012.366-12.669-6.184-13.843-7.149-1.342-1.104 2.102.405 7.406 3.246Zm-94.747-2.459c1.297.985 1.289.997-.215.306-.861-.395-1.565-.857-1.565-1.025 0-.504.361-.359 1.78.719Zm5.7 3c2.008 1.11 3.653 2.17 3.653 2.356 0 .366-6.188-2.895-7.272-3.832-1.179-1.02-.107-.583 3.619 1.476Zm-180.216-1.581c1.336.465 1.062 1.258-1.327 3.837l-2.197 2.371-.924-2.513c-.508-1.382-.928-2.588-.934-2.678-.005-.09.71-.165 1.59-.165.88 0 1.898-.26 2.262-.577.363-.317 1.052-.441 1.53-.275Zm-9.567 1.198c.957.496 2.278 1.053 2.936 1.238 1.83.516 2.341 3.492.866 5.036-1.736 1.818-3.574 1.61-5.987-.677-1.613-1.528-2.03-2.451-1.86-4.116.247-2.425 1.404-2.849 4.045-1.481Zm-7.073.527c2.458 2.48-.142 3.354-4.143 1.394-1.713-.839-1.95-1.206-1.272-1.978 1.237-1.413 3.698-1.147 5.415.584Zm257.848 5.543c3.791 2.055 6.578 3.835 6.193 3.957-.633.199-12.157-5.811-13.747-7.17-1.713-1.464 1.235-.211 7.554 3.213ZM55.83 180.176c1.579.83 1.575.839-.893 1.955-3.193 1.442-3.128 1.46-3.128-.858 0-2.206 1.26-2.549 4.021-1.097Zm5.72 2.928c0 3.27-1.624 5.422-4.092 5.422-2.131 0-5.39-2.752-4.634-3.912.68-1.043 4.552-2.824 4.552-2.093 0 1.682-1.014 2.709-2.684 2.718-1.443.008-1.614.147-.796.649 1.183.724 4.212.858 5.858.259 1.614-.586 1.346-1.74-.291-1.248-1.553.468-1.711-.107-.713-2.594 1.068-2.662 2.8-2.168 2.8.799Zm299.895 2.469c3.636 1.981 6.923 3.712 7.306 3.846.383.135.539.404.348.599-.338.344-12.898-6.259-14.229-7.479-1.217-1.116-.077-.59 6.575 3.034Zm-95.152-2.604c2.601 1.337 2.443 1.894-.174.611-1.148-.562-2.088-1.163-2.088-1.335 0-.424.075-.401 2.262.724Zm4.39 2.626c1.297.985 1.288.997-.215.306-.862-.395-1.566-.857-1.566-1.025 0-.504.361-.359 1.781.719Zm-47.315 0c1.297.985 1.288.997-.215.306-.862-.395-1.566-.857-1.566-1.025 0-.504.361-.359 1.781.719Zm49.9 29.533c29.765 16.737 54.031 30.74 53.926 31.117-.105.377-3.166 4.733-6.802 9.679-6.135 8.349-6.71 8.934-8.002 8.16-.765-.458-25.031-14.719-53.925-31.691-28.894-16.971-52.907-31.188-53.363-31.593-.628-.558.883-2.593 6.263-8.433 3.9-4.234 7.247-7.691 7.439-7.683.191.007 24.7 13.707 54.464 30.444Zm1.375-27.544c2.601 1.337 2.443 1.894-.174.612-1.148-.562-2.088-1.164-2.088-1.336 0-.424.075-.4 2.262.724Zm-47.796-.011c1.297.985 1.288.997-.215.307-.862-.396-1.566-.858-1.566-1.026 0-.504.361-.358 1.781.719Zm3.479 1.978c1.297.985 1.288.997-.215.307-.862-.396-1.566-.858-1.566-1.026 0-.504.361-.358 1.781.719Zm3.479 1.978c1.297.985 1.288.997-.215.307-.862-.396-1.566-.858-1.566-1.026 0-.504.361-.358 1.781.719Zm153.92 8.015c8.522 4.564 15.355 8.431 15.183 8.594-.373.354-30.171-15.537-30.723-16.385-.557-.853-1.271-1.211 15.54 7.791Zm-105.213-7.356c1.297.985 1.288.997-.216.307-.861-.396-1.565-.857-1.565-1.025 0-.505.361-.359 1.781.718Zm3.959 1.99c2.601 1.337 2.443 1.894-.174.612-1.148-.563-2.087-1.164-2.087-1.336 0-.424.074-.401 2.261.724Zm-44.317 1.967c1.297.985 1.289.996-.215.306-.861-.395-1.565-.857-1.565-1.025 0-.505.361-.359 1.78.719Zm48.707.659c1.297.985 1.289.997-.215.306-.861-.395-1.565-.857-1.565-1.025 0-.504.361-.358 1.78.719Zm-45.228 1.319c1.297.985 1.289.997-.214.306-.862-.395-1.566-.857-1.566-1.025 0-.504.361-.359 1.78.719Zm49.188.67c2.601 1.337 2.443 1.895-.174.612-1.148-.562-2.087-1.164-2.087-1.336 0-.424.074-.4 2.261.724Zm-45.708 1.308c1.297.985 1.288.997-.215.306-.862-.395-1.566-.857-1.566-1.025 0-.504.361-.359 1.781.719Zm50.098 1.318c1.297.985 1.289.997-.215.307-.861-.396-1.566-.857-1.566-1.025 0-.505.362-.359 1.781.718Zm-46.619.66c1.297.985 1.288.997-.215.306-.862-.395-1.566-.857-1.566-1.025 0-.504.361-.359 1.781.719Zm50.098 1.318c1.297.986 1.289.997-.215.307-.861-.396-1.566-.857-1.566-1.025 0-.505.362-.359 1.781.718Zm-45.228 1.319c1.297.985 1.289.997-.215.307-.861-.396-1.565-.857-1.565-1.026 0-.504.361-.358 1.78.719Zm50.099 1.319c1.297.985 1.288.997-.215.306-.862-.395-1.566-.857-1.566-1.025 0-.504.361-.358 1.781.719Zm-46.62.659c1.297.985 1.289.997-.215.307-.861-.396-1.565-.857-1.565-1.025 0-.505.361-.359 1.78.718Zm50.099 1.319c1.297.985 1.288.997-.215.307-.862-.396-1.566-.858-1.566-1.026 0-.504.361-.358 1.781.719Zm-46.62.659c1.297.985 1.289.997-.215.307-.861-.396-1.565-.857-1.565-1.025 0-.505.361-.359 1.78.718Zm51.49 1.978c1.297.985 1.289.997-.215.307-.861-.396-1.565-.857-1.565-1.025 0-.505.361-.359 1.78.718Zm-48.011 0c1.297.985 1.289.997-.215.307-.861-.396-1.565-.857-1.565-1.025 0-.505.361-.359 1.78.718Zm51.491 1.978c1.297.986 1.288.997-.216.307-.861-.396-1.565-.857-1.565-1.025 0-.505.361-.359 1.781.718Zm-47.531.012c2.601 1.337 2.443 1.894-.174.612-1.148-.563-2.087-1.164-2.087-1.336 0-.424.074-.401 2.261.724Zm4.39 2.626c1.297.985 1.289.997-.215.306-.861-.395-1.565-.857-1.565-1.025 0-.504.361-.359 1.78.719Zm51.49 1.978c1.297.985 1.289.997-.215.307-.861-.396-1.565-.858-1.565-1.026 0-.504.361-.358 1.78.719Zm-48.011 0c1.297.985 1.289.997-.215.307-.861-.396-1.565-.858-1.565-1.026 0-.504.361-.358 1.78.719Zm3.479 1.978c1.297.985 1.289.997-.215.307-.861-.396-1.565-.858-1.565-1.026 0-.504.361-.358 1.78.719Zm5.7 3c2.009 1.11 3.653 2.17 3.653 2.356 0 .366-6.188-2.895-7.272-3.832-1.179-1.02-.107-.582 3.619 1.476Zm47.182-.363c1.297.986 1.289.997-.215.307-.861-.396-1.566-.857-1.566-1.025 0-.505.362-.359 1.781.718Zm3.479 1.979c1.297.985 1.289.996-.215.306-.861-.395-1.566-.857-1.566-1.025 0-.505.362-.359 1.781.719Zm-44.532 1.978c1.297.985 1.289.997-.215.306-.861-.395-1.565-.857-1.565-1.025 0-.505.361-.359 1.78.719Zm3.479 1.978c1.297.985 1.289.997-.215.306-.861-.395-1.565-.857-1.565-1.025 0-.504.361-.359 1.78.719Zm49.403.659c1.297.985 1.288.997-.215.307-.861-.396-1.566-.858-1.566-1.026 0-.504.361-.358 1.781.719Zm-43.703 2.341c2.008 1.109 3.653 2.17 3.653 2.356 0 .366-6.188-2.895-7.272-3.832-1.179-1.02-.108-.583 3.619 1.476Zm52.052 2.275c1.297.985 1.289.996-.215.306-.86-.395-1.565-.857-1.565-1.025 0-.505.361-.359 1.78.719Zm-45.923 1.318c1.297.985 1.289.997-.215.307-.861-.396-1.566-.857-1.566-1.025 0-.505.362-.359 1.781.718Zm3.479 1.978c1.297.985 1.289.997-.215.307-.861-.396-1.566-.857-1.566-1.025 0-.505.362-.359 1.781.718Zm7.077 3.805c4.192 2.363 7.842 4.803 5.407 3.613-2.404-1.174-10.786-6-10.786-6.21 0-.423.167-.343 5.379 2.597Z" fill="#fff"/></svg>