<svg width="81" height="80" viewBox="0 0 81 80" fill="none" xmlns="http://www.w3.org/2000/svg">
<path d="M27.9282 17.4058C27.9282 21.423 24.5295 24.7461 20.2535 24.7461C15.9775 24.7461 12.5789 21.423 12.5789 17.4058C12.5789 13.3885 15.9775 10.0654 20.2535 10.0654C24.5295 10.0654 27.9282 13.3885 27.9282 17.4058Z" stroke="white" stroke-width="2"/>
<path d="M72.0902 60.6235C72.0902 64.6408 68.6915 67.9639 64.4155 67.9639C60.1395 67.9639 56.7408 64.6408 56.7408 60.6235C56.7408 56.6063 60.1395 53.2832 64.4155 53.2832C68.6915 53.2832 72.0902 56.6063 72.0902 60.6235Z" stroke="white" stroke-width="2"/>
<path d="M32.0825 18.1641L47.066 18.1641" stroke="white" stroke-width="2" stroke-linecap="round"/>
<path d="M50.7311 62.1406L35.7476 62.1406" stroke="white" stroke-width="2" stroke-linecap="round"/>
<path d="M64.4154 33.8418L64.4154 48.2478" stroke="white" stroke-width="2" stroke-linecap="round"/>
<path d="M16.3105 44.9473L16.3105 30.5412" stroke="white" stroke-width="2" stroke-linecap="round"/>
<rect y="1.38616" width="19.6596" height="19.6596" rx="4" transform="matrix(0.720861 0.693079 -0.720861 0.693079 65.2564 3.42544)" stroke="white" stroke-width="2"/>
<rect y="1.38616" width="19.6596" height="19.6596" rx="4" transform="matrix(0.720861 0.693079 -0.720861 0.693079 17.1516 47.402)" stroke="white" stroke-width="2"/>
<path d="M45.4239 21.0646L48.5554 18.0538L45.4239 15.043" stroke="white" stroke-width="2" stroke-linecap="round"/>
<path d="M61.0816 46.1552L64.2131 49.166L67.3446 46.1552" stroke="white" stroke-width="2" stroke-linecap="round"/>
<path d="M38.1171 59.202L34.9856 62.2128L38.1171 65.2236" stroke="white" stroke-width="2" stroke-linecap="round"/>
<path d="M19.3281 33.1085L16.1966 30.0977L13.0651 33.1085" stroke="white" stroke-width="2" stroke-linecap="round"/>
</svg>
