<svg width="81" height="80" viewBox="0 0 81 80" fill="none" xmlns="http://www.w3.org/2000/svg">
<path d="M46.649 9.67578H12.0563C9.29485 9.67578 7.05627 11.9144 7.05627 14.6758V69.0001C7.05627 71.7615 9.29485 74.0001 12.0563 74.0001H53.6189C56.3803 74.0001 58.6189 71.7615 58.6189 69.0001V65.7298M58.6189 23.4596V34.9461" stroke="white" stroke-width="2"/>
<path d="M45.2609 23.2997L45.2609 11.0703C45.2609 10.1635 46.374 9.72576 46.9938 10.3887L58.4278 22.6182C59.0249 23.2568 58.5711 24.2987 57.6959 24.2987L46.2619 24.2987C45.709 24.2987 45.2609 23.8515 45.2609 23.2997Z" stroke="white" stroke-width="2"/>
<path d="M13.5015 19.3242H37.4413" stroke="white" stroke-width="2" stroke-linecap="round"/>
<path d="M13.5015 27.1348H37.4413" stroke="white" stroke-width="2" stroke-linecap="round"/>
<path fill-rule="evenodd" clip-rule="evenodd" d="M38.0358 33.8201C31.1745 36.4548 27.7596 37.8133 27.6069 37.9689C27.2331 38.35 22.7088 46.1612 22.7092 46.4249C22.7094 46.5583 22.7944 46.8045 22.8981 46.9722C23.0622 47.2373 23.3564 47.3793 25.17 48.0679L27.2533 48.8589L27.2811 55.4063L27.309 61.9535L27.573 62.2136C27.7662 62.404 30.5867 63.5267 38.0879 66.3992C43.7259 68.5581 48.4129 70.3247 48.5034 70.325C48.594 70.3253 53.2741 68.5599 58.9037 66.4018C66.4364 63.5143 69.2098 62.4088 69.4057 62.2158L69.6719 61.9535L69.7011 55.4063L69.7304 48.8589L71.8121 48.0682C73.6249 47.3797 73.9182 47.238 74.0826 46.9725C74.1864 46.8047 74.2716 46.5587 74.2718 46.4256C74.2722 46.1615 69.7455 38.3488 69.3698 37.9652C69.1128 37.7029 48.8302 29.8751 48.4529 29.8926C48.3346 29.8982 43.6468 31.6655 38.0358 33.8201ZM39.7687 35.2913C35.0551 37.1033 31.2333 38.6171 31.2759 38.6554C31.3992 38.7662 48.1095 45.1531 48.3894 45.1964C48.5517 45.2215 51.6807 44.0714 57.1349 41.982C61.806 40.1927 65.6635 38.6956 65.7072 38.6552C65.7845 38.5835 48.6408 31.961 48.4399 31.9849C48.3843 31.9915 44.4823 33.4794 39.7687 35.2913ZM26.9873 42.908C26.0319 44.5374 25.2812 45.8988 25.3191 45.9335C25.4181 46.0237 43.4455 52.9181 43.4763 52.8773C43.6153 52.6928 46.9746 46.8852 46.9527 46.8671C46.8804 46.8075 28.8976 39.9437 28.8161 39.9446C28.7657 39.9452 27.9428 41.2787 26.9873 42.908ZM59.0559 43.3978C54.1068 45.2942 50.0449 46.8555 50.0292 46.8676C50.0075 46.8842 53.3778 52.7106 53.5066 52.8791C53.5389 52.9214 71.5615 46.028 71.6624 45.9348C71.7512 45.8526 68.2904 39.9442 68.1553 39.9475C68.0997 39.9489 64.005 41.5016 59.0559 43.3978ZM29.305 55.2958L29.3311 60.9097L38.3781 64.3725C43.3539 66.277 47.4373 67.8352 47.4522 67.8352C47.4672 67.8352 47.4794 63.8348 47.4794 58.9454V50.0557L46.1259 52.3756C45.3815 53.6515 44.6928 54.7822 44.5955 54.8882C44.1696 55.3519 44.2094 55.3641 36.7067 52.4881C32.8169 50.997 29.5545 49.7557 29.4567 49.7295C29.2884 49.6845 29.2803 49.9804 29.305 55.2958ZM60.3703 52.4555C52.9471 55.32 52.8863 55.3389 52.4329 54.9348C52.3352 54.8477 51.6471 53.7363 50.9036 52.4651L49.5521 50.1539L49.5263 58.9608C49.512 63.8046 49.5174 67.7844 49.538 67.8047C49.5587 67.8251 53.6424 66.2821 58.6128 64.3759L67.6498 60.91L67.6759 55.3078C67.6967 50.8552 67.6759 49.7075 67.5748 49.715C67.5048 49.7202 64.2628 50.9534 60.3703 52.4555Z" fill="white"/>
</svg>
