<svg width="81" height="80" viewBox="0 0 81 80" fill="none" xmlns="http://www.w3.org/2000/svg">
<mask id="path-1-inside-1_1043_471" fill="white">
<path fill-rule="evenodd" clip-rule="evenodd" d="M38.4487 3.97285C38.4081 3.99127 37.7283 4.04271 36.938 4.08715C33.4526 4.28316 30.8432 4.68677 28.5741 5.38072C27.8976 5.58764 26.539 6.19464 26.4862 6.31365C26.4726 6.34408 26.4199 6.36892 26.3689 6.36892C26.1661 6.36892 25.5778 7.02963 25.4366 7.41599C25.299 7.79233 25.2948 8.13264 25.2959 18.8954C25.2968 27.4849 25.3176 30.0534 25.388 30.2817C25.5894 30.9337 25.9264 31.255 26.9631 31.7833C27.6428 32.1295 29.4544 32.7503 29.7853 32.7503C29.9095 32.7503 30.0111 32.7835 30.0111 32.824C30.0111 32.8645 30.1417 32.8977 30.3015 32.8977C30.4612 32.8977 30.6124 32.9309 30.6374 32.9714C30.6625 33.0119 30.8236 33.0451 30.9955 33.0451C31.1674 33.0451 31.3396 33.0752 31.378 33.112C31.4436 33.1746 31.6583 33.2079 32.6639 33.3112C32.8868 33.3341 33.1007 33.383 33.1392 33.42C33.1777 33.457 33.4679 33.4872 33.784 33.4872C34.1181 33.4872 34.3588 33.5181 34.3588 33.5609C34.3588 33.6056 34.6781 33.6346 35.1694 33.6346C35.6607 33.6346 35.98 33.6636 35.98 33.7083C35.98 33.7552 36.5696 33.782 37.6012 33.782C38.6329 33.782 39.2224 33.8088 39.2224 33.8557C39.2224 33.9015 39.64 33.9294 40.3278 33.9294C41.0156 33.9294 41.4332 33.9015 41.4332 33.8557C41.4332 33.8088 42.0227 33.782 43.0544 33.782C44.086 33.782 44.6756 33.7552 44.6756 33.7083C44.6756 33.6636 44.9949 33.6346 45.4862 33.6346C45.9775 33.6346 46.2968 33.6056 46.2968 33.5609C46.2968 33.518 46.541 33.4872 46.882 33.4872C47.2038 33.4872 47.4876 33.4541 47.5127 33.4135C47.5377 33.373 47.7533 33.3398 47.9917 33.3398C48.2301 33.3398 48.4456 33.3067 48.4707 33.2662C48.4957 33.2256 48.6781 33.1925 48.876 33.1925C49.0738 33.1925 49.2562 33.1593 49.2813 33.1188C49.3063 33.0782 49.4721 33.0451 49.6497 33.0451C49.8273 33.0451 49.9931 33.0119 50.0182 32.9714C50.0432 32.9309 50.1925 32.8977 50.3498 32.8977C50.5071 32.8977 50.6563 32.8645 50.6814 32.824C50.7064 32.7835 50.8229 32.7503 50.9402 32.7503C51.0575 32.7503 51.2297 32.7206 51.3227 32.6843C51.4158 32.648 51.6412 32.5774 51.8236 32.5273C52.006 32.4772 52.2958 32.3743 52.4676 32.2985C52.6394 32.2228 52.8173 32.1608 52.8628 32.1608C53.0077 32.1608 54.2316 31.52 54.5745 31.2646C54.9418 30.991 55.1317 30.7217 55.2676 30.2817C55.338 30.0534 55.3588 27.4849 55.3597 18.8954C55.3608 8.15747 55.3563 7.79152 55.2199 7.4185C55.091 7.06574 54.5687 6.44261 54.4021 6.44261C54.3677 6.44261 54.2958 6.40068 54.2422 6.34946C54.0951 6.20864 53.2556 5.77939 53.1274 5.77939C53.0656 5.77939 53.0039 5.75301 52.9904 5.72088C52.9687 5.66907 52.3109 5.44763 51.3078 5.15434C49.7206 4.69031 46.8683 4.27462 43.9387 4.08037C42.7572 4.00203 38.5651 3.91994 38.4487 3.97285ZM6.20885 58.7633C6.20885 58.8038 6.10936 58.8369 5.98777 58.8369C5.86618 58.8369 5.7667 58.8701 5.7667 58.9106C5.7667 58.9512 5.70038 58.9843 5.61932 58.9843C5.53826 58.9843 5.47193 59.0175 5.47193 59.058C5.47193 59.0985 5.43789 59.1317 5.39633 59.1317C5.27724 59.1317 4.66133 59.7785 4.66133 59.9036C4.66133 59.9654 4.62817 60.016 4.58764 60.016C4.54711 60.016 4.51395 60.0795 4.51395 60.1573C4.51395 60.2349 4.47254 60.3123 4.42184 60.3292C4.2959 60.3712 4.28625 74.1225 4.41196 74.393C4.45721 74.4903 4.54011 74.6695 4.59619 74.7911C4.72441 75.0689 5.29596 75.6457 5.56405 75.7675C5.67554 75.8182 5.85461 75.9011 5.96213 75.9517C6.11408 76.0233 7.69645 76.0438 13.0855 76.0438C18.5626 76.0438 20.0201 76.0245 20.0443 75.9517C20.0612 75.9011 20.1386 75.8596 20.2163 75.8596C20.294 75.8596 20.3575 75.8264 20.3575 75.7859C20.3575 75.7454 20.4082 75.7122 20.47 75.7122C20.595 75.7122 21.2418 75.0963 21.2418 74.9772C21.2418 74.9356 21.275 74.9016 21.3155 74.9016C21.356 74.9016 21.3892 74.8353 21.3892 74.7542C21.3892 74.6732 21.4224 74.6068 21.4629 74.6068C21.5034 74.6068 21.5366 74.5073 21.5366 74.3858C21.5366 74.2642 21.5697 74.1647 21.6103 74.1647C21.6588 74.1647 21.684 71.8557 21.684 67.3851C21.684 62.9145 21.6588 60.6055 21.6103 60.6055C21.5697 60.6055 21.5366 60.506 21.5366 60.3845C21.5366 60.2629 21.5034 60.1634 21.4629 60.1634C21.4224 60.1634 21.3892 60.1092 21.3892 60.043C21.3892 59.9769 21.3312 59.8686 21.2602 59.8025C21.1893 59.7364 21.0959 59.6187 21.0527 59.5409C21.0094 59.4631 20.9104 59.3641 20.8326 59.3209C20.7549 59.2776 20.6371 59.1842 20.571 59.1133C20.5049 59.0424 20.3967 58.9843 20.3305 58.9843C20.2643 58.9843 20.2101 58.9512 20.2101 58.9106C20.2101 58.8701 20.1107 58.8369 19.9891 58.8369C19.8675 58.8369 19.768 58.8038 19.768 58.7633C19.768 58.7147 17.459 58.6896 12.9884 58.6896C8.51781 58.6896 6.20885 58.7147 6.20885 58.7633ZM33.4745 58.7633C33.4745 58.8038 33.375 58.8369 33.2535 58.8369C33.1319 58.8369 33.0324 58.8701 33.0324 58.9106C33.0324 58.9512 32.9826 58.9843 32.9219 58.9843C32.8611 58.9843 32.8113 59.0175 32.8113 59.058C32.8113 59.0985 32.7748 59.1317 32.7303 59.1317C32.5936 59.1317 32.021 59.7876 31.8401 60.1512L31.6691 60.495V67.3851C31.6691 74.9301 31.634 74.3188 32.1112 75.0715C32.2328 75.2632 32.4236 75.4608 32.535 75.5104C32.6464 75.5601 32.7376 75.6222 32.7376 75.6484C32.7376 75.6745 32.8951 75.7742 33.0877 75.8699L33.4377 76.0438H40.3278H47.2179L47.5679 75.8699C47.7604 75.7742 47.918 75.6664 47.918 75.6304C47.918 75.5943 47.9651 75.5648 48.0228 75.5648C48.165 75.5648 48.6083 75.0353 48.8165 74.6169L48.9865 74.2752V67.4147C48.9865 62.5197 48.9629 60.5035 48.9043 60.3772C48.859 60.2799 48.778 60.1075 48.7242 59.9942C48.6056 59.7445 48.038 59.1317 47.9253 59.1317C47.8808 59.1317 47.8443 59.0985 47.8443 59.058C47.8443 59.0175 47.7945 58.9843 47.7338 58.9843C47.673 58.9843 47.6232 58.9512 47.6232 58.9106C47.6232 58.8701 47.5237 58.8369 47.4021 58.8369C47.2806 58.8369 47.1811 58.8038 47.1811 58.7633C47.1811 58.7147 44.8475 58.6896 40.3278 58.6896C35.8081 58.6896 33.4745 58.7147 33.4745 58.7633ZM60.8876 58.7633C60.8876 58.8038 60.7881 58.8369 60.6665 58.8369C60.5449 58.8369 60.4455 58.8701 60.4455 58.9106C60.4455 58.9512 60.3913 58.9843 60.3251 58.9843C60.2589 58.9843 60.1507 59.0424 60.0846 59.1133C60.0185 59.1842 59.9007 59.2776 59.823 59.3209C59.7452 59.3641 59.6462 59.4631 59.6029 59.5409C59.5597 59.6187 59.4662 59.7364 59.3954 59.8025C59.3245 59.8686 59.2664 59.9769 59.2664 60.043C59.2664 60.1092 59.2332 60.1634 59.1927 60.1634C59.1522 60.1634 59.119 60.2629 59.119 60.3845C59.119 60.506 59.0859 60.6055 59.0453 60.6055C58.9968 60.6055 58.9716 62.9145 58.9716 67.3851C58.9716 71.8557 58.9968 74.1647 59.0453 74.1647C59.0859 74.1647 59.119 74.2642 59.119 74.3858C59.119 74.5073 59.1522 74.6068 59.1927 74.6068C59.2332 74.6068 59.2664 74.6732 59.2664 74.7542C59.2664 74.8353 59.2996 74.9016 59.3401 74.9016C59.3806 74.9016 59.4138 74.9356 59.4138 74.9772C59.4138 75.0963 60.0606 75.7122 60.1856 75.7122C60.2474 75.7122 60.2981 75.7454 60.2981 75.7859C60.2981 75.8264 60.3578 75.8596 60.4307 75.8596C60.5037 75.8596 60.6048 75.9011 60.6555 75.9517C60.7278 76.0241 62.2209 76.0438 67.6228 76.0438C72.9697 76.0438 74.5415 76.0233 74.6935 75.9517C74.801 75.9011 74.9801 75.8182 75.0916 75.7675C75.3596 75.6457 75.9312 75.0689 76.0594 74.7911C76.1155 74.6695 76.1984 74.4903 76.2436 74.393C76.3691 74.1229 76.3596 60.4992 76.2338 60.3734C76.1831 60.3227 76.1416 60.2216 76.1416 60.1486C76.1416 60.0757 76.1085 60.016 76.068 60.016C76.0274 60.016 75.9943 59.9654 75.9943 59.9036C75.9943 59.7785 75.3784 59.1317 75.2593 59.1317C75.2177 59.1317 75.1837 59.0985 75.1837 59.058C75.1837 59.0175 75.1173 58.9843 75.0363 58.9843C74.9552 58.9843 74.8889 58.9512 74.8889 58.9106C74.8889 58.8701 74.7894 58.8369 74.6678 58.8369C74.5462 58.8369 74.4468 58.8038 74.4468 58.7633C74.4468 58.7147 72.1378 58.6896 67.6672 58.6896C63.1966 58.6896 60.8876 58.7147 60.8876 58.7633Z"/>
</mask>
<path fill-rule="evenodd" clip-rule="evenodd" d="M38.4487 3.97285C38.4081 3.99127 37.7283 4.04271 36.938 4.08715C33.4526 4.28316 30.8432 4.68677 28.5741 5.38072C27.8976 5.58764 26.539 6.19464 26.4862 6.31365C26.4726 6.34408 26.4199 6.36892 26.3689 6.36892C26.1661 6.36892 25.5778 7.02963 25.4366 7.41599C25.299 7.79233 25.2948 8.13264 25.2959 18.8954C25.2968 27.4849 25.3176 30.0534 25.388 30.2817C25.5894 30.9337 25.9264 31.255 26.9631 31.7833C27.6428 32.1295 29.4544 32.7503 29.7853 32.7503C29.9095 32.7503 30.0111 32.7835 30.0111 32.824C30.0111 32.8645 30.1417 32.8977 30.3015 32.8977C30.4612 32.8977 30.6124 32.9309 30.6374 32.9714C30.6625 33.0119 30.8236 33.0451 30.9955 33.0451C31.1674 33.0451 31.3396 33.0752 31.378 33.112C31.4436 33.1746 31.6583 33.2079 32.6639 33.3112C32.8868 33.3341 33.1007 33.383 33.1392 33.42C33.1777 33.457 33.4679 33.4872 33.784 33.4872C34.1181 33.4872 34.3588 33.5181 34.3588 33.5609C34.3588 33.6056 34.6781 33.6346 35.1694 33.6346C35.6607 33.6346 35.98 33.6636 35.98 33.7083C35.98 33.7552 36.5696 33.782 37.6012 33.782C38.6329 33.782 39.2224 33.8088 39.2224 33.8557C39.2224 33.9015 39.64 33.9294 40.3278 33.9294C41.0156 33.9294 41.4332 33.9015 41.4332 33.8557C41.4332 33.8088 42.0227 33.782 43.0544 33.782C44.086 33.782 44.6756 33.7552 44.6756 33.7083C44.6756 33.6636 44.9949 33.6346 45.4862 33.6346C45.9775 33.6346 46.2968 33.6056 46.2968 33.5609C46.2968 33.518 46.541 33.4872 46.882 33.4872C47.2038 33.4872 47.4876 33.4541 47.5127 33.4135C47.5377 33.373 47.7533 33.3398 47.9917 33.3398C48.2301 33.3398 48.4456 33.3067 48.4707 33.2662C48.4957 33.2256 48.6781 33.1925 48.876 33.1925C49.0738 33.1925 49.2562 33.1593 49.2813 33.1188C49.3063 33.0782 49.4721 33.0451 49.6497 33.0451C49.8273 33.0451 49.9931 33.0119 50.0182 32.9714C50.0432 32.9309 50.1925 32.8977 50.3498 32.8977C50.5071 32.8977 50.6563 32.8645 50.6814 32.824C50.7064 32.7835 50.8229 32.7503 50.9402 32.7503C51.0575 32.7503 51.2297 32.7206 51.3227 32.6843C51.4158 32.648 51.6412 32.5774 51.8236 32.5273C52.006 32.4772 52.2958 32.3743 52.4676 32.2985C52.6394 32.2228 52.8173 32.1608 52.8628 32.1608C53.0077 32.1608 54.2316 31.52 54.5745 31.2646C54.9418 30.991 55.1317 30.7217 55.2676 30.2817C55.338 30.0534 55.3588 27.4849 55.3597 18.8954C55.3608 8.15747 55.3563 7.79152 55.2199 7.4185C55.091 7.06574 54.5687 6.44261 54.4021 6.44261C54.3677 6.44261 54.2958 6.40068 54.2422 6.34946C54.0951 6.20864 53.2556 5.77939 53.1274 5.77939C53.0656 5.77939 53.0039 5.75301 52.9904 5.72088C52.9687 5.66907 52.3109 5.44763 51.3078 5.15434C49.7206 4.69031 46.8683 4.27462 43.9387 4.08037C42.7572 4.00203 38.5651 3.91994 38.4487 3.97285ZM6.20885 58.7633C6.20885 58.8038 6.10936 58.8369 5.98777 58.8369C5.86618 58.8369 5.7667 58.8701 5.7667 58.9106C5.7667 58.9512 5.70038 58.9843 5.61932 58.9843C5.53826 58.9843 5.47193 59.0175 5.47193 59.058C5.47193 59.0985 5.43789 59.1317 5.39633 59.1317C5.27724 59.1317 4.66133 59.7785 4.66133 59.9036C4.66133 59.9654 4.62817 60.016 4.58764 60.016C4.54711 60.016 4.51395 60.0795 4.51395 60.1573C4.51395 60.2349 4.47254 60.3123 4.42184 60.3292C4.2959 60.3712 4.28625 74.1225 4.41196 74.393C4.45721 74.4903 4.54011 74.6695 4.59619 74.7911C4.72441 75.0689 5.29596 75.6457 5.56405 75.7675C5.67554 75.8182 5.85461 75.9011 5.96213 75.9517C6.11408 76.0233 7.69645 76.0438 13.0855 76.0438C18.5626 76.0438 20.0201 76.0245 20.0443 75.9517C20.0612 75.9011 20.1386 75.8596 20.2163 75.8596C20.294 75.8596 20.3575 75.8264 20.3575 75.7859C20.3575 75.7454 20.4082 75.7122 20.47 75.7122C20.595 75.7122 21.2418 75.0963 21.2418 74.9772C21.2418 74.9356 21.275 74.9016 21.3155 74.9016C21.356 74.9016 21.3892 74.8353 21.3892 74.7542C21.3892 74.6732 21.4224 74.6068 21.4629 74.6068C21.5034 74.6068 21.5366 74.5073 21.5366 74.3858C21.5366 74.2642 21.5697 74.1647 21.6103 74.1647C21.6588 74.1647 21.684 71.8557 21.684 67.3851C21.684 62.9145 21.6588 60.6055 21.6103 60.6055C21.5697 60.6055 21.5366 60.506 21.5366 60.3845C21.5366 60.2629 21.5034 60.1634 21.4629 60.1634C21.4224 60.1634 21.3892 60.1092 21.3892 60.043C21.3892 59.9769 21.3312 59.8686 21.2602 59.8025C21.1893 59.7364 21.0959 59.6187 21.0527 59.5409C21.0094 59.4631 20.9104 59.3641 20.8326 59.3209C20.7549 59.2776 20.6371 59.1842 20.571 59.1133C20.5049 59.0424 20.3967 58.9843 20.3305 58.9843C20.2643 58.9843 20.2101 58.9512 20.2101 58.9106C20.2101 58.8701 20.1107 58.8369 19.9891 58.8369C19.8675 58.8369 19.768 58.8038 19.768 58.7633C19.768 58.7147 17.459 58.6896 12.9884 58.6896C8.51781 58.6896 6.20885 58.7147 6.20885 58.7633ZM33.4745 58.7633C33.4745 58.8038 33.375 58.8369 33.2535 58.8369C33.1319 58.8369 33.0324 58.8701 33.0324 58.9106C33.0324 58.9512 32.9826 58.9843 32.9219 58.9843C32.8611 58.9843 32.8113 59.0175 32.8113 59.058C32.8113 59.0985 32.7748 59.1317 32.7303 59.1317C32.5936 59.1317 32.021 59.7876 31.8401 60.1512L31.6691 60.495V67.3851C31.6691 74.9301 31.634 74.3188 32.1112 75.0715C32.2328 75.2632 32.4236 75.4608 32.535 75.5104C32.6464 75.5601 32.7376 75.6222 32.7376 75.6484C32.7376 75.6745 32.8951 75.7742 33.0877 75.8699L33.4377 76.0438H40.3278H47.2179L47.5679 75.8699C47.7604 75.7742 47.918 75.6664 47.918 75.6304C47.918 75.5943 47.9651 75.5648 48.0228 75.5648C48.165 75.5648 48.6083 75.0353 48.8165 74.6169L48.9865 74.2752V67.4147C48.9865 62.5197 48.9629 60.5035 48.9043 60.3772C48.859 60.2799 48.778 60.1075 48.7242 59.9942C48.6056 59.7445 48.038 59.1317 47.9253 59.1317C47.8808 59.1317 47.8443 59.0985 47.8443 59.058C47.8443 59.0175 47.7945 58.9843 47.7338 58.9843C47.673 58.9843 47.6232 58.9512 47.6232 58.9106C47.6232 58.8701 47.5237 58.8369 47.4021 58.8369C47.2806 58.8369 47.1811 58.8038 47.1811 58.7633C47.1811 58.7147 44.8475 58.6896 40.3278 58.6896C35.8081 58.6896 33.4745 58.7147 33.4745 58.7633ZM60.8876 58.7633C60.8876 58.8038 60.7881 58.8369 60.6665 58.8369C60.5449 58.8369 60.4455 58.8701 60.4455 58.9106C60.4455 58.9512 60.3913 58.9843 60.3251 58.9843C60.2589 58.9843 60.1507 59.0424 60.0846 59.1133C60.0185 59.1842 59.9007 59.2776 59.823 59.3209C59.7452 59.3641 59.6462 59.4631 59.6029 59.5409C59.5597 59.6187 59.4662 59.7364 59.3954 59.8025C59.3245 59.8686 59.2664 59.9769 59.2664 60.043C59.2664 60.1092 59.2332 60.1634 59.1927 60.1634C59.1522 60.1634 59.119 60.2629 59.119 60.3845C59.119 60.506 59.0859 60.6055 59.0453 60.6055C58.9968 60.6055 58.9716 62.9145 58.9716 67.3851C58.9716 71.8557 58.9968 74.1647 59.0453 74.1647C59.0859 74.1647 59.119 74.2642 59.119 74.3858C59.119 74.5073 59.1522 74.6068 59.1927 74.6068C59.2332 74.6068 59.2664 74.6732 59.2664 74.7542C59.2664 74.8353 59.2996 74.9016 59.3401 74.9016C59.3806 74.9016 59.4138 74.9356 59.4138 74.9772C59.4138 75.0963 60.0606 75.7122 60.1856 75.7122C60.2474 75.7122 60.2981 75.7454 60.2981 75.7859C60.2981 75.8264 60.3578 75.8596 60.4307 75.8596C60.5037 75.8596 60.6048 75.9011 60.6555 75.9517C60.7278 76.0241 62.2209 76.0438 67.6228 76.0438C72.9697 76.0438 74.5415 76.0233 74.6935 75.9517C74.801 75.9011 74.9801 75.8182 75.0916 75.7675C75.3596 75.6457 75.9312 75.0689 76.0594 74.7911C76.1155 74.6695 76.1984 74.4903 76.2436 74.393C76.3691 74.1229 76.3596 60.4992 76.2338 60.3734C76.1831 60.3227 76.1416 60.2216 76.1416 60.1486C76.1416 60.0757 76.1085 60.016 76.068 60.016C76.0274 60.016 75.9943 59.9654 75.9943 59.9036C75.9943 59.7785 75.3784 59.1317 75.2593 59.1317C75.2177 59.1317 75.1837 59.0985 75.1837 59.058C75.1837 59.0175 75.1173 58.9843 75.0363 58.9843C74.9552 58.9843 74.8889 58.9512 74.8889 58.9106C74.8889 58.8701 74.7894 58.8369 74.6678 58.8369C74.5462 58.8369 74.4468 58.8038 74.4468 58.7633C74.4468 58.7147 72.1378 58.6896 67.6672 58.6896C63.1966 58.6896 60.8876 58.7147 60.8876 58.7633Z" stroke="white" stroke-width="4" mask="url(#path-1-inside-1_1043_471)"/>
<path d="M40.4311 37.5596L40.4311 58.7089" stroke="white" stroke-width="2" stroke-linecap="round"/>
<path d="M67.8442 58.7826V58.7826C67.8442 54.143 64.083 50.3818 59.4434 50.3818H19.945C15.3053 50.3818 11.5442 54.143 11.5442 58.7826V58.7826" stroke="white" stroke-width="2"/>
<path d="M54.3224 7.95605C54.3224 7.96796 54.2982 8.23342 53.6103 8.66712C52.9724 9.06929 51.983 9.46848 50.6713 9.81825C48.0627 10.5139 44.4034 10.9561 40.3224 10.9561C36.2414 10.9561 32.5821 10.5139 29.9734 9.81825C28.6618 9.46848 27.6724 9.06929 27.0345 8.66712C26.3466 8.23342 26.3224 7.96796 26.3224 7.95605C26.3224 7.94415 26.3466 7.67869 27.0345 7.24499C27.6724 6.84282 28.6618 6.44363 29.9734 6.09386C32.5821 5.39822 36.2414 4.95605 40.3224 4.95605C44.4034 4.95605 48.0627 5.39822 50.6713 6.09386C51.983 6.44363 52.9724 6.84282 53.6103 7.24499C54.2982 7.67869 54.3224 7.94415 54.3224 7.95605Z" stroke="white" stroke-width="2"/>
<path d="M54.3224 13.9561C54.3224 16.1652 48.0544 17.9561 40.3224 17.9561C32.5904 17.9561 26.3224 16.1652 26.3224 13.9561" stroke="white" stroke-width="2"/>
<path d="M54.3224 21.9561C54.3224 24.1652 48.0544 25.9561 40.3224 25.9561C32.5904 25.9561 26.3224 24.1652 26.3224 21.9561" stroke="white" stroke-width="2"/>
</svg>
