<svg width="81" height="80" viewBox="0 0 81 80" fill="none" xmlns="http://www.w3.org/2000/svg">
<path fill-rule="evenodd" clip-rule="evenodd" d="M29.9333 4.34525C29.622 4.66351 29.5958 4.795 29.5958 6.03285V7.3752H25.5333H21.4708L21.1333 7.72045L20.7958 8.06557V13.9083V19.7509H16.7333H12.6708L12.3333 20.0962L11.9958 20.4413V25.7626V31.084L11.2526 31.3423C9.15185 32.0726 7.59576 34.3215 7.59576 36.6269C7.59576 38.9323 9.15185 41.1812 11.2526 41.9115L11.9958 42.1698V47.4913V52.8125L12.3333 53.1576L12.6708 53.5029H21.1333H29.5958V54.8452C29.5958 56.0831 29.622 56.2146 29.9333 56.5328L30.2708 56.8781H34.8833H39.4958V58.618V60.3579L38.9114 60.4526C38.5899 60.5045 37.8198 60.7975 37.1998 61.1038C34.6049 62.3856 32.8999 65.1711 32.8999 68.1288C32.8999 72.4124 36.4075 76 40.5958 76C44.0759 76 47.2675 73.4292 48.0543 69.9921L48.2233 69.2538H54.522H60.8208L61.1582 68.9086L61.4958 68.5635V53.1576V37.752H65.0082H68.5208L68.8582 37.4067L69.1958 37.0616V31.7368V26.412L69.9176 26.177C71.9833 25.5042 73.5958 23.1803 73.5958 20.876C73.5958 18.5717 71.9833 16.2477 69.9176 15.575L69.1958 15.34V11.7028V8.06557L68.8582 7.72045L68.5208 7.3752H60.0582H51.5958V6.03285C51.5958 4.795 51.5695 4.66351 51.2582 4.34525L50.9208 4H40.5958H30.2708L29.9333 4.34525ZM31.7958 8.50026V10.7504H40.5958H49.3958V8.50026V6.25013H40.5958H31.7958V8.50026ZM22.9958 14.6881V19.7509H26.2958H29.5958V18.4086C29.5958 17.1707 29.622 17.0392 29.9333 16.721L30.2708 16.3757H34.8833H39.4958V14.6881V13.0005H34.8833H30.2708L29.9333 12.6553C29.622 12.337 29.5958 12.2055 29.5958 10.9677V9.62533H26.2958H22.9958V14.6881ZM51.5958 10.9677C51.5958 12.2055 51.5695 12.337 51.2582 12.6553L50.9208 13.0005H46.3082H41.6958V14.6881V16.3757H46.3082H50.9208L51.2582 16.721L51.5958 17.0661V20.876V24.6859L51.2582 25.031L50.9208 25.3763H46.3082H41.6958V26.7529V28.1296L45.2525 31.8157L48.8093 35.5018H57.9025H66.9958V30.9604V26.4189L66.2526 26.1606C64.1519 25.4303 62.5958 23.1814 62.5958 20.876C62.5958 18.5706 64.1519 16.3217 66.2526 15.5914L66.9958 15.3331V12.4792V9.62533H59.2958H51.5958V10.9677ZM67.2699 17.624C65.7291 18.14 64.8737 19.3009 64.8737 20.876C64.8737 22.8094 66.205 24.1705 68.0958 24.1705C69.9865 24.1705 71.3178 22.8094 71.3178 20.876C71.3178 19.5356 70.707 18.5029 69.5563 17.8978C68.9635 17.586 67.7995 17.4466 67.2699 17.624ZM31.7958 20.876V23.1261H40.5958H49.3958V20.876V18.6259H40.5958H31.7958V20.876ZM14.1958 26.5459V31.0909L14.9176 31.3259C16.9833 31.9987 18.5958 34.3226 18.5958 36.6269C18.5958 38.9312 16.9833 41.2552 14.9176 41.9279L14.1958 42.1629V46.7079V51.2528H21.8958H29.5958V49.9104C29.5958 48.6726 29.622 48.5411 29.9333 48.2228L30.2708 47.8776H34.8833H39.4958V46.4351V44.9926L35.9542 41.3723L32.4126 37.752H31.0042H29.5958V36.6269V35.5018H31.0061H32.4164L35.9561 31.8796L39.4958 28.2573V26.8168V25.3763H34.8833H30.2708L29.9333 25.031C29.622 24.7127 29.5958 24.5813 29.5958 23.3434V22.0011H21.8958H14.1958V26.5459ZM37.4329 33.4631L34.341 36.6278L37.4685 39.8263L40.5958 43.025L43.7231 39.8263L46.8505 36.6278L43.7587 33.4631C42.0581 31.7225 40.6348 30.2984 40.5958 30.2984C40.5567 30.2984 39.1335 31.7225 37.4329 33.4631ZM12.2699 33.3749C10.7291 33.8909 9.87373 35.0518 9.87373 36.6269C9.87373 38.5603 11.205 39.9214 13.0958 39.9214C14.9865 39.9214 16.3178 38.5603 16.3178 36.6269C16.3178 35.2865 15.707 34.2539 14.5563 33.6487C13.9635 33.3369 12.7995 33.1976 12.2699 33.3749ZM20.7958 36.6269V37.752H21.8958H22.9958V36.6269V35.5018H21.8958H20.7958V36.6269ZM25.1958 36.6269V37.752H26.2958H27.3958V36.6269V35.5018H26.2958H25.1958V36.6269ZM45.2525 41.4381L41.6958 45.1243V46.5009V47.8776H46.3082H50.9208L51.2582 48.2228L51.5958 48.5679V52.3778V56.1877L51.2582 56.5328L50.9208 56.8781H46.3082H41.6958V58.62V60.362L42.3158 60.4571C43.3724 60.6191 45.0348 61.5745 46.0284 62.5908C46.9982 63.5826 47.9295 65.2971 48.1009 66.406L48.1935 67.0037H53.7446H59.2958V52.3778V37.752H54.0525H48.8093L45.2525 41.4381ZM31.7958 52.3778V54.628H40.5958H49.3958V52.3778V50.1277H40.5958H31.7958V52.3778ZM39.2553 62.7207C38.1935 63.0131 37.4763 63.4305 36.7381 64.1854C34.5884 66.3842 34.5976 69.8829 36.7591 72.0936C38.404 73.7759 41.0085 74.1901 43.1065 73.1027C45.1238 72.0572 46.3925 69.494 45.9898 67.2785C45.5565 64.8959 43.9354 63.1416 41.7234 62.6615C40.7873 62.4584 40.1525 62.4736 39.2553 62.7207Z" fill="white"/>
</svg>
