<svg width="81" height="80" viewBox="0 0 81 80" fill="none" xmlns="http://www.w3.org/2000/svg">
<rect x="5.7594" y="8.88086" width="69" height="49.5595" stroke="white" stroke-width="2"/>
<rect x="37.7594" y="58.8809" width="6" height="9" stroke="white" stroke-width="2"/>
<rect x="51.4022" y="68.583" width="4.53572" height="22.2857" transform="rotate(90 51.4022 68.583)" stroke="white" stroke-width="2"/>
<line x1="4.7594" y1="48.2979" x2="75.7594" y2="48.2979" stroke="white" stroke-width="2"/>
<path d="M39.3996 22.3396C37.9512 22.3396 36.5621 22.9149 35.5379 23.9391C34.5138 24.9633 33.9384 26.3524 33.9384 27.8008C33.9384 29.2492 34.5138 30.6383 35.5379 31.6624C36.5621 32.6866 37.9512 33.262 39.3996 33.262C40.848 33.262 42.2371 32.6866 43.2613 31.6624C44.2855 30.6383 44.8608 29.2492 44.8608 27.8008C44.8608 26.3524 44.2855 24.9633 43.2613 23.9391C42.2371 22.9149 40.848 22.3396 39.3996 22.3396ZM35.7588 27.8008C35.7588 26.8352 36.1424 25.9091 36.8252 25.2263C37.508 24.5435 38.434 24.16 39.3996 24.16C40.3652 24.16 41.2913 24.5435 41.9741 25.2263C42.6568 25.9091 43.0404 26.8352 43.0404 27.8008C43.0404 28.7664 42.6568 29.6924 41.9741 30.3752C41.2913 31.058 40.3652 31.4416 39.3996 31.4416C38.434 31.4416 37.508 31.058 36.8252 30.3752C36.1424 29.6924 35.7588 28.7664 35.7588 27.8008ZM36.1185 41.9766C37.1955 42.2337 38.2979 42.3633 39.4047 42.3633C40.5091 42.3621 41.6096 42.2316 42.6836 41.9744C42.966 41.9064 43.2205 41.7531 43.4126 41.5352C43.6046 41.3174 43.7249 41.0456 43.7569 40.7569L44.003 38.5208C44.0446 38.1209 44.2276 37.749 44.519 37.472C44.8104 37.195 45.1911 37.0311 45.5926 37.0098C45.8598 36.9982 46.1256 37.0484 46.3703 37.1554L48.4142 38.0518C48.5919 38.1318 48.7844 38.1737 48.9792 38.1749C49.1741 38.1762 49.3671 38.1367 49.5458 38.0591C49.7257 37.9826 49.8866 37.869 50.0191 37.7256C51.522 36.1056 52.644 34.1704 53.3031 32.0612C53.3894 31.7815 53.3867 31.4818 53.2954 31.2036C53.2041 30.9253 53.0287 30.6823 52.7934 30.5081L50.9774 29.1683C50.7611 29.0111 50.585 28.8051 50.4636 28.5669C50.3422 28.3287 50.279 28.0652 50.279 27.7979C50.279 27.5305 50.3422 27.267 50.4636 27.0288C50.585 26.7906 50.7611 26.5846 50.9774 26.4275L52.7876 25.0906C53.0235 24.916 53.1994 24.6724 53.2907 24.3934C53.382 24.1145 53.3843 23.8141 53.2973 23.5337C52.638 21.4243 51.5146 19.4893 50.0097 17.8708C49.8102 17.6577 49.5496 17.5117 49.2637 17.453C48.9778 17.3944 48.6808 17.4259 48.4135 17.5432L46.3703 18.4432C46.1591 18.5386 45.929 18.5888 45.696 18.5888C45.2766 18.588 44.8723 18.4323 44.5605 18.1518C44.2487 17.8712 44.0515 17.4854 44.0067 17.0684L43.7591 14.8402C43.7274 14.5478 43.6051 14.2726 43.4093 14.0531C43.2134 13.8336 42.9538 13.6809 42.6669 13.6162C41.5982 13.3776 40.5076 13.251 39.4127 13.2383C38.3103 13.251 37.2122 13.3779 36.136 13.6169C35.8494 13.6812 35.59 13.8335 35.3941 14.0524C35.1983 14.2714 35.0758 14.5461 35.0438 14.8381L34.7962 17.0677C34.7495 17.4853 34.5504 17.8711 34.237 18.1512C33.9171 18.4229 33.514 18.577 33.0945 18.5881C32.8631 18.5879 32.6342 18.5398 32.4224 18.4468L30.3835 17.5468C30.1154 17.4284 29.8171 17.3965 29.53 17.4555C29.2429 17.5145 28.9813 17.6614 28.7816 17.876C27.2787 19.4948 26.1567 21.4291 25.4976 23.5374C25.4105 23.8176 25.4128 24.1179 25.5041 24.3968C25.5954 24.6756 25.7713 24.9191 26.0073 25.0935L27.8189 26.4304C28.1426 26.6696 28.3713 27.0154 28.4647 27.4069C28.5581 27.7983 28.5101 28.2102 28.3294 28.5697C28.2091 28.8081 28.0345 29.0149 27.8197 29.1734L26.0066 30.5124C25.7708 30.6867 25.595 30.9299 25.5037 31.2084C25.4124 31.487 25.41 31.7871 25.4968 32.0671C26.1548 34.1774 27.2769 36.1136 28.7808 37.7336C28.9795 37.948 29.2401 38.0951 29.5264 38.1544C29.8126 38.2136 30.1102 38.1821 30.3777 38.0642L32.4296 37.1635C32.6416 37.0703 32.8702 37.0222 33.1018 37.0222H33.1076C33.5254 37.0227 33.9285 37.177 34.24 37.4554C34.5515 37.7339 34.7497 38.1172 34.7969 38.5324L35.043 40.7584C35.0751 41.0475 35.1956 41.3196 35.3881 41.5377C35.5805 41.7557 35.8356 41.909 36.1185 41.9766ZM41.9904 40.2691C40.2865 40.6331 38.5244 40.6331 36.8205 40.2691L36.5991 38.3307C36.5029 37.4706 36.0934 36.676 35.4487 36.0985C34.8041 35.521 33.9694 35.2011 33.1039 35.1996H33.0966C32.6139 35.1976 32.1362 35.2969 31.6942 35.4909L29.9131 36.2722C28.7577 34.9691 27.8762 33.4469 27.3209 31.7962L28.8973 30.6311C29.3416 30.3035 29.7027 29.8762 29.9516 29.3835C30.2004 28.8908 30.3301 28.3466 30.3301 27.7946C30.3301 27.2426 30.2004 26.6984 29.9516 26.2056C29.7027 25.713 29.3416 25.2856 28.8973 24.958L27.3216 23.793C27.8779 22.1441 28.7597 20.6238 29.9146 19.3221L31.6855 20.1027C32.1282 20.299 32.6073 20.4 33.0915 20.399H33.0988C33.9663 20.3972 34.8029 20.0762 35.4488 19.4971C36.0948 18.918 36.505 18.1214 36.6013 17.2592L36.8197 15.3223C37.674 15.1511 38.5423 15.0595 39.4135 15.0485C40.2778 15.0594 41.1392 15.1504 41.9868 15.3216L42.2052 17.2577C42.2986 18.1199 42.707 18.9172 43.352 19.4969C43.997 20.0766 44.8332 20.3978 45.7004 20.399C46.1895 20.4106 46.6745 20.3084 47.1174 20.1005L48.8868 19.3206C50.0424 20.6222 50.9244 22.1429 51.4805 23.7922L49.9099 24.9522C49.4625 25.2783 49.0984 25.7055 48.8474 26.199C48.5964 26.6926 48.4657 27.2384 48.4657 27.792C48.4657 28.3457 48.5964 28.8915 48.8474 29.385C49.0984 29.8785 49.4625 30.3058 49.9099 30.6319L51.4864 31.7969C50.9297 33.4455 50.0483 34.9657 48.8941 36.2678L47.1174 35.4887C46.6116 35.2643 46.0599 35.1627 45.5073 35.1921C44.9547 35.2216 44.417 35.3813 43.9379 35.6582C43.4588 35.935 43.0519 36.3213 42.7506 36.7854C42.4492 37.2495 42.2618 37.7782 42.2038 38.3285L41.9904 40.2691Z" fill="white"/>
<mask id="mask0_1043_499" style="mask-type:luminance" maskUnits="userSpaceOnUse" x="25" y="12" width="29" height="31">
<path d="M53.7832 12.8496H25.0451V42.7528H53.7832V12.8496Z" fill="white"/>
<path d="M39.3996 22.3396C37.9512 22.3396 36.5621 22.9149 35.5379 23.9391C34.5138 24.9633 33.9384 26.3524 33.9384 27.8008C33.9384 29.2492 34.5138 30.6383 35.5379 31.6624C36.5621 32.6866 37.9512 33.262 39.3996 33.262C40.848 33.262 42.2371 32.6866 43.2613 31.6624C44.2855 30.6383 44.8608 29.2492 44.8608 27.8008C44.8608 26.3524 44.2855 24.9633 43.2613 23.9391C42.2371 22.9149 40.848 22.3396 39.3996 22.3396ZM35.7588 27.8008C35.7588 26.8352 36.1424 25.9091 36.8252 25.2263C37.508 24.5435 38.434 24.16 39.3996 24.16C40.3652 24.16 41.2913 24.5435 41.9741 25.2263C42.6568 25.9091 43.0404 26.8352 43.0404 27.8008C43.0404 28.7664 42.6568 29.6924 41.9741 30.3752C41.2913 31.058 40.3652 31.4416 39.3996 31.4416C38.434 31.4416 37.508 31.058 36.8252 30.3752C36.1424 29.6924 35.7588 28.7664 35.7588 27.8008ZM36.1185 41.9766C37.1955 42.2337 38.2979 42.3633 39.4047 42.3633C40.5091 42.3621 41.6096 42.2316 42.6836 41.9744C42.966 41.9064 43.2205 41.7531 43.4126 41.5352C43.6046 41.3174 43.7249 41.0456 43.7569 40.7569L44.003 38.5208C44.0446 38.1209 44.2276 37.749 44.519 37.472C44.8104 37.195 45.1911 37.0311 45.5926 37.0098C45.8598 36.9982 46.1256 37.0484 46.3703 37.1554L48.4142 38.0518C48.5919 38.1318 48.7844 38.1737 48.9792 38.1749C49.1741 38.1762 49.3671 38.1367 49.5458 38.0591C49.7257 37.9826 49.8866 37.869 50.0191 37.7256C51.522 36.1056 52.644 34.1704 53.3031 32.0612C53.3894 31.7815 53.3867 31.4818 53.2954 31.2036C53.2041 30.9253 53.0287 30.6823 52.7934 30.5081L50.9774 29.1683C50.7611 29.0111 50.585 28.8051 50.4636 28.5669C50.3422 28.3287 50.279 28.0652 50.279 27.7979C50.279 27.5305 50.3422 27.267 50.4636 27.0288C50.585 26.7906 50.7611 26.5846 50.9774 26.4275L52.7876 25.0906C53.0235 24.916 53.1994 24.6724 53.2907 24.3934C53.382 24.1145 53.3843 23.8141 53.2973 23.5337C52.638 21.4243 51.5146 19.4893 50.0097 17.8708C49.8102 17.6577 49.5496 17.5117 49.2637 17.453C48.9778 17.3944 48.6808 17.4259 48.4135 17.5432L46.3703 18.4432C46.1591 18.5386 45.929 18.5888 45.696 18.5888C45.2766 18.588 44.8723 18.4323 44.5605 18.1518C44.2487 17.8712 44.0515 17.4854 44.0067 17.0684L43.7591 14.8402C43.7274 14.5478 43.6051 14.2726 43.4093 14.0531C43.2134 13.8336 42.9538 13.6809 42.6669 13.6162C41.5982 13.3776 40.5076 13.251 39.4127 13.2383C38.3103 13.251 37.2122 13.3779 36.136 13.6169C35.8494 13.6812 35.59 13.8335 35.3941 14.0524C35.1983 14.2714 35.0758 14.5461 35.0438 14.8381L34.7962 17.0677C34.7495 17.4853 34.5504 17.8711 34.237 18.1512C33.9171 18.4229 33.514 18.577 33.0945 18.5881C32.8631 18.5879 32.6342 18.5398 32.4224 18.4468L30.3835 17.5468C30.1154 17.4284 29.8171 17.3965 29.53 17.4555C29.2429 17.5145 28.9813 17.6614 28.7816 17.876C27.2787 19.4948 26.1567 21.4291 25.4976 23.5374C25.4105 23.8176 25.4128 24.1179 25.5041 24.3968C25.5954 24.6756 25.7713 24.9191 26.0073 25.0935L27.8189 26.4304C28.1426 26.6696 28.3713 27.0154 28.4647 27.4069C28.5581 27.7983 28.5101 28.2102 28.3294 28.5697C28.2091 28.8081 28.0345 29.0149 27.8197 29.1734L26.0066 30.5124C25.7708 30.6867 25.595 30.9299 25.5037 31.2084C25.4124 31.487 25.41 31.7871 25.4968 32.0671C26.1548 34.1774 27.2769 36.1136 28.7808 37.7336C28.9795 37.948 29.2401 38.0951 29.5264 38.1544C29.8126 38.2136 30.1102 38.1821 30.3777 38.0642L32.4296 37.1635C32.6416 37.0703 32.8702 37.0222 33.1018 37.0222H33.1076C33.5254 37.0227 33.9285 37.177 34.24 37.4554C34.5515 37.7339 34.7497 38.1172 34.7969 38.5324L35.043 40.7584C35.0751 41.0475 35.1956 41.3196 35.3881 41.5377C35.5805 41.7557 35.8356 41.909 36.1185 41.9766ZM41.9904 40.2691C40.2865 40.6331 38.5244 40.6331 36.8205 40.2691L36.5991 38.3307C36.5029 37.4706 36.0934 36.676 35.4487 36.0985C34.8041 35.521 33.9694 35.2011 33.1039 35.1996H33.0966C32.6139 35.1976 32.1362 35.2969 31.6942 35.4909L29.9131 36.2722C28.7577 34.9691 27.8762 33.4469 27.3209 31.7962L28.8973 30.6311C29.3416 30.3035 29.7027 29.8762 29.9516 29.3835C30.2004 28.8908 30.3301 28.3466 30.3301 27.7946C30.3301 27.2426 30.2004 26.6984 29.9516 26.2056C29.7027 25.713 29.3416 25.2856 28.8973 24.958L27.3216 23.793C27.8779 22.1441 28.7597 20.6238 29.9146 19.3221L31.6855 20.1027C32.1282 20.299 32.6073 20.4 33.0915 20.399H33.0988C33.9663 20.3972 34.8029 20.0762 35.4488 19.4971C36.0948 18.918 36.505 18.1214 36.6013 17.2592L36.8197 15.3223C37.674 15.1511 38.5423 15.0595 39.4135 15.0485C40.2778 15.0594 41.1392 15.1504 41.9868 15.3216L42.2052 17.2577C42.2986 18.1199 42.707 18.9172 43.352 19.4969C43.997 20.0766 44.8332 20.3978 45.7004 20.399C46.1895 20.4106 46.6745 20.3084 47.1174 20.1005L48.8868 19.3206C50.0424 20.6222 50.9244 22.1429 51.4805 23.7922L49.9099 24.9522C49.4625 25.2783 49.0984 25.7055 48.8474 26.199C48.5964 26.6926 48.4657 27.2384 48.4657 27.792C48.4657 28.3457 48.5964 28.8915 48.8474 29.385C49.0984 29.8785 49.4625 30.3058 49.9099 30.6319L51.4864 31.7969C50.9297 33.4455 50.0483 34.9657 48.8941 36.2678L47.1174 35.4887C46.6116 35.2643 46.0599 35.1627 45.5073 35.1921C44.9547 35.2216 44.417 35.3813 43.9379 35.6582C43.4588 35.935 43.0519 36.3213 42.7506 36.7854C42.4492 37.2495 42.2618 37.7782 42.2038 38.3285L41.9904 40.2691Z" fill="white"/>
</mask>
<g mask="url(#mask0_1043_499)">
<path d="M39.3996 22.3396C37.9512 22.3396 36.5621 22.9149 35.5379 23.9391C34.5138 24.9633 33.9384 26.3524 33.9384 27.8008C33.9384 29.2492 34.5138 30.6383 35.5379 31.6624C36.5621 32.6866 37.9512 33.262 39.3996 33.262C40.848 33.262 42.2371 32.6866 43.2613 31.6624C44.2855 30.6383 44.8608 29.2492 44.8608 27.8008C44.8608 26.3524 44.2855 24.9633 43.2613 23.9391C42.2371 22.9149 40.848 22.3396 39.3996 22.3396ZM35.7588 27.8008C35.7588 26.8352 36.1424 25.9091 36.8252 25.2263C37.508 24.5435 38.434 24.16 39.3996 24.16C40.3652 24.16 41.2913 24.5435 41.9741 25.2263C42.6568 25.9091 43.0404 26.8352 43.0404 27.8008C43.0404 28.7664 42.6568 29.6924 41.9741 30.3752C41.2913 31.058 40.3652 31.4416 39.3996 31.4416C38.434 31.4416 37.508 31.058 36.8252 30.3752C36.1424 29.6924 35.7588 28.7664 35.7588 27.8008ZM36.1185 41.9766C37.1955 42.2337 38.2979 42.3633 39.4047 42.3633C40.5091 42.3621 41.6096 42.2316 42.6836 41.9744C42.966 41.9064 43.2205 41.7531 43.4126 41.5352C43.6046 41.3174 43.7249 41.0456 43.7569 40.7569L44.003 38.5208C44.0446 38.1209 44.2276 37.749 44.519 37.472C44.8104 37.195 45.1911 37.0311 45.5926 37.0098C45.8598 36.9982 46.1256 37.0484 46.3703 37.1554L48.4142 38.0518C48.5919 38.1318 48.7844 38.1737 48.9792 38.1749C49.1741 38.1762 49.3671 38.1367 49.5458 38.0591C49.7257 37.9826 49.8866 37.869 50.0191 37.7256C51.522 36.1056 52.644 34.1704 53.3031 32.0612C53.3894 31.7815 53.3867 31.4818 53.2954 31.2036C53.2041 30.9253 53.0287 30.6823 52.7934 30.5081L50.9774 29.1683C50.7611 29.0111 50.585 28.8051 50.4636 28.5669C50.3422 28.3287 50.279 28.0652 50.279 27.7979C50.279 27.5305 50.3422 27.267 50.4636 27.0288C50.585 26.7906 50.7611 26.5846 50.9774 26.4275L52.7876 25.0906C53.0235 24.916 53.1994 24.6724 53.2907 24.3934C53.382 24.1145 53.3843 23.8141 53.2973 23.5337C52.638 21.4243 51.5146 19.4893 50.0097 17.8708C49.8102 17.6577 49.5496 17.5117 49.2637 17.453C48.9778 17.3944 48.6808 17.4259 48.4135 17.5432L46.3703 18.4432C46.1591 18.5386 45.929 18.5888 45.696 18.5888C45.2766 18.588 44.8723 18.4323 44.5605 18.1518C44.2487 17.8712 44.0515 17.4854 44.0067 17.0684L43.7591 14.8402C43.7274 14.5478 43.6051 14.2726 43.4093 14.0531C43.2134 13.8336 42.9538 13.6809 42.6669 13.6162C41.5982 13.3776 40.5076 13.251 39.4127 13.2383C38.3103 13.251 37.2122 13.3779 36.136 13.6169C35.8494 13.6812 35.59 13.8335 35.3941 14.0524C35.1983 14.2714 35.0758 14.5461 35.0438 14.8381L34.7962 17.0677C34.7495 17.4853 34.5504 17.8711 34.237 18.1512C33.9171 18.4229 33.514 18.577 33.0945 18.5881C32.8631 18.5879 32.6342 18.5398 32.4224 18.4468L30.3835 17.5468C30.1154 17.4284 29.8171 17.3965 29.53 17.4555C29.2429 17.5145 28.9813 17.6614 28.7816 17.876C27.2787 19.4948 26.1567 21.4291 25.4976 23.5374C25.4105 23.8176 25.4128 24.1179 25.5041 24.3968C25.5954 24.6756 25.7713 24.9191 26.0073 25.0935L27.8189 26.4304C28.1426 26.6696 28.3713 27.0154 28.4647 27.4069C28.5581 27.7983 28.5101 28.2102 28.3294 28.5697C28.2091 28.8081 28.0345 29.0149 27.8197 29.1734L26.0066 30.5124C25.7708 30.6867 25.595 30.9299 25.5037 31.2084C25.4124 31.487 25.41 31.7871 25.4968 32.0671C26.1548 34.1774 27.2769 36.1136 28.7808 37.7336C28.9795 37.948 29.2401 38.0951 29.5264 38.1544C29.8126 38.2136 30.1102 38.1821 30.3777 38.0642L32.4296 37.1635C32.6416 37.0703 32.8702 37.0222 33.1018 37.0222H33.1076C33.5254 37.0227 33.9285 37.177 34.24 37.4554C34.5515 37.7339 34.7497 38.1172 34.7969 38.5324L35.043 40.7584C35.0751 41.0475 35.1956 41.3196 35.3881 41.5377C35.5805 41.7557 35.8356 41.909 36.1185 41.9766ZM41.9904 40.2691C40.2865 40.6331 38.5244 40.6331 36.8205 40.2691L36.5991 38.3307C36.5029 37.4706 36.0934 36.676 35.4487 36.0985C34.8041 35.521 33.9694 35.2011 33.1039 35.1996H33.0966C32.6139 35.1976 32.1362 35.2969 31.6942 35.4909L29.9131 36.2722C28.7577 34.9691 27.8762 33.4469 27.3209 31.7962L28.8973 30.6311C29.3416 30.3035 29.7027 29.8762 29.9516 29.3835C30.2004 28.8908 30.3301 28.3466 30.3301 27.7946C30.3301 27.2426 30.2004 26.6984 29.9516 26.2056C29.7027 25.713 29.3416 25.2856 28.8973 24.958L27.3216 23.793C27.8779 22.1441 28.7597 20.6238 29.9146 19.3221L31.6855 20.1027C32.1282 20.299 32.6073 20.4 33.0915 20.399H33.0988C33.9663 20.3972 34.8029 20.0762 35.4488 19.4971C36.0948 18.918 36.505 18.1214 36.6013 17.2592L36.8197 15.3223C37.674 15.1511 38.5423 15.0595 39.4135 15.0485C40.2778 15.0594 41.1392 15.1504 41.9868 15.3216L42.2052 17.2577C42.2986 18.1199 42.707 18.9172 43.352 19.4969C43.997 20.0766 44.8332 20.3978 45.7004 20.399C46.1895 20.4106 46.6745 20.3084 47.1174 20.1005L48.8868 19.3206C50.0424 20.6222 50.9244 22.1429 51.4805 23.7922L49.9099 24.9522C49.4625 25.2783 49.0984 25.7055 48.8474 26.199C48.5964 26.6926 48.4657 27.2384 48.4657 27.792C48.4657 28.3457 48.5964 28.8915 48.8474 29.385C49.0984 29.8785 49.4625 30.3058 49.9099 30.6319L51.4864 31.7969C50.9297 33.4455 50.0483 34.9657 48.8941 36.2678L47.1174 35.4887C46.6116 35.2643 46.0599 35.1627 45.5073 35.1921C44.9547 35.2216 44.417 35.3813 43.9379 35.6582C43.4588 35.935 43.0519 36.3213 42.7506 36.7854C42.4492 37.2495 42.2618 37.7782 42.2038 38.3285L41.9904 40.2691Z" fill="white"/>
</g>
</svg>
