<svg width="16" height="13" viewBox="0 0 16 13" fill="none" xmlns="http://www.w3.org/2000/svg">
  <path
    d="M0.720215 6.93794C0.720215 6.60289 0.969194 6.32599 1.29223 6.28217L1.38203 6.27613L13.0159 6.27666L8.81294 2.09085C8.55393 1.83295 8.55302 1.41391 8.81092 1.1549C9.04538 0.919436 9.413 0.897284 9.67251 1.08897L9.74687 1.15289L15.0855 6.46861C15.1197 6.5026 15.1493 6.5394 15.1745 6.57825C15.1816 6.58994 15.1889 6.60191 15.1957 6.61411C15.202 6.62457 15.2077 6.63544 15.2131 6.64642C15.2206 6.6624 15.2279 6.67891 15.2345 6.69576C15.2399 6.70875 15.2444 6.72138 15.2485 6.73411C15.2534 6.7499 15.2581 6.76673 15.2622 6.78381C15.2652 6.79574 15.2676 6.80722 15.2697 6.81874C15.2726 6.83589 15.2751 6.85363 15.2769 6.87159C15.2785 6.88528 15.2794 6.89885 15.2799 6.91243C15.28 6.92066 15.2802 6.92928 15.2802 6.93794L15.2799 6.96358C15.2794 6.97657 15.2785 6.98955 15.2772 7.0025L15.2802 6.93794C15.2802 6.97971 15.2763 7.02057 15.2689 7.06019C15.2672 7.06965 15.2652 7.07936 15.2629 7.08904C15.2582 7.10896 15.2528 7.12814 15.2465 7.14695C15.2435 7.1563 15.2399 7.16628 15.2361 7.17619C15.2283 7.19611 15.2199 7.21509 15.2107 7.23358C15.2064 7.24228 15.2016 7.25138 15.1965 7.26039C15.1883 7.27509 15.1797 7.28906 15.1707 7.30267C15.1644 7.31231 15.1573 7.32234 15.15 7.33221L15.1443 7.33984C15.1264 7.36314 15.1071 7.38521 15.0864 7.40592L15.0856 7.40654L9.74691 12.7231C9.48792 12.9811 9.06888 12.9802 8.81096 12.7212C8.57649 12.4858 8.55589 12.118 8.74867 11.8593L8.8129 11.7853L13.0142 7.60029L1.38203 7.59976C1.01652 7.59976 0.720215 7.30346 0.720215 6.93794Z"
    fill="white" />
</svg>