<svg width="20" height="20" viewBox="0 0 20 20" fill="none" xmlns="http://www.w3.org/2000/svg">
<g id="Frame 10">
<path id="Vector (Stroke)" fill-rule="evenodd" clip-rule="evenodd" d="M9.99996 0.916748C10.4142 0.916748 10.75 1.25253 10.75 1.66675V9.25008H18.3333C18.7475 9.25008 19.0833 9.58587 19.0833 10.0001C19.0833 10.4143 18.7475 10.7501 18.3333 10.7501H10.75V18.3334C10.75 18.7476 10.4142 19.0834 9.99996 19.0834C9.58575 19.0834 9.24996 18.7476 9.24996 18.3334V10.7501H1.66663C1.25241 10.7501 0.916626 10.4143 0.916626 10.0001C0.916626 9.58587 1.25241 9.25008 1.66663 9.25008H9.24996V1.66675C9.24996 1.25253 9.58575 0.916748 9.99996 0.916748Z" fill="white"/>
</g>
</svg>
