<svg width="34" height="36" viewBox="0 0 34 36" fill="none" xmlns="http://www.w3.org/2000/svg">
<path fill-rule="evenodd" clip-rule="evenodd" d="M1.16667 0.867446C0.116667 1.59736 0 3.28378 0 17.7794C0 29.2425 0.230667 34.1555 0.8 34.8345C1.83467 36.0685 30.7967 36.187 32.7107 34.9657C33.92 34.1936 34 33.1465 34 18.0299C34 6.55804 33.7693 1.64188 33.2 0.962859C32.1747 -0.260018 2.91467 -0.346685 1.16667 0.867446ZM7.33333 19.0913V28.6327H9.33333C11.222 28.6327 11.3333 28.4561 11.3333 25.4522V22.2718H14.9907C18.5187 22.2718 18.71 22.3839 20.4127 25.4522C21.9107 28.1516 22.5287 28.6327 24.5013 28.6327H26.8247L24.9573 25.7122L23.09 22.7926L24.5447 21.6397C25.7313 20.6998 26 19.7211 26 16.3347C26 10.0191 25.2707 9.55004 15.4473 9.55004H7.33333V19.0913ZM11.804 14.0241C11.5453 14.3326 11.3333 15.4203 11.3333 16.4412C11.3333 18.231 11.522 18.2962 16.7107 18.2962H22.0887L21.8773 16.1097C21.672 13.9804 21.5433 13.9168 16.9707 13.6926C14.388 13.5661 12.0633 13.7156 11.804 14.0241Z" fill="white"/>
<circle cx="28.8782" cy="9.64969" r="2.37821" fill="#FF0000"/>
</svg>
